<svg width="226" height="92" viewBox="0 0 226 92" fill="none" xmlns="http://www.w3.org/2000/svg">
<rect width="226" height="92" rx="4" fill="#EB592A"/>
<path d="M151.796 89.8468L151.428 89.9993C151.428 89.9994 151.427 89.9996 151.427 90H153.025C153.001 89.9401 152.933 89.8823 152.813 89.8373C152.525 89.7288 152.07 89.733 151.796 89.8468Z" fill="#D2491D"/>
<path d="M156.574 87.8655L156.206 88.0179C155.888 88.1502 155.884 88.3596 156.206 88.4931C156.537 88.6308 157.088 88.6358 157.436 88.5047L157.821 88.3594C157.831 88.3557 157.842 88.3515 157.851 88.3478C158.187 88.2083 158.174 87.9871 157.821 87.8541C157.469 87.7208 156.91 87.7259 156.574 87.8655Z" fill="#D2491D"/>
<path d="M161.378 85.8952L161.008 86.0465C160.637 86.199 160.633 86.4419 161.008 86.5954C161.391 86.7523 162.024 86.7563 162.42 86.605L162.803 86.4586C162.81 86.4557 162.82 86.4518 162.827 86.4489C163.214 86.2907 163.203 86.0385 162.803 85.8855C162.403 85.7329 161.765 85.7369 161.378 85.8952Z" fill="#D2491D"/>
<path d="M166.19 83.9274L165.818 84.0782C165.399 84.249 165.396 84.5223 165.818 84.694C166.248 84.8687 166.954 84.8726 167.397 84.7026L167.778 84.5557C167.784 84.5533 167.793 84.5497 167.799 84.5471C168.232 84.3713 168.222 84.09 167.778 83.919C167.333 83.7478 166.622 83.7516 166.19 83.9274Z" fill="#D2491D"/>
<path d="M171.032 81.972L170.66 82.1224C170.209 82.3045 170.206 82.5974 170.66 82.7804C171.119 82.9661 171.872 82.969 172.341 82.7872L172.721 82.6399C172.725 82.6381 172.734 82.6349 172.739 82.6331C173.2 82.4466 173.193 82.1475 172.721 81.965C172.25 81.7826 171.494 81.7858 171.032 81.972Z" fill="#D2491D"/>
<path d="M175.875 80.0168L175.503 80.1671C175.025 80.3603 175.022 80.6705 175.503 80.8645C175.99 81.0613 176.787 81.0646 177.285 80.8719L177.665 80.7244C177.67 80.7226 177.679 80.7191 177.683 80.7172C178.173 80.5197 178.164 80.2029 177.665 80.0093C177.165 79.816 176.364 79.8194 175.875 80.0168Z" fill="#D2491D"/>
<path d="M180.749 78.0736L180.374 78.2231C179.874 78.422 179.873 78.7435 180.374 78.9426C180.876 79.1427 181.693 79.1438 182.199 78.945L182.576 78.7966L182.583 78.794C183.086 78.5938 183.083 78.27 182.576 78.071C182.07 77.8722 181.252 77.8732 180.749 78.0736Z" fill="#D2491D"/>
<path d="M185.625 76.1317L185.25 76.2812C184.741 76.4838 184.741 76.8111 185.25 77.0137C185.761 77.2175 186.594 77.2186 187.109 77.0163L187.487 76.8679L187.493 76.8652C188.005 76.6614 188.003 76.3317 187.487 76.1291C186.971 75.9265 186.137 75.9276 185.625 76.1317Z" fill="#D2491D"/>
<path d="M190.518 74.1963L190.141 74.3447L190.134 74.3473C189.621 74.5512 189.624 74.8813 190.14 75.0843C190.657 75.2873 191.491 75.286 192.004 75.0817L192.379 74.9322C192.888 74.7294 192.889 74.4017 192.379 74.1987C191.867 73.9948 191.033 73.9937 190.518 74.1963Z" fill="#D2491D"/>
<path d="M195.428 72.2675L195.05 72.4159L195.044 72.4184C194.541 72.6191 194.544 72.943 195.05 73.1422C195.557 73.3415 196.377 73.3404 196.88 73.1396L197.256 72.9903C197.755 72.7912 197.756 72.4694 197.256 72.2699C196.753 72.0696 195.934 72.0685 195.428 72.2675Z" fill="#D2491D"/>
<path d="M200.341 70.34L199.962 70.4873C199.957 70.4892 199.947 70.4928 199.942 70.4947C199.452 70.6927 199.46 71.0107 199.962 71.2045C200.462 71.3985 201.265 71.3951 201.755 71.1971L202.128 71.0469C202.607 70.8529 202.61 70.5419 202.128 70.3472C201.64 70.1499 200.84 70.1468 200.341 70.34Z" fill="#D2491D"/>
<path d="M206.598 69.2417L206.971 69.0913C207.423 68.9085 207.426 68.615 206.971 68.4313C206.511 68.2454 205.756 68.2423 205.285 68.4245L204.905 68.572C204.901 68.5737 204.892 68.577 204.888 68.5788C204.425 68.7656 204.433 69.0655 204.905 69.2487C205.377 69.4316 206.135 69.4285 206.598 69.2417Z" fill="#D2491D"/>
<path d="M211.441 67.2862L211.813 67.1358C212.238 66.964 212.241 66.688 211.813 66.5155C211.38 66.3407 210.671 66.3377 210.229 66.5091L209.849 66.6564C209.845 66.6582 209.837 66.6613 209.833 66.663C209.397 66.8386 209.404 67.1207 209.849 67.2928C210.293 67.4649 211.005 67.4618 211.441 67.2862Z" fill="#D2491D"/>
<path d="M214.798 64.7628C214.41 64.9216 214.421 65.1748 214.823 65.3284C215.224 65.4819 215.865 65.4775 216.253 65.3185L216.623 65.1671C216.996 65.0143 216.999 64.7703 216.623 64.6164C216.238 64.459 215.604 64.4546 215.206 64.6067L214.823 64.753C214.815 64.756 214.805 64.7598 214.798 64.7628Z" fill="#D2491D"/>
<path d="M221.057 63.3484L221.425 63.1959C221.745 63.063 221.748 62.8526 221.425 62.7186C221.092 62.5803 220.538 62.5751 220.188 62.707L219.803 62.8523C219.794 62.8559 219.782 62.8603 219.774 62.864C219.436 63.0043 219.449 63.2265 219.803 63.3599C220.158 63.4938 220.72 63.4887 221.057 63.3484Z" fill="#D2491D"/>
<path d="M225.198 60.8174L224.813 60.9629C224.805 60.9658 224.796 60.9693 224.789 60.9725C224.513 61.0868 224.524 61.2676 224.813 61.3766C225.102 61.4857 225.559 61.4813 225.835 61.3669L226 61.2983V60.7695C225.741 60.7191 225.419 60.734 225.198 60.8174Z" fill="#D2491D"/>
<path d="M174.811 90L226 69.5466V69.3355L173.229 90H174.811Z" fill="#D2491D"/>
<path d="M200.136 88.9569L226 78.7266V77.241L198.259 88.214L200.136 88.9569Z" fill="#D2491D"/>
<path d="M215.43 90H219.026L226 87.2659V85.7879L225.082 86.1477L215.43 90Z" fill="#D2491D"/>
<path d="M1.20175 60.8268C1.14224 60.8022 1.07345 60.7836 1 60.7693V61.2981L1.20175 61.2145C1.46114 61.1069 1.46439 60.9357 1.20175 60.8268Z" fill="#D2491D"/>
<path d="M5.23025 58.9371L4.84256 59.0815C4.83512 59.0842 4.82675 59.0874 4.81978 59.0905C4.61942 59.1747 4.62919 59.3071 4.84256 59.3863C5.05547 59.4656 5.39017 59.4616 5.59053 59.3773L5.95545 59.224C6.13907 59.1464 6.14232 59.0241 5.95545 58.9456C5.7616 58.8641 5.43665 58.8603 5.23025 58.9371Z" fill="#D2491D"/>
<path d="M10.2885 57.0671L9.89848 57.2105C9.89337 57.2124 9.88779 57.2146 9.88314 57.2168C9.77064 57.2646 9.77762 57.3394 9.89848 57.3839C10.0193 57.4282 10.2085 57.4257 10.321 57.3777L10.6836 57.2234C10.7817 57.1813 10.7836 57.1156 10.6836 57.073C10.5786 57.0281 10.4019 57.0255 10.2885 57.0671Z" fill="#D2491D"/>
<path d="M14.9937 55.3559C14.9895 55.3577 14.99 55.3607 14.9947 55.3625C14.9993 55.3642 15.0068 55.3642 15.0115 55.3623L15.1918 55.2844L14.9947 55.3557C14.9942 55.3555 14.9942 55.3557 14.9937 55.3559Z" fill="#D2491D"/>
<path d="M1 69.3355V69.5465L27.4916 58.9615L1 69.3355Z" fill="#D2491D"/>
<path d="M48.6183 58.4053L1 77.241V78.7265L50.4959 59.1482L48.6183 58.4053Z" fill="#D2491D"/>
<path d="M13.5506 82.2656C17.3787 80.71 21.2427 79.1682 25.0364 77.5988C32.6602 74.4743 40.217 71.3236 47.5874 68.0989C39.4351 71.0143 31.4697 74.0034 23.5712 77.0192C19.6031 78.5197 15.7061 80.0481 11.7729 81.5623L1.00018 85.7879V87.2657L1.95874 86.89L13.5506 82.2656Z" fill="#D2491D"/>
<path d="M51.6896 74.277L12.6481 90H15.0091L53.5672 75.0199L51.6896 74.277Z" fill="#D2491D"/>
<path d="M68.6223 76.4193L34.2889 90H36.5425L69.7491 76.865L68.6223 76.4193Z" fill="#D2491D"/>
<path d="M58.9931 88.4744L58.6273 88.6191C58.1322 88.8149 58.1508 89.14 58.6696 89.345C59.1884 89.5502 60.0098 89.5576 60.5053 89.3618L60.8712 89.217C61.3662 89.0214 61.3472 88.6963 60.8289 88.4913C60.3101 88.2859 59.4882 88.2785 58.9931 88.4744Z" fill="#D2491D"/>
<path d="M79.8832 81.6965C80.3787 81.5007 80.3596 81.1756 79.8413 80.9706C79.3225 80.7656 78.5011 80.758 78.0056 80.9539L77.6397 81.0984C77.1446 81.2942 77.1632 81.6193 77.682 81.8245C78.2004 82.0295 79.0222 82.0369 79.5173 81.8413L79.8832 81.6965Z" fill="#D2491D"/>
<path d="M63.7464 86.5941L63.3805 86.7389C62.8854 86.9347 62.904 87.2598 63.4228 87.4648C63.9416 87.67 64.763 87.6774 65.2586 87.4816L65.6239 87.3368C66.119 87.1412 66.1004 86.8161 65.5816 86.6111C65.0633 86.4059 64.2414 86.3985 63.7464 86.5941Z" fill="#D2491D"/>
<path d="M73.2523 82.8341L72.8869 82.9786C72.3918 83.1745 72.4104 83.4995 72.9292 83.7046C73.448 83.9096 74.2694 83.9171 74.765 83.7215L75.1304 83.577C75.6254 83.3811 75.6068 83.056 75.0881 82.851C74.5688 82.6458 73.7474 82.6383 73.2523 82.8341Z" fill="#D2491D"/>
<path d="M68.4991 84.7142L68.1333 84.8589C67.6382 85.0548 67.6572 85.3799 68.1756 85.5849C68.6944 85.7901 69.5158 85.7976 70.0109 85.6016L70.3767 85.4571C70.8718 85.2613 70.8532 84.9362 70.3344 84.7311C69.8161 84.5257 68.9947 84.5184 68.4991 84.7142Z" fill="#D2491D"/>
<path d="M82.7584 79.0739L82.3925 79.2184C81.8975 79.4142 81.916 79.7393 82.4348 79.9445C82.9532 80.1496 83.775 80.1569 84.2701 79.9613L84.636 79.8166C85.1311 79.6209 85.1124 79.2956 84.5941 79.0906C84.0753 78.8852 83.2535 78.8779 82.7584 79.0739Z" fill="#D2491D"/>
<path d="M87.3252 77.2675L87.1458 77.3384C86.6507 77.5343 86.6693 77.8592 87.1881 78.0644C87.7064 78.2694 88.5283 78.277 89.0234 78.0811L89.2028 78.01C89.6979 77.8143 89.6793 77.4892 89.1605 77.2842C88.6422 77.079 87.8207 77.0716 87.3252 77.2675Z" fill="#D2491D"/>
<path d="M79.5173 89.6418L78.5927 90H78.6313L79.5173 89.6418Z" fill="#D2491D"/>
<path d="M25.118 51.3512L24.9377 51.4292L25.1344 51.3579C25.1344 51.3577 25.1348 51.3577 25.1348 51.3575C25.1395 51.3557 25.139 51.3527 25.1344 51.351C25.1297 51.3494 25.1227 51.3492 25.118 51.3512Z" fill="#D2491D"/>
<path d="M29.8383 49.6455L30.2284 49.5021C30.2335 49.5002 30.239 49.498 30.2437 49.496C30.3553 49.4486 30.3488 49.3741 30.2284 49.33C30.1084 49.2858 29.9201 49.2884 29.8086 49.336L29.446 49.4903C29.3484 49.5322 29.3465 49.5975 29.446 49.6398C29.5506 49.6843 29.7258 49.6867 29.8383 49.6455Z" fill="#D2491D"/>
<path d="M34.8959 47.7751L35.2836 47.6308C35.291 47.628 35.2989 47.6249 35.3059 47.622C35.5053 47.5383 35.4951 47.4065 35.2836 47.3276C35.0721 47.2487 34.7387 47.2526 34.5393 47.3364L34.1739 47.4898C33.9908 47.567 33.988 47.6885 34.1739 47.7667C34.3673 47.8478 34.6909 47.8516 34.8959 47.7751Z" fill="#D2491D"/>
<path d="M39.9278 45.8946L40.3131 45.7492C40.3206 45.7462 40.3299 45.7427 40.3368 45.7396C40.6111 45.6258 40.6004 45.4458 40.3131 45.3373C40.0254 45.2288 39.5703 45.233 39.296 45.3468L38.9283 45.4993C38.6703 45.6067 38.667 45.7769 38.9283 45.8852C39.1979 45.997 39.6456 46.0011 39.9278 45.8946Z" fill="#D2491D"/>
<path d="M44.9366 44.0047L45.3219 43.8593C45.3312 43.8558 45.3424 43.8513 45.3512 43.8477C45.6878 43.7081 45.6748 43.4871 45.3219 43.354C44.9691 43.2208 44.4103 43.226 44.0738 43.3655L43.7061 43.518C43.3886 43.6502 43.3844 43.8598 43.7061 43.9931C44.038 44.1308 44.5888 44.136 44.9366 44.0047Z" fill="#D2491D"/>
<path d="M49.92 42.1052L50.3026 41.9588C50.31 41.9561 50.3198 41.952 50.3267 41.9493C50.7135 41.7911 50.7028 41.5389 50.3026 41.3859C49.9028 41.2329 49.265 41.2373 48.8782 41.3954L48.5082 41.5468C48.1368 41.6992 48.1335 41.9423 48.5082 42.0957C48.8912 42.2525 49.5234 42.2567 49.92 42.1052Z" fill="#D2491D"/>
<path d="M54.8962 40.2027L55.2778 40.0557C55.2839 40.0533 55.2937 40.0497 55.2992 40.0473C55.732 39.8715 55.7223 39.5902 55.2778 39.419C54.833 39.2478 54.1222 39.2516 53.6894 39.4274L53.318 39.5782C52.8991 39.749 52.8959 40.0223 53.318 40.194C53.748 40.3689 54.4546 40.3727 54.8962 40.2027Z" fill="#D2491D"/>
<path d="M59.8406 38.2875L60.2208 38.1402C60.225 38.1386 60.2338 38.1351 60.238 38.1332C60.6996 37.9468 60.6922 37.6478 60.2208 37.4652C59.7494 37.2826 58.9936 37.2857 58.532 37.472L58.1596 37.6224C57.7087 37.8047 57.7059 38.0974 58.1596 38.2805C58.6189 38.4662 59.3715 38.4692 59.8406 38.2875Z" fill="#D2491D"/>
<path d="M64.7839 36.3719L65.1642 36.2246C65.1688 36.2228 65.1781 36.2191 65.1828 36.2172C65.6718 36.0199 65.6635 35.7029 65.1642 35.5095C64.6649 35.3161 63.864 35.3192 63.3749 35.5167L63.0026 35.6671C62.5247 35.8603 62.5219 36.1705 63.0026 36.3645C63.4893 36.5613 64.287 36.5646 64.7839 36.3719Z" fill="#D2491D"/>
<path d="M69.6989 34.4452L70.0769 34.2968L70.0829 34.2942C70.5859 34.094 70.5831 33.7702 70.0769 33.5712C69.5702 33.3723 68.752 33.3734 68.249 33.5738L67.8739 33.7231C67.3746 33.9221 67.3737 34.2435 67.8739 34.4428C68.3764 34.6427 69.1932 34.6438 69.6989 34.4452Z" fill="#D2491D"/>
<path d="M74.6088 32.5163L74.9868 32.3679L74.9933 32.3653C75.5056 32.1614 75.5028 31.8317 74.9868 31.6293C74.4712 31.4266 73.6377 31.4277 73.1255 31.6318L72.7503 31.7812C72.2422 31.9838 72.2413 32.3111 72.7503 32.5139C73.2617 32.7175 74.0938 32.7186 74.6088 32.5163Z" fill="#D2491D"/>
<path d="M79.5038 30.5817L79.879 30.4324C80.3875 30.2296 80.3889 29.9019 79.879 29.6989C79.3667 29.495 78.5336 29.4939 78.0181 29.6963L77.6402 29.8447L77.6337 29.8473C77.1205 30.0514 77.1237 30.3815 77.6402 30.5843C78.1571 30.7871 78.9911 30.786 79.5038 30.5817Z" fill="#D2491D"/>
<path d="M84.3802 28.6396L84.7553 28.4901C85.2551 28.2909 85.256 27.9691 84.7553 27.7698C84.2524 27.5696 83.4347 27.5685 82.928 27.7672L82.5505 27.9156L82.544 27.918C82.0405 28.1186 82.0429 28.4426 82.55 28.6418C83.0577 28.8413 83.8767 28.8402 84.3802 28.6396Z" fill="#D2491D"/>
<path d="M89.2557 26.6971L89.628 26.5466C90.1073 26.3528 90.1096 26.0417 89.628 25.8472C89.1399 25.65 88.3399 25.6467 87.8411 25.8398L87.4609 25.9873C87.4562 25.9891 87.4469 25.9926 87.4423 25.9946C86.9518 26.1927 86.9602 26.5106 87.4609 26.7044C87.9615 26.8986 88.7653 26.8953 89.2557 26.6971Z" fill="#D2491D"/>
<path d="M94.0983 24.7417L94.4707 24.5913C94.923 24.4085 94.9253 24.115 94.4707 23.9315C94.01 23.7456 93.2555 23.7425 92.7855 23.9246L92.4053 24.072C92.4011 24.0737 92.3923 24.0772 92.3881 24.079C91.9251 24.2658 91.933 24.5657 92.4057 24.7489C92.8776 24.9317 93.6353 24.9285 94.0983 24.7417Z" fill="#D2491D"/>
<path d="M98.9406 22.7863L99.3135 22.6359C99.7383 22.4642 99.7407 22.1882 99.3135 22.0157C98.8802 21.8408 98.1708 21.8379 97.7292 22.0093L97.349 22.1566C97.3448 22.1582 97.3369 22.1613 97.3327 22.163C96.8976 22.3388 96.905 22.6207 97.349 22.7928C97.7929 22.9649 98.5055 22.962 98.9406 22.7863Z" fill="#D2491D"/>
<path d="M103.752 20.8187L104.122 20.6672C104.495 20.5142 104.499 20.2703 104.122 20.1163C103.738 19.9589 103.104 19.9546 102.706 20.1067L102.323 20.2531C102.316 20.2558 102.305 20.2599 102.298 20.2628C101.91 20.4217 101.921 20.6749 102.323 20.8284C102.724 20.982 103.364 20.9775 103.752 20.8187Z" fill="#D2491D"/>
<path d="M108.558 18.8486L108.925 18.696C109.245 18.5632 109.248 18.3527 108.925 18.2186C108.592 18.0804 108.038 18.0752 107.689 18.2071L107.303 18.3525C107.294 18.3562 107.282 18.3606 107.273 18.3643C106.936 18.5046 106.949 18.7267 107.303 18.8604C107.658 18.9941 108.219 18.9887 108.558 18.8486Z" fill="#D2491D"/>
<path d="M113.334 16.8671L113.701 16.7147C113.961 16.6069 113.964 16.4359 113.701 16.3271C113.431 16.2149 112.981 16.2107 112.697 16.3177L112.312 16.463C112.305 16.4659 112.295 16.4696 112.288 16.4725C112.012 16.5869 112.023 16.7676 112.312 16.8767C112.602 16.9857 113.059 16.9813 113.334 16.8671Z" fill="#D2491D"/>
<path d="M118.091 14.8775L118.456 14.7241C118.64 14.6465 118.643 14.5244 118.456 14.4459C118.261 14.3643 117.936 14.3604 117.73 14.4373L117.342 14.5816C117.335 14.5844 117.327 14.5877 117.32 14.5906C117.119 14.6749 117.129 14.8074 117.342 14.8865C117.555 14.9658 117.89 14.9617 118.091 14.8775Z" fill="#D2491D"/>
<path d="M122.821 12.8777L123.183 12.7234C123.281 12.6813 123.284 12.6156 123.183 12.573C123.078 12.5283 122.902 12.5257 122.789 12.5673L122.399 12.7107C122.394 12.7125 122.388 12.7148 122.383 12.717C122.271 12.7648 122.277 12.8396 122.399 12.8839C122.52 12.9282 122.708 12.9253 122.821 12.8777Z" fill="#D2491D"/>
<path d="M127.511 10.8623L127.691 10.7844L127.494 10.8557C127.494 10.8559 127.494 10.8559 127.494 10.8561C127.489 10.8579 127.489 10.8609 127.494 10.8627C127.499 10.8644 127.507 10.8642 127.511 10.8623Z" fill="#D2491D"/>
<path d="M27.6623 58.4484L28.7891 58.8941L139.992 14.4618L27.6623 58.4484Z" fill="#D2491D"/>
<path d="M87.6402 44.4568L162.998 14.6486L161.121 13.9058L85.7623 43.714L87.6402 44.4568Z" fill="#D2491D"/>
<path d="M75.7625 47.6671L67.6047 50.8939L69.4823 51.6366L77.6401 48.4097L75.7625 47.6671Z" fill="#D2491D"/>
<path d="M62.8652 54.257L65.559 53.1915L63.6811 52.4487L60.9873 53.5142L62.8652 54.257Z" fill="#D2491D"/>
<path d="M90.9663 51.5178C94.9335 50.0169 98.8332 48.4895 102.765 46.9747L114.458 42.39L126.051 37.7656C129.879 36.21 133.743 34.6684 137.536 33.0988C145.16 29.9745 152.717 26.8237 160.087 23.5989C151.935 26.5143 143.97 29.5036 136.071 32.5192C132.103 34.0197 128.206 35.5481 124.273 37.0623L112.582 41.6479L100.992 46.2734C97.1625 47.8286 93.3013 49.3712 89.5067 50.9402C81.8838 54.0649 74.3256 57.2153 66.9529 60.439C75.1024 57.5229 83.0669 54.5332 90.9663 51.5178Z" fill="#D2491D"/>
<path d="M164.189 29.777L60.6229 71.4859L166.067 30.5199L164.189 29.777Z" fill="#D2491D"/>
<path d="M94.5213 67.0675L182.252 32.3653L181.125 31.9197L93.3949 66.6219L94.5213 67.0675Z" fill="#D2491D"/>
<path d="M100.196 72.1762L100.017 72.2474C99.5218 72.443 99.5409 72.7681 100.059 72.9731C100.578 73.1784 101.399 73.1857 101.895 72.9899L102.074 72.9189C102.569 72.7233 102.551 72.3982 102.032 72.193C101.513 71.9877 100.691 71.9804 100.196 72.1762Z" fill="#D2491D"/>
<path d="M177.758 42.9818L178.124 42.8371C178.619 42.6412 178.6 42.3161 178.082 42.1111C177.563 41.9059 176.742 41.8985 176.247 42.0944L175.881 42.2389C175.386 42.4347 175.405 42.7598 175.923 42.965C176.441 43.1702 177.263 43.1776 177.758 42.9818Z" fill="#D2491D"/>
<path d="M173.005 44.862L173.371 44.7172C173.866 44.5214 173.847 44.1963 173.329 43.9913C172.81 43.7861 171.988 43.7787 171.493 43.9746L171.127 44.1193C170.632 44.3151 170.651 44.6402 171.17 44.8454C171.688 45.0502 172.51 45.0578 173.005 44.862Z" fill="#D2491D"/>
<path d="M168.252 46.7421L168.617 46.5975C169.112 46.4015 169.094 46.0766 168.575 45.8714C168.057 45.6664 167.235 45.6588 166.74 45.8548L166.374 45.9996C165.879 46.1954 165.898 46.5205 166.416 46.7255C166.935 46.9305 167.757 46.9379 168.252 46.7421Z" fill="#D2491D"/>
<path d="M180.999 40.2144L180.633 40.3591C180.138 40.5549 180.157 40.88 180.676 41.085C181.195 41.2903 182.016 41.2976 182.511 41.1018L182.877 40.9571C183.372 40.7612 183.353 40.4361 182.835 40.2311C182.316 40.0259 181.494 40.0184 180.999 40.2144Z" fill="#D2491D"/>
<path d="M192.018 37.3414L192.383 37.1967C192.878 37.0009 192.859 36.6758 192.341 36.4708C191.823 36.2656 191.001 36.2582 190.505 36.454L190.14 36.5988C189.645 36.7946 189.664 37.1197 190.182 37.3249C190.701 37.5299 191.522 37.5373 192.018 37.3414Z" fill="#D2491D"/>
<path d="M196.77 35.4613L197.136 35.3166C197.631 35.1208 197.612 34.7957 197.094 34.5907C196.576 34.3854 195.754 34.3781 195.258 34.5739L194.893 34.7186C194.398 34.9145 194.417 35.2396 194.935 35.4446C195.453 35.6498 196.275 35.6572 196.77 35.4613Z" fill="#D2491D"/>
<path d="M187.265 39.2215L187.63 39.0769C188.125 38.8811 188.106 38.556 187.588 38.351C187.069 38.1458 186.247 38.1384 185.752 38.3342L185.387 38.4788C184.892 38.6748 184.911 38.9997 185.429 39.2049C185.947 39.4101 186.769 39.4175 187.265 39.2215Z" fill="#D2491D"/>
<path d="M139.733 58.0225L140.099 57.878C140.594 57.6822 140.575 57.3571 140.057 57.1519C139.539 56.9468 138.717 56.9393 138.222 57.1351L137.856 57.2798C137.361 57.4757 137.379 57.8008 137.898 58.006C138.417 58.2112 139.238 58.2185 139.733 58.0225Z" fill="#D2491D"/>
<path d="M144.487 56.1425L144.852 55.998C145.348 55.8022 145.329 55.4771 144.81 55.2719C144.292 55.0668 143.47 55.0593 142.975 55.2551L142.609 55.3998C142.114 55.5957 142.133 55.9208 142.651 56.1258C143.17 56.331 143.991 56.3384 144.487 56.1425Z" fill="#D2491D"/>
<path d="M149.239 54.2626L149.605 54.1178C150.1 53.922 150.082 53.5969 149.563 53.3917C149.044 53.1867 148.223 53.1791 147.727 53.3752L147.361 53.5197C146.866 53.7157 146.885 54.0406 147.404 54.2458C147.923 54.451 148.744 54.4584 149.239 54.2626Z" fill="#D2491D"/>
<path d="M134.981 59.9027L135.346 59.7581C135.841 59.5623 135.822 59.2372 135.304 59.032C134.785 58.827 133.964 58.8194 133.469 59.0153L133.103 59.1598C132.608 59.3556 132.627 59.6807 133.145 59.8859C133.664 60.0911 134.485 60.0985 134.981 59.9027Z" fill="#D2491D"/>
<path d="M111.215 69.3033L111.58 69.1588C112.075 68.963 112.057 68.6379 111.538 68.4327C111.02 68.2276 110.198 68.2201 109.702 68.4161L109.336 68.5606C108.841 68.7565 108.86 69.0816 109.379 69.2866C109.898 69.4916 110.719 69.4992 111.215 69.3033Z" fill="#D2491D"/>
<path d="M115.968 67.423L116.333 67.2786C116.828 67.0828 116.81 66.7577 116.291 66.5525C115.773 66.3475 114.951 66.3399 114.455 66.5359L114.09 66.6803C113.595 66.8763 113.614 67.2012 114.132 67.4064C114.651 67.6116 115.473 67.6192 115.968 67.423Z" fill="#D2491D"/>
<path d="M130.227 61.783L130.593 61.6385C131.088 61.4425 131.069 61.1174 130.551 60.9124C130.032 60.7073 129.21 60.6998 128.715 60.8956L128.349 61.0404C127.854 61.2362 127.873 61.5613 128.391 61.7663C128.91 61.9713 129.732 61.9789 130.227 61.783Z" fill="#D2491D"/>
<path d="M153.993 52.3824L154.358 52.2377C154.854 52.0417 154.835 51.7168 154.316 51.5115C153.797 51.3065 152.976 51.299 152.481 51.4948L152.115 51.6395C151.62 51.8354 151.639 52.1605 152.157 52.3655C152.676 52.5707 153.497 52.5782 153.993 52.3824Z" fill="#D2491D"/>
<path d="M120.721 65.543L121.087 65.3985C121.582 65.2026 121.563 64.8775 121.045 64.6725C120.526 64.4675 119.704 64.4599 119.209 64.6558L118.843 64.8003C118.348 64.9963 118.367 65.3212 118.886 65.5264C119.404 65.7315 120.226 65.739 120.721 65.543Z" fill="#D2491D"/>
<path d="M163.499 48.6221L163.864 48.4773C164.36 48.2815 164.341 47.9564 163.823 47.7514C163.304 47.5464 162.482 47.5388 161.987 47.7348L161.621 47.8796C161.126 48.0754 161.145 48.4005 161.663 48.6055C162.182 48.8105 163.004 48.8181 163.499 48.6221Z" fill="#D2491D"/>
<path d="M158.746 50.5022L159.111 50.3575C159.606 50.1617 159.588 49.8366 159.069 49.6315C158.551 49.4265 157.729 49.419 157.234 49.6148L156.868 49.7595C156.373 49.9554 156.392 50.2805 156.91 50.4857C157.429 50.6905 158.25 50.698 158.746 50.5022Z" fill="#D2491D"/>
<path d="M106.462 71.1835L106.828 71.039C107.323 70.8429 107.304 70.518 106.785 70.3128C106.267 70.1078 105.445 70.1003 104.95 70.2961L104.584 70.4408C104.089 70.6366 104.108 70.9617 104.626 71.1667C105.145 71.3718 105.966 71.3793 106.462 71.1835Z" fill="#D2491D"/>
<path d="M125.474 63.6628L125.84 63.5183C126.335 63.3224 126.316 62.9973 125.798 62.7923C125.279 62.5873 124.458 62.5797 123.962 62.7756L123.597 62.9201C123.102 63.1161 123.12 63.4412 123.639 63.6463C124.157 63.8515 124.979 63.859 125.474 63.6628Z" fill="#D2491D"/>
<path d="M201.524 33.5813L201.703 33.5103C202.198 33.3145 202.179 32.9894 201.661 32.7844C201.142 32.5792 200.32 32.5718 199.825 32.7676L199.646 32.8386C199.151 33.0345 199.17 33.3596 199.688 33.5646C200.207 33.7696 201.028 33.7771 201.524 33.5813Z" fill="#D2491D"/>
<path d="M103.348 79.4733L105.225 80.2158L192.018 45.142L103.348 79.4733Z" fill="#D2491D"/>
<path d="M137.636 6.85749C137.64 6.85564 137.639 6.85268 137.635 6.85102C137.63 6.84935 137.622 6.84936 137.618 6.8512L137.438 6.92918L137.635 6.85767C137.635 6.85767 137.635 6.85749 137.636 6.85749Z" fill="#D2491D"/>
<path d="M142.339 5.14557L142.729 5.00215C142.734 5.00031 142.739 4.99828 142.744 4.99608C142.856 4.94863 142.849 4.87417 142.729 4.83004C142.608 4.7859 142.42 4.78848 142.309 4.8361L141.946 4.99037C141.849 5.0323 141.847 5.09758 141.946 5.14006C142.05 5.18437 142.226 5.18695 142.339 5.14557Z" fill="#D2491D"/>
<path d="M147.396 3.27532L147.783 3.13097C147.79 3.12821 147.799 3.12491 147.806 3.12215C148.005 3.0383 147.995 2.90664 147.783 2.82757C147.571 2.74869 147.238 2.75274 147.039 2.8364L146.674 2.98976C146.491 3.06699 146.488 3.18853 146.674 3.26668C146.868 3.34795 147.191 3.35181 147.396 3.27532Z" fill="#D2491D"/>
<path d="M151.428 1.38541C151.698 1.49721 152.145 1.50125 152.428 1.39479L152.813 1.24934C152.821 1.24639 152.83 1.24272 152.837 1.23977C152.997 1.17339 153.057 1.0844 153.025 1.00018H151.427C151.17 1.10757 151.168 1.27729 151.428 1.38541Z" fill="#D2491D"/>
<path d="M141.289 14.3941L174.811 1.00018H173.229L140.162 13.9486L141.289 14.3941Z" fill="#D2491D"/>
<path d="M190.16 3.90656L188.283 3.16388L180.125 6.39062L182.003 7.1333L190.16 3.90656Z" fill="#D2491D"/>
<path d="M178.055 8.69007L176.177 7.94739L173.484 9.01293L175.361 9.75561L178.055 8.69007Z" fill="#D2491D"/>
<path d="M202.006 6.44043C194.383 9.56508 186.825 12.7155 179.453 15.9391C187.603 13.0227 195.567 10.0332 203.466 7.0178C207.433 5.51698 211.334 3.98969 215.265 2.47471L219.027 1H215.43L213.492 1.77339C209.662 3.32883 205.801 4.87139 202.006 6.44043Z" fill="#D2491D"/>
<path d="M226 6.4428V5.6911L173.123 26.9861L226 6.4428Z" fill="#D2491D"/>
<path d="M207.018 22.5677L226 15.0592V14.1677L205.891 22.122L207.018 22.5677Z" fill="#D2491D"/>
<path d="M214.395 28.4901L214.574 28.4191C215.069 28.2233 215.05 27.8982 214.532 27.693C214.013 27.4877 213.192 27.4804 212.696 27.6762L212.517 27.7472C212.021 27.943 212.041 28.2681 212.559 28.4733C213.077 28.6784 213.899 28.6859 214.395 28.4901Z" fill="#D2491D"/>
<path d="M223.715 24.8035L224.08 24.6588C224.575 24.4629 224.556 24.1378 224.038 23.9328C223.52 23.7276 222.698 23.7203 222.203 23.9161L221.837 24.0608C221.342 24.2566 221.361 24.5817 221.879 24.7867C222.397 24.992 223.219 24.9993 223.715 24.8035Z" fill="#D2491D"/>
<path d="M218.962 26.6835L219.327 26.5388C219.822 26.3429 219.803 26.0178 219.285 25.8128C218.767 25.6076 217.945 25.6003 217.45 25.7961L217.084 25.9408C216.589 26.1366 216.608 26.4617 217.126 26.6668C217.645 26.872 218.466 26.8795 218.962 26.6835Z" fill="#D2491D"/>
<path d="M217.725 35.7158L226 32.3719V31.0423L215.847 34.9731L217.725 35.7158Z" fill="#D2491D"/>
<path d="M12.6481 1.00098L1 5.69191V6.44361L15.0091 1.00098H12.6481Z" fill="#D2491D"/>
<path d="M34.2889 1.00098L1 14.1685V15.06L36.5425 1.00098H34.2889Z" fill="#D2491D"/>
<path d="M1.95567 22.0359L1.59029 22.1804C1.09521 22.3763 1.1138 22.7014 1.63259 22.9064C2.15091 23.1116 2.97279 23.119 3.46787 22.9231L3.83326 22.7786C4.32834 22.5828 4.30928 22.2577 3.79096 22.0525C3.27263 21.8474 2.45075 21.8401 1.95567 22.0359Z" fill="#D2491D"/>
<path d="M6.70899 20.1558L6.34315 20.3005C5.84807 20.4963 5.86666 20.8214 6.38499 21.0264C6.90377 21.2316 7.72518 21.239 8.22073 21.0432L8.58658 20.8985C9.08166 20.7026 9.06259 20.3775 8.54427 20.1725C8.02595 19.9673 7.20407 19.9599 6.70899 20.1558Z" fill="#D2491D"/>
<path d="M16.2149 16.3956L15.8491 16.5404C15.354 16.7362 15.3726 17.0613 15.8914 17.2663C16.4102 17.4715 17.2316 17.4789 17.7267 17.283L18.0925 17.1385C18.5876 16.9427 18.5685 16.6176 18.0502 16.4124C17.5319 16.2072 16.71 16.1998 16.2149 16.3956Z" fill="#D2491D"/>
<path d="M30.4743 10.7553L30.1085 10.9C29.6134 11.0959 29.6325 11.421 30.1508 11.6262C30.6696 11.8312 31.491 11.8387 31.9865 11.6429L32.3524 11.4982C32.8475 11.3024 32.8284 10.9773 32.3101 10.7721C31.7913 10.5669 30.9699 10.5593 30.4743 10.7553Z" fill="#D2491D"/>
<path d="M35.2274 8.87519L34.8616 9.0199C34.3665 9.21573 34.3851 9.54083 34.9039 9.74604C35.4227 9.95107 36.2441 9.95861 36.7396 9.76277L37.105 9.61806C37.6001 9.42223 37.5815 9.09713 37.0627 8.89192C36.5444 8.68672 35.7225 8.67936 35.2274 8.87519Z" fill="#D2491D"/>
<path d="M25.7214 12.6353L25.3556 12.78C24.8605 12.9758 24.8791 13.3009 25.3974 13.5062C25.9162 13.7112 26.7376 13.7187 27.2332 13.5229L27.599 13.3782C28.0941 13.1823 28.075 12.8572 27.5567 12.6522C27.0384 12.4468 26.2165 12.4395 25.7214 12.6353Z" fill="#D2491D"/>
<path d="M20.9683 14.5155L20.6029 14.66C20.1078 14.8558 20.1264 15.1809 20.6452 15.3859C21.1635 15.5912 21.9854 15.5985 22.4805 15.4027L22.8459 15.2582C23.341 15.0623 23.3219 14.7372 22.8036 14.532C22.2853 14.3272 21.4634 14.3196 20.9683 14.5155Z" fill="#D2491D"/>
<path d="M11.4618 18.2758L11.096 18.4205C10.6009 18.6163 10.62 18.9414 11.1383 19.1464C11.6571 19.3517 12.4785 19.359 12.974 19.1632L13.3399 19.0186C13.835 18.8226 13.8159 18.4977 13.2976 18.2925C12.7788 18.0873 11.9574 18.0798 11.4618 18.2758Z" fill="#D2491D"/>
<path d="M44.7339 5.11482L44.368 5.25953C43.8729 5.45536 43.892 5.78046 44.4103 5.98567C44.9286 6.1907 45.7505 6.19823 46.2461 6.00222L46.6119 5.8575C47.107 5.66167 47.0879 5.33657 46.5696 5.13155C46.0508 4.92634 45.2289 4.91898 44.7339 5.11482Z" fill="#D2491D"/>
<path d="M56.0752 1.37142C55.5568 1.16621 54.735 1.15885 54.2399 1.35468L53.874 1.49921C53.379 1.69523 53.3976 2.02014 53.9163 2.22535C54.4347 2.43056 55.2565 2.43792 55.7516 2.24209L56.1175 2.09737C56.6125 1.90154 56.5939 1.57663 56.0752 1.37142Z" fill="#D2491D"/>
<path d="M39.9806 6.995L39.6148 7.13972C39.1197 7.33555 39.1388 7.66065 39.6571 7.86567C40.1759 8.07088 40.9973 8.07823 41.4928 7.8824L41.8587 7.73769C42.3538 7.54186 42.3347 7.21676 41.8164 7.01174C41.2976 6.80653 40.4762 6.79917 39.9806 6.995Z" fill="#D2491D"/>
<path d="M49.4866 3.23487L49.1208 3.37959C48.6257 3.57542 48.6447 3.90052 49.1631 4.10573C49.6814 4.31075 50.5033 4.31829 50.9983 4.12245L51.3642 3.97774C51.8593 3.78191 51.8407 3.45681 51.3223 3.2516C50.8036 3.0464 49.9822 3.03904 49.4866 3.23487Z" fill="#D2491D"/>
<path d="M78.5927 1.00098L1 31.0431V32.3727L78.6313 1.00098H78.5927Z" fill="#D2491D"/>
<g clip-path="url(#clip0_56_39)">
<path d="M122.866 52.746C122.688 52.2525 122.144 51.9967 121.65 52.1745C121.157 52.3524 120.901 52.8965 121.079 53.3898C121.083 53.4019 121.088 53.4139 121.093 53.4259C121.959 55.686 122.022 57.4144 121.264 58.1741C120.344 59.0914 118.055 58.8046 115.138 57.4087C111.232 55.3807 107.682 52.7315 104.626 49.5647C97.1877 42.1253 94.1185 34.8255 96.0168 32.9272C96.6226 32.4488 97.41 32.2651 98.1649 32.4258C98.6879 32.4643 99.1431 32.0713 99.1816 31.5483C99.2188 31.0428 98.8523 30.5972 98.3491 30.536C97.0288 30.3024 95.6742 30.6874 94.6741 31.5806C91.1946 35.0591 96.5135 44.1328 103.283 50.9037C106.491 54.2229 110.218 56.9971 114.318 59.117C115.061 59.4726 115.826 59.7787 116.609 60.0334L109.862 62.5917C100.852 59.1664 94.366 51.1791 92.8631 41.6581C92.7818 41.14 92.2958 40.7857 91.7777 40.8671C91.2596 40.9484 90.9053 41.4343 90.9867 41.9525C91.1358 42.9021 91.3352 43.8517 91.5792 44.7805C93.766 53.0659 99.5256 59.9489 107.296 63.5623L96.1906 67.7644C96.1397 67.6794 96.0756 67.6032 96.0007 67.5384C93.1784 65.2724 91.4076 61.9493 91.1006 58.3431L90.66 53.0071C90.6253 52.4902 90.178 52.0992 89.661 52.1338C89.6511 52.1345 89.6413 52.1352 89.6315 52.1363C89.1088 52.1779 88.7186 52.6355 88.7601 53.1582C88.7603 53.1604 88.7605 53.1626 88.7607 53.1648L89.209 58.4988C89.5427 62.3535 91.3409 65.9336 94.2334 68.5032L86.3116 71.5021L87.7361 65.6562C87.8604 65.1464 87.5479 64.6324 87.0381 64.5081C86.5283 64.3838 86.0143 64.6962 85.89 65.2061L84.0373 72.8031C83.9124 73.3125 84.2241 73.8267 84.7336 73.9515C84.9204 73.9973 85.1166 73.9852 85.2965 73.917L120.433 60.6222C120.489 60.5949 120.542 60.5618 120.59 60.5234C121.351 60.4066 122.056 60.055 122.606 59.5178C123.547 58.5767 124.357 56.6366 122.866 52.746Z" fill="white"/>
<path d="M131.827 50.2969C126.694 48.3751 121.145 47.8363 115.738 48.7347L112.345 49.3045C111.83 49.4035 111.492 49.9012 111.591 50.4163C111.687 50.9139 112.157 51.2488 112.658 51.1772L116.05 50.6121C121.129 49.7678 126.34 50.2742 131.161 52.0803C131.268 52.1181 131.38 52.1371 131.494 52.1363C132.018 52.1371 132.444 51.7128 132.445 51.1882C132.446 50.7912 132.199 50.4356 131.827 50.2969Z" fill="white"/>
<path d="M135.203 35.5843C134.978 35.1106 134.411 34.9095 133.937 35.1351L113.995 44.6314C113.522 44.8568 113.32 45.4234 113.546 45.897C113.546 45.8971 113.546 45.8972 113.546 45.8972C113.771 46.3708 114.338 46.572 114.812 46.3465C114.812 46.3465 114.812 46.3464 114.812 46.3464L134.754 36.8501C135.228 36.6246 135.429 36.0579 135.203 35.5843Z" fill="white"/>
<path d="M107.073 23.4451C106.969 22.9312 106.468 22.5991 105.954 22.7036C105.44 22.8081 105.108 23.3093 105.212 23.8233C105.214 23.8347 105.217 23.846 105.22 23.8573C106.422 29.2273 105.926 34.8382 103.802 39.9146L102.421 43.2278C102.222 43.7106 102.449 44.2639 102.931 44.4661C103.046 44.5147 103.17 44.5395 103.296 44.5393C103.679 44.5393 104.025 44.309 104.172 43.9552L105.554 40.6458C107.83 35.2081 108.361 29.1976 107.073 23.4451Z" fill="white"/>
<path d="M136.242 51.1867C134.669 51.1867 133.393 52.4621 133.393 54.0356C133.393 55.609 134.669 56.8845 136.242 56.8845C137.816 56.8845 139.091 55.609 139.091 54.0356C139.091 52.4621 137.816 51.1867 136.242 51.1867ZM136.242 54.9852C135.718 54.9852 135.292 54.56 135.292 54.0356C135.292 53.5111 135.718 53.0859 136.242 53.0859C136.767 53.0859 137.192 53.5111 137.192 54.0356C137.192 54.56 136.767 54.9852 136.242 54.9852Z" fill="white"/>
<path d="M113.451 24.597C111.878 24.597 110.602 25.8725 110.602 27.4459C110.602 29.0193 111.878 30.2948 113.451 30.2948C115.024 30.2948 116.3 29.0193 116.3 27.4459C116.3 25.8725 115.024 24.597 113.451 24.597ZM113.451 28.3956C112.927 28.3956 112.501 27.9704 112.501 27.4459C112.501 26.9215 112.927 26.4963 113.451 26.4963C113.975 26.4963 114.401 26.9215 114.401 27.4459C114.401 27.9704 113.975 28.3956 113.451 28.3956Z" fill="white"/>
<path d="M104.904 20.7985C105.953 20.7985 106.804 19.9482 106.804 18.8993C106.804 17.8503 105.953 17 104.904 17C103.855 17 103.005 17.8503 103.005 18.8993C103.005 19.9482 103.855 20.7985 104.904 20.7985Z" fill="white"/>
<path d="M131.494 21.7481C130.97 21.7481 130.544 22.1733 130.544 22.6978V23.6474C130.544 24.1718 130.97 24.597 131.494 24.597C132.018 24.597 132.444 24.1718 132.444 23.6474V22.6978C132.444 22.1733 132.018 21.7481 131.494 21.7481Z" fill="white"/>
<path d="M131.494 17C130.97 17 130.544 17.4252 130.544 17.9496V18.8993C130.544 19.4237 130.97 19.8489 131.494 19.8489C132.018 19.8489 132.444 19.4237 132.444 18.8993V17.9496C132.444 17.4252 132.018 17 131.494 17Z" fill="white"/>
<path d="M134.343 19.8489H133.393C132.869 19.8489 132.444 20.2741 132.444 20.7985C132.444 21.323 132.869 21.7482 133.393 21.7482H134.343C134.867 21.7482 135.292 21.323 135.292 20.7985C135.292 20.2741 134.867 19.8489 134.343 19.8489Z" fill="white"/>
<path d="M129.595 19.8489H128.645C128.121 19.8489 127.695 20.2741 127.695 20.7985C127.695 21.323 128.121 21.7482 128.645 21.7482H129.595C130.119 21.7482 130.544 21.323 130.544 20.7985C130.544 20.2741 130.119 19.8489 129.595 19.8489Z" fill="white"/>
<path d="M124.847 27.426H120.078C119.554 27.426 119.129 27.8512 119.129 28.3756V33.1437C119.129 33.6681 119.554 34.0933 120.078 34.0933H124.847C125.371 34.0933 125.796 33.6681 125.796 33.1437V28.3756C125.796 27.8512 125.371 27.426 124.847 27.426ZM123.897 32.1941H121.028V29.3253H123.897V32.1941Z" fill="white"/>
<path d="M117.929 35.3559C117.58 34.9837 117 34.9534 116.614 35.287L107.118 43.8337C106.728 44.1846 106.697 44.7849 107.048 45.1746C107.399 45.5642 107.999 45.5956 108.389 45.2448L117.885 36.6982C118.268 36.3396 118.287 35.7387 117.929 35.3559Z" fill="white"/>
<path d="M135.292 38.8415C134.768 38.8415 134.343 39.2667 134.343 39.7911V40.7408C134.343 41.2652 134.768 41.6904 135.292 41.6904C135.817 41.6904 136.242 41.2652 136.242 40.7408V39.7911C136.242 39.2667 135.817 38.8415 135.292 38.8415Z" fill="white"/>
<path d="M139.322 38.6781L138.65 38.0068C138.273 37.6423 137.672 37.6528 137.308 38.03C136.952 38.398 136.952 38.9814 137.308 39.3495L137.979 40.0209C138.356 40.3853 138.957 40.3749 139.322 39.9977C139.677 39.6296 139.677 39.0461 139.322 38.6781Z" fill="white"/>
<path d="M140.041 35.043H139.091C138.567 35.043 138.141 35.4682 138.141 35.9926C138.141 36.517 138.567 36.9422 139.091 36.9422H140.041C140.565 36.9422 140.99 36.517 140.99 35.9926C140.99 35.4682 140.565 35.043 140.041 35.043Z" fill="white"/>
<path d="M139.298 31.9643C138.931 31.6089 138.347 31.6089 137.979 31.9643L137.308 32.6357C136.937 33.0066 136.937 33.6078 137.308 33.9787C137.486 34.1566 137.727 34.2567 137.979 34.2567C138.231 34.2567 138.472 34.1565 138.65 33.9784L139.322 33.307C139.686 32.9298 139.676 32.3286 139.298 31.9643Z" fill="white"/>
<path d="M135.292 30.2948C134.768 30.2948 134.343 30.72 134.343 31.2444V32.1941C134.343 32.7185 134.768 33.1437 135.292 33.1437C135.817 33.1437 136.242 32.7185 136.242 32.1941V31.2444C136.242 30.72 135.817 30.2948 135.292 30.2948Z" fill="white"/>
<path d="M133.277 32.6357L132.606 31.9643C132.229 31.6 131.628 31.6103 131.263 31.9875C130.908 32.3555 130.908 32.9389 131.263 33.307L131.935 33.9784C132.312 34.3428 132.913 34.3324 133.277 33.9552C133.633 33.5871 133.633 33.0036 133.277 32.6357Z" fill="white"/>
<path d="M95.3615 21.1062C95.2497 20.7627 94.9525 20.5124 94.5951 20.4604L91.808 20.055L90.5649 17.5299C90.2878 17.0595 89.6819 16.9027 89.2114 17.1797C89.0669 17.2648 88.9464 17.3853 88.8613 17.5299L87.6125 20.055L84.8253 20.4604C84.3062 20.5354 83.9462 21.0169 84.0211 21.536C84.0509 21.7427 84.148 21.9337 84.2973 22.0796L86.3134 24.0453L85.8386 26.8211C85.7474 27.3376 86.0921 27.8302 86.6086 27.9213C86.8166 27.958 87.0307 27.9244 87.2175 27.8258L89.7102 26.5115L92.203 27.822C92.6673 28.066 93.2414 27.8876 93.4855 27.4234C93.5827 27.2386 93.6162 27.0269 93.5809 26.8211L93.1061 24.0453L95.1231 22.0796C95.3813 21.8268 95.4737 21.4496 95.3615 21.1062ZM91.4196 23.0339C91.1959 23.2518 91.0937 23.5656 91.1461 23.8734L91.3816 25.2456L90.1518 24.597C89.8754 24.4519 89.5451 24.4519 89.2687 24.597L88.0341 25.2447L88.2696 23.8725C88.3229 23.5659 88.2225 23.2525 88.0009 23.0339L87.0028 22.0625L88.3808 21.8621C88.6901 21.8172 88.9575 21.6229 89.0958 21.3427L89.7102 20.0958L90.3256 21.3427C90.4638 21.6227 90.7307 21.8169 91.0397 21.8621L92.4167 22.0625L91.4196 23.0339Z" fill="white"/>
<path d="M137.782 64.6002H137.779L137.387 64.0133C135.194 60.7327 131.744 58.502 127.852 57.8474C127.333 57.7733 126.852 58.1342 126.778 58.6534C126.706 59.155 127.041 59.6245 127.539 59.72C130.346 60.1965 132.904 61.6226 134.785 63.7598C133.204 64.0443 131.82 64.9943 130.987 66.3684C129.964 68.2001 130.62 70.514 132.452 71.5368C134.283 72.5595 136.597 71.9037 137.62 70.072C138.011 69.3178 138.222 68.4835 138.236 67.6343C139.247 69.1018 139.328 71.0183 138.444 72.5657C138.177 73.0168 138.325 73.5994 138.777 73.8669C139.228 74.1345 139.81 73.9857 140.078 73.5347C140.086 73.5202 140.095 73.5056 140.102 73.4906C141.841 70.3849 140.817 66.4604 137.782 64.6002ZM135.964 69.1451C135.457 70.0635 134.302 70.3971 133.383 69.8902C132.465 69.3834 132.131 68.228 132.638 67.3097C132.641 67.3046 132.644 67.2994 132.647 67.2943C133.207 66.3767 134.152 65.7616 135.218 65.621C135.384 65.6165 135.547 65.6545 135.693 65.7312C136.495 66.1785 136.537 68.1176 135.964 69.1451Z" fill="white"/>
</g>
<rect x="2.25" y="4.25" width="220.5" height="84.5" rx="2.75" stroke="white" stroke-opacity="0.53" stroke-width="0.5"/>
<defs>
<clipPath id="clip0_56_39">
<rect width="57" height="57" fill="white" transform="translate(84 17)"/>
</clipPath>
</defs>
</svg>
