<svg width="88" height="82" viewBox="0 0 88 82" fill="none" xmlns="http://www.w3.org/2000/svg">
<g filter="url(#filter0_d_112_29)">
<path d="M77.333 20V10C77.333 4.479 72.857 0 67.333 0H20.667C15.146 0 10.667 4.476 10.667 10V50H4C4 55.521 8.476 60 14 60H50.667V66.667C50.667 70.332 53.668 73.334 57.333 73.334H77.333C80.999 73.334 84 70.332 84 66.667V26.667C84 23.001 80.999 20 77.333 20ZM50.667 26.667V53.334H34.003L30.667 50H17.333V10C17.333 8.164 18.831 6.667 20.667 6.667H67.333C69.173 6.667 70.667 8.161 70.667 10V20H57.333C53.668 20 50.667 23.001 50.667 26.667ZM77.333 66.667H57.333V26.667H77.333V66.667Z" fill="white"/>
<path d="M67.333 63.333C69.1738 63.333 70.666 61.8408 70.666 60C70.666 58.1592 69.1738 56.667 67.333 56.667C65.4922 56.667 64 58.1592 64 60C64 61.8408 65.4922 63.333 67.333 63.333Z" fill="#FFFCFC"/>
</g>
<defs>
<filter id="filter0_d_112_29" x="0" y="0" width="88" height="81.334" filterUnits="userSpaceOnUse" color-interpolation-filters="sRGB">
<feFlood flood-opacity="0" result="BackgroundImageFix"/>
<feColorMatrix in="SourceAlpha" type="matrix" values="0 0 0 0 0 0 0 0 0 0 0 0 0 0 0 0 0 0 127 0" result="hardAlpha"/>
<feOffset dy="4"/>
<feGaussianBlur stdDeviation="2"/>
<feComposite in2="hardAlpha" operator="out"/>
<feColorMatrix type="matrix" values="0 0 0 0 0 0 0 0 0 0 0 0 0 0 0 0 0 0 0.25 0"/>
<feBlend mode="normal" in2="BackgroundImageFix" result="effect1_dropShadow_112_29"/>
<feBlend mode="normal" in="SourceGraphic" in2="effect1_dropShadow_112_29" result="shape"/>
</filter>
</defs>
</svg>
