<svg width="226" height="94" viewBox="0 0 226 94" fill="none" xmlns="http://www.w3.org/2000/svg">
<rect width="225.991" height="91.8614" rx="4" fill="#F6C50B"/>
<rect width="225.991" height="91.8614" rx="4" fill="#F6C50B"/>
<path d="M14.3574 62.8883C14.3943 63.0114 14.5003 63.1005 14.627 63.115L17.3737 63.4287C17.4879 64.4839 17.6412 65.5404 17.8296 66.5727C17.8537 66.7048 17.9569 66.8081 18.0883 66.8312C18.1068 66.8344 18.1252 66.836 18.1434 66.836C18.2554 66.836 18.3609 66.7766 18.4188 66.6768C18.9552 65.7517 19.4835 64.7605 19.9905 63.7277L23.2971 64.1047C23.4176 64.1195 23.5352 64.0624 23.601 63.9596C23.6667 63.857 23.6691 63.7256 23.6071 63.6207C22.9826 62.5627 22.2336 61.5751 21.3788 60.6827C21.7265 59.8656 22.0659 59.0244 22.4137 58.1181C22.4606 57.9956 22.4291 57.8567 22.3339 57.7671C22.2387 57.6776 22.0992 57.6549 21.981 57.7108C21.1349 58.1092 20.3017 58.5444 19.5015 59.0058C18.8993 58.5462 18.2609 58.1283 17.6008 57.7619C17.5029 57.7074 17.3837 57.7088 17.2869 57.7653C17.1901 57.8218 17.1298 57.9253 17.1279 58.0382C17.1145 58.8416 17.1243 59.6637 17.1571 60.4844C16.229 61.1233 15.3215 61.8174 14.4576 62.5493C14.3599 62.6318 14.3206 62.7652 14.3574 62.8883ZM17.6619 60.9162C17.7539 60.8536 17.8071 60.7471 17.8021 60.6353C17.7721 59.9534 17.7581 59.2696 17.7604 58.5958C18.2871 58.9138 18.7965 59.2655 19.28 59.6452C19.3828 59.726 19.5239 59.7355 19.6363 59.6696C20.2472 59.3121 20.879 58.9698 21.5222 58.6476C21.2514 59.3337 20.9829 59.9862 20.7084 60.6257C20.6566 60.7464 20.6828 60.8866 20.7747 60.9799C21.5013 61.7183 22.1512 62.527 22.7125 63.3905L19.8393 63.0629C19.704 63.0465 19.5761 63.1189 19.5168 63.241C19.1246 64.0487 18.719 64.8315 18.3064 65.5777C18.1749 64.7599 18.0659 63.9315 17.9814 63.105C17.966 62.9547 17.8488 62.8354 17.6998 62.8185L15.4482 62.5614C16.1646 61.9817 16.9067 61.4301 17.6619 60.9162Z" fill="#F9A01F"/>
<path d="M177.529 62.3549C177.608 62.118 177.768 61.9379 177.967 61.861C178.081 61.817 178.137 61.689 178.094 61.5752C178.05 61.4613 177.923 61.4047 177.809 61.4486C177.486 61.5734 177.232 61.8532 177.111 62.2161C176.98 62.6088 177.024 63.0372 177.228 63.3622C177.609 63.9701 178.463 64.2168 179.171 63.9236C179.793 63.666 180.266 63.0242 180.375 62.2888C180.516 61.3304 180.035 60.3183 179.203 59.8275C178.371 59.3367 177.252 59.4048 176.483 59.993C175.688 60.6008 175.308 61.7081 175.538 62.7485C175.746 63.6915 176.43 64.5399 177.366 65.0182C179.437 66.0761 182.001 65.057 183.462 63.5035C184.09 62.8367 184.586 62.073 184.999 61.2695C185.598 60.1051 186.022 58.8573 186.415 57.701C186.454 57.5853 186.392 57.4599 186.277 57.4209C186.162 57.3818 186.036 57.4441 185.997 57.5596C185.348 59.4712 184.612 61.6378 183.142 63.2008C181.793 64.6341 179.445 65.5834 177.567 64.6242C176.747 64.205 176.149 63.4676 175.969 62.6517C175.778 61.79 176.099 60.8412 176.75 60.3441C177.38 59.8623 178.297 59.8065 178.978 60.2085C179.66 60.6106 180.054 61.4398 179.938 62.225C179.852 62.8094 179.485 63.3157 179.003 63.5151C178.496 63.7248 177.868 63.5504 177.602 63.1262C177.467 62.9117 177.44 62.6234 177.529 62.3549Z" fill="#F9A01F"/>
<path d="M47.4952 76.3693C47.16 77.2583 47.0011 78.2336 47.038 79.228C47.0979 80.8415 47.6686 82.3668 48.6447 83.5227C48.6998 83.5878 48.7782 83.6213 48.8572 83.6213C48.9207 83.6213 48.9845 83.5996 49.0369 83.5553C49.1541 83.4557 49.1687 83.2798 49.0694 83.1621C47.6183 81.4439 47.2298 78.8944 47.9502 76.7598C48.1582 76.9249 48.3747 77.0794 48.5991 77.2221C49.3488 77.6987 50.8404 78.4351 52.4064 78.0112C53.6845 77.6652 54.8659 76.3258 54.5874 74.8835C54.3394 73.5985 52.9602 72.6602 51.5144 72.7928C50.3438 72.8997 49.1801 73.6406 48.3217 74.8254C48.0956 75.1375 47.8975 75.4716 47.7288 75.8229C46.591 74.71 45.8112 73.2278 45.5683 71.6502C45.5449 71.498 45.4024 71.3937 45.2509 71.4171C45.099 71.4406 44.995 71.583 45.0184 71.7352C45.2904 73.5019 46.1883 75.1575 47.4952 76.3693ZM48.7719 75.1532C49.5359 74.0985 50.5539 73.4407 51.5648 73.3483C52.5899 73.2545 53.8291 73.8919 54.0411 74.9896C54.2575 76.1103 53.2768 77.1979 52.2613 77.4728C50.9009 77.8412 49.5696 77.1787 48.897 76.751C48.6408 76.5881 48.3956 76.4087 48.1626 76.2147C48.3288 75.841 48.5318 75.4846 48.7719 75.1532Z" fill="#F9A01F"/>
<path d="M80.608 16.2474C80.2729 17.1364 80.1139 18.1117 80.1508 19.1061C80.2108 20.7196 80.7814 22.2449 81.7576 23.4008C81.8126 23.4659 81.891 23.4994 81.97 23.4994C82.0335 23.4994 82.0974 23.4777 82.1497 23.4334C82.2669 23.3338 82.2815 23.1579 82.1822 23.0403C80.7311 21.322 80.3426 18.7726 81.063 16.6379C81.271 16.803 81.4876 16.9575 81.7119 17.1002C82.4617 17.5768 83.9532 18.3132 85.5192 17.8894C86.7973 17.5433 87.9787 16.2039 87.7003 14.7616C87.4522 13.4766 86.073 12.5383 84.6273 12.6709C83.4566 12.7778 82.2929 13.5187 81.4345 14.7035C81.2084 15.0156 81.0103 15.3497 80.8417 15.701C79.7038 14.5881 78.9241 13.1059 78.6811 11.5283C78.6577 11.3761 78.5153 11.2718 78.3638 11.2952C78.2119 11.3187 78.1078 11.4611 78.1313 11.6133C78.4033 13.3801 79.3011 15.0356 80.608 16.2474ZM81.8847 15.0313C82.6488 13.9766 83.6667 13.3188 84.6776 13.2264C85.7027 13.1326 86.942 13.77 87.154 14.8677C87.3703 15.9884 86.3896 17.076 85.3741 17.3509C84.0137 17.7193 82.6825 17.0568 82.0099 16.6292C81.7536 16.4662 81.5085 16.2868 81.2754 16.0928C81.4416 15.7191 81.6446 15.3627 81.8847 15.0313Z" fill="#F9A01F"/>
<path d="M92.9682 83.2361C92.633 84.125 92.474 85.1003 92.5109 86.0947C92.5709 87.7082 93.1415 89.2335 94.1177 90.3894C94.1727 90.4545 94.2511 90.4881 94.3301 90.4881C94.3937 90.4881 94.4575 90.4664 94.5098 90.422C94.627 90.3225 94.6416 90.1465 94.5423 90.0289C93.0912 88.3106 92.7027 85.7612 93.4231 83.6265C93.6311 83.7917 93.8477 83.9461 94.0721 84.0888C94.8218 84.5655 96.3133 85.3019 97.8794 84.878C99.1574 84.5319 100.339 83.1926 100.06 81.7503C99.8123 80.4653 98.4331 79.5269 96.9874 79.6595C95.8167 79.7665 94.653 80.5073 93.7946 81.6922C93.5685 82.0042 93.3704 82.3384 93.2018 82.6896C92.0639 81.5768 91.2842 80.0945 91.0413 78.5169C91.0178 78.3647 90.8754 78.2604 90.7239 78.2839C90.572 78.3074 90.4679 78.4498 90.4914 78.602C90.7634 80.3687 91.6612 82.0242 92.9682 83.2361ZM94.2449 82.0199C95.0089 80.9652 96.0269 80.3074 97.0378 80.215C98.0628 80.1213 99.3021 80.7586 99.5141 81.8563C99.7304 82.9771 98.7497 84.0646 97.7342 84.3395C96.3738 84.7079 95.0426 84.0455 94.37 83.6178C94.1137 83.4548 93.8686 83.2754 93.6355 83.0814C93.8017 82.7077 94.0047 82.3514 94.2449 82.0199Z" fill="#F9A01F"/>
<path d="M66.9474 64.712C66.2426 66.1258 65.8411 67.7349 65.7845 69.3779C65.7822 69.4425 65.8117 69.5042 65.8633 69.5431C65.898 69.5691 65.9397 69.5827 65.9819 69.5827C66.0026 69.5827 66.0234 69.5794 66.0435 69.5728C67.814 68.9896 69.4666 67.8001 70.7257 66.2082C71.6287 67.7087 73.0547 68.7686 74.5905 69.0667C74.6524 69.0786 74.7162 69.0605 74.7623 69.0175C74.8085 68.9747 74.8315 68.9123 74.8242 68.8495C74.6302 67.1709 74.1074 65.5471 73.3101 64.1425C74.6185 62.9702 75.7475 61.4708 76.5812 59.7963C76.6102 59.7382 76.6088 59.6696 76.5777 59.6127C76.5466 59.5558 76.4896 59.5177 76.4253 59.5109C75.0484 59.3647 73.6732 59.4961 72.3353 59.9014C71.3831 58.4449 70.6426 56.8224 70.1336 55.0762C70.1111 54.9992 70.0446 54.9433 69.965 54.9348C69.8856 54.9265 69.8086 54.9668 69.7704 55.0374C68.8226 56.7903 67.8434 58.6013 66.9672 60.2802C65.8786 60.1313 64.7681 60.3003 63.7465 60.7717C63.6969 60.7946 63.659 60.8371 63.6417 60.889C63.6244 60.9409 63.6294 60.9977 63.6553 61.0458C64.4782 62.5709 65.6139 63.835 66.9474 64.712ZM67.0455 60.6923C67.1296 60.7059 67.2128 60.6641 67.2521 60.5885C68.0747 59.0091 68.9931 57.3062 69.8929 55.6417C70.4212 57.3031 71.1585 58.8494 72.088 60.2445C72.1369 60.3178 72.2282 60.3498 72.312 60.3232C73.5493 59.9296 74.8209 59.7803 76.0957 59.8784C75.2727 61.4539 74.1819 62.8577 72.9283 63.952C72.8566 64.0146 72.8396 64.1196 72.8878 64.2018C73.6585 65.5145 74.1776 67.0354 74.3964 68.617C72.9914 68.2531 71.7077 67.2017 70.9232 65.7579C70.8911 65.6987 70.8311 65.66 70.7641 65.6551C70.6972 65.65 70.6321 65.6799 70.5918 65.7338C69.4233 67.2959 67.8701 68.4829 66.1929 69.1014C66.2858 67.5558 66.6939 66.0517 67.3798 64.7339C67.4275 64.6423 67.3969 64.5294 67.3096 64.4746C66.0236 63.6662 64.9197 62.4836 64.1068 61.0459C65.0469 60.6543 66.0585 60.532 67.0455 60.6923Z" fill="#F9A01F"/>
<path d="M155.299 48.8423C154.594 50.2561 154.193 51.8652 154.136 53.5081C154.134 53.5728 154.163 53.6344 154.215 53.6733C154.25 53.6994 154.291 53.713 154.334 53.713C154.354 53.713 154.375 53.7097 154.395 53.7031C156.166 53.1199 157.818 51.9303 159.077 50.3384C159.98 51.839 161.406 52.8989 162.942 53.197C163.004 53.2089 163.068 53.1907 163.114 53.1478C163.16 53.1049 163.183 53.0425 163.176 52.9798C162.982 51.3012 162.459 49.6774 161.662 48.2728C162.97 47.1004 164.099 45.601 164.933 43.9265C164.962 43.8685 164.961 43.7998 164.929 43.7429C164.898 43.686 164.841 43.648 164.777 43.6412C163.4 43.4949 162.025 43.6263 160.687 44.0317C159.735 42.5752 158.994 40.9526 158.485 39.2064C158.463 39.1294 158.396 39.0736 158.317 39.065C158.237 39.0568 158.16 39.097 158.122 39.1676C157.174 40.9205 156.195 42.7316 155.319 44.4104C154.23 44.2615 153.12 44.4306 152.098 44.902C152.049 44.9249 152.011 44.9673 151.993 45.0192C151.976 45.0712 151.981 45.1279 152.007 45.1761C152.83 46.7012 153.966 47.9652 155.299 48.8423ZM155.397 44.8225C155.481 44.8361 155.565 44.7943 155.604 44.7187C156.426 43.1394 157.345 41.4365 158.245 39.772C158.773 41.4333 159.51 42.9796 160.44 44.3747C160.489 44.448 160.58 44.4801 160.664 44.4535C161.901 44.0598 163.173 43.9106 164.447 44.0086C163.624 45.5841 162.534 46.988 161.28 48.0823C161.208 48.1449 161.191 48.2498 161.24 48.332C162.01 49.6447 162.529 51.1657 162.748 52.7473C161.343 52.3834 160.059 51.332 159.275 49.8881C159.243 49.8289 159.183 49.7902 159.116 49.7854C159.049 49.7802 158.984 49.8102 158.944 49.8641C157.775 51.4261 156.222 52.6131 154.545 53.2317C154.638 51.686 155.046 50.1819 155.732 48.8642C155.779 48.7726 155.749 48.6597 155.661 48.6048C154.375 47.7965 153.271 46.6138 152.458 45.1762C153.399 44.7845 154.41 44.6622 155.397 44.8225Z" fill="#F9A01F"/>
<path d="M68.4734 38.4659C67.7686 39.8797 67.367 41.4888 67.3104 43.1317C67.3082 43.1964 67.3376 43.2581 67.3893 43.2969C67.4239 43.323 67.4656 43.3366 67.5079 43.3366C67.5285 43.3366 67.5493 43.3333 67.5695 43.3267C69.3399 42.7435 70.9926 41.554 72.2517 39.9621C73.1547 41.4626 74.5806 42.5225 76.1164 42.8206C76.1783 42.8325 76.2421 42.8144 76.2883 42.7714C76.3344 42.7285 76.3574 42.6661 76.3502 42.6034C76.1562 40.9248 75.6334 39.301 74.836 37.8964C76.1444 36.7241 77.2734 35.2247 78.1072 33.5501C78.1361 33.4921 78.1348 33.4235 78.1037 33.3666C78.0726 33.3096 78.0156 33.2716 77.9513 33.2648C76.5743 33.1185 75.1991 33.25 73.8612 33.6553C72.909 32.1988 72.1686 30.5763 71.6595 28.8301C71.6371 28.7531 71.5705 28.6972 71.4909 28.6887C71.4115 28.6804 71.3345 28.7206 71.2964 28.7912C70.3486 30.5441 69.3693 32.3552 68.4932 34.0341C67.4045 33.8852 66.2941 34.0542 65.2724 34.5256C65.2228 34.5485 65.1849 34.5909 65.1676 34.6429C65.1504 34.6948 65.1553 34.7515 65.1813 34.7997C66.0041 36.3248 67.1398 37.5888 68.4734 38.4659ZM68.5714 34.4462C68.6556 34.4597 68.7387 34.4179 68.7781 34.3423C69.6007 32.763 70.519 31.0601 71.4188 29.3956C71.9471 31.057 72.6844 32.6033 73.614 33.9984C73.6628 34.0716 73.7541 34.1037 73.8379 34.0771C75.0752 33.6834 76.3468 33.5342 77.6216 33.6322C76.7986 35.2078 75.7078 36.6116 74.4543 37.7059C74.3826 37.7685 74.3655 37.8735 74.4138 37.9557C75.1844 39.2684 75.7036 40.7893 75.9224 42.3709C74.5174 42.007 73.2337 40.9556 72.4492 39.5117C72.417 39.4526 72.357 39.4139 72.29 39.409C72.2231 39.4039 72.1581 39.4338 72.1177 39.4877C70.9492 41.0498 69.396 42.2367 67.7188 42.8553C67.8117 41.3097 68.2198 39.8055 68.9057 38.4878C68.9534 38.3962 68.9228 38.2833 68.8355 38.2285C67.5495 37.4201 66.4456 36.2375 65.6327 34.7998C66.5729 34.4081 67.5844 34.2858 68.5714 34.4462Z" fill="#F9A01F"/>
<path d="M150.621 72.6651H147.8V58.099V52.126C147.8 49.8778 145.971 48.0489 143.723 48.0489H141.397V39.8084V34.614C141.397 32.366 139.568 30.5369 137.32 30.5369H133.139V26.5824C134.073 26.3465 134.958 25.8648 135.687 25.1353C137.364 23.4586 137.785 20.9036 136.736 18.7771L132.998 11.205C132.769 10.7401 132.295 10.4458 131.777 10.4458C131.258 10.4458 130.785 10.7401 130.555 11.205L126.818 18.7773C125.768 20.9035 126.19 23.4586 127.866 25.1354C128.596 25.8649 129.48 26.3467 130.415 26.5826V30.5371H118.478V24.682C119.412 24.4461 120.296 23.9644 121.026 23.2349C122.703 21.5582 123.124 19.0032 122.075 16.8767L118.337 9.30442C118.107 8.83956 117.634 8.54523 117.116 8.54523C116.597 8.54523 116.124 8.83956 115.894 9.30442L112.157 16.8768C111.107 19.0032 111.529 21.5582 113.205 23.2349C113.935 23.9644 114.819 24.4461 115.754 24.682V30.5371H103.816V26.5868C104.773 26.3457 105.649 25.8508 106.365 25.1354C108.042 23.4588 108.463 20.9036 107.413 18.7773L103.676 11.205C103.446 10.7401 102.973 10.4458 102.454 10.4458C101.936 10.4458 101.463 10.7401 101.233 11.205L97.4955 18.7774C96.4461 20.9036 96.8675 23.4588 98.5441 25.1356C99.2595 25.8509 100.136 26.3458 101.092 26.5869V30.5372H96.9113C94.6632 30.5372 92.8343 32.3661 92.8343 34.6143V39.809V48.0492H90.5084C88.2602 48.0492 86.4313 49.8781 86.4313 52.1263V58.0993V72.6654H83.61C82.8578 72.6654 82.248 73.2751 82.248 74.0274C82.248 74.7796 82.8578 75.3894 83.61 75.3894H87.7933H146.438H150.621C151.374 75.3894 151.983 74.7796 151.983 74.0274C151.983 73.2751 151.374 72.6651 150.621 72.6651ZM129.793 23.209C128.942 22.3583 128.728 21.0618 129.261 19.9828L131.777 14.8849L134.293 19.9828C134.826 21.0618 134.612 22.3583 133.761 23.209C133.572 23.3979 133.362 23.5519 133.139 23.6756C132.295 24.1444 131.26 24.1444 130.415 23.6756C130.192 23.5521 129.982 23.398 129.793 23.209ZM115.131 21.3086C114.281 20.4578 114.067 19.1613 114.599 18.0824L117.116 12.9846L119.632 18.0825C120.165 19.1615 119.951 20.458 119.1 21.3087C118.911 21.4976 118.701 21.6517 118.478 21.7753C117.633 22.2441 116.598 22.2441 115.754 21.7753C115.531 21.6515 115.32 21.4976 115.131 21.3086ZM100.47 23.209C99.6194 22.3583 99.4057 21.0618 99.9383 19.9828L102.455 14.8849L104.971 19.9828C105.503 21.0616 105.29 22.3581 104.439 23.209C104.25 23.3979 104.04 23.5519 103.817 23.6756C102.972 24.1444 101.937 24.1444 101.093 23.6756C100.87 23.5521 100.659 23.398 100.47 23.209ZM96.9113 33.261H137.32C138.066 33.261 138.673 33.8679 138.673 34.614V38.8902C138.073 39.0787 137.426 39.1654 136.663 39.1654C134.632 39.1654 133.705 38.5475 132.532 37.7651C131.225 36.8943 129.745 35.9074 126.889 35.9074C124.033 35.9074 122.552 36.8943 121.246 37.7651C120.073 38.5475 119.146 39.1654 117.115 39.1654C115.084 39.1654 114.157 38.5475 112.983 37.7651C111.677 36.8944 110.197 35.9074 107.341 35.9074C104.485 35.9074 103.005 36.8944 101.699 37.7651C100.525 38.5475 99.5983 39.1654 97.5674 39.1654C96.8047 39.1654 96.1584 39.0785 95.5584 38.8903V34.614H95.5583C95.5583 33.8679 96.1654 33.261 96.9113 33.261ZM145.076 72.6651H89.1553V59.5749C90.3133 59.7879 91.051 60.2788 91.9247 60.8613C93.2309 61.7322 94.7113 62.7191 97.5673 62.7191C100.423 62.7191 101.903 61.732 103.21 60.8613C104.383 60.079 105.31 59.461 107.341 59.461C109.372 59.461 110.299 60.079 111.472 60.8613C112.778 61.7322 114.259 62.7191 117.115 62.7191C119.971 62.7191 121.451 61.732 122.757 60.8613C123.931 60.079 124.857 59.461 126.889 59.461C128.92 59.461 129.847 60.079 131.02 60.8613C132.327 61.732 133.807 62.7191 136.663 62.7191C139.519 62.7191 141 61.732 142.306 60.8613C143.18 60.2788 143.918 59.7878 145.076 59.5747V72.6651ZM145.076 56.8194C143.076 57.0741 141.876 57.8741 140.795 58.5946C139.622 59.377 138.695 59.9949 136.663 59.9949C134.632 59.9949 133.705 59.377 132.531 58.5946C131.225 57.7239 129.745 56.7368 126.889 56.7368C124.033 56.7368 122.552 57.7239 121.246 58.5946C120.073 59.377 119.146 59.9949 117.115 59.9949C115.083 59.9949 114.157 59.377 112.983 58.5946C111.677 57.7238 110.197 56.7368 107.341 56.7368C104.485 56.7368 103.004 57.7239 101.698 58.5946C100.525 59.377 99.598 59.9949 97.5671 59.9949C95.536 59.9949 94.6091 59.377 93.4357 58.5946C92.355 57.8741 91.155 57.0741 89.1553 56.8194V52.1259C89.1553 51.3797 89.7624 50.7728 90.5084 50.7728H100.961C101.713 50.7728 102.323 50.1631 102.323 49.4108C102.323 48.6586 101.713 48.0488 100.961 48.0488H95.5583V41.6976C96.1851 41.8257 96.8473 41.8896 97.5673 41.8896C100.423 41.8896 101.903 40.9026 103.21 40.0318C104.383 39.2495 105.31 38.6315 107.341 38.6315C109.372 38.6315 110.299 39.2495 111.472 40.0318C112.778 40.9026 114.259 41.8896 117.115 41.8896C119.97 41.8896 121.451 40.9026 122.757 40.0318C123.931 39.2495 124.857 38.6315 126.889 38.6315C128.92 38.6315 129.847 39.2495 131.02 40.0318C132.327 40.9027 133.807 41.8896 136.663 41.8896C137.384 41.8896 138.046 41.8256 138.673 41.6974V48.0489H111.821C111.069 48.0489 110.459 48.6587 110.459 49.4109C110.459 50.1632 111.069 50.773 111.821 50.773H143.723C144.469 50.773 145.076 51.38 145.076 52.126V56.8194Z" fill="white"/>
<path d="M197.229 37.7642C196.991 37.7723 196.752 37.8154 196.516 37.8907C196.442 37.3381 196.367 36.7856 196.292 36.233L196.275 36.1061C196.684 35.8151 197.085 35.5031 197.423 35.129C198.652 33.7689 198.878 31.6297 197.96 30.0427C197.939 30.0066 197.905 29.9845 197.867 29.9775C197.565 29.4975 197.006 29.2189 196.505 29.3178C196.002 29.4168 195.583 29.8673 195.435 30.4652C195.306 30.9844 195.38 31.5296 195.446 32.0104L195.767 34.382C195.511 34.604 195.245 34.8221 194.988 35.0335C194.84 35.1546 194.693 35.2752 194.548 35.396C193.765 36.0498 193.187 36.6753 192.78 37.3082C192.258 38.1219 192.042 38.9348 192.137 39.7241C192.214 40.3589 192.506 40.9708 192.981 41.4931C193.421 41.977 194.009 42.3658 194.638 42.5885C195.186 42.7829 195.792 42.8807 196.444 42.8807C196.589 42.8807 196.737 42.8756 196.887 42.8659C196.904 42.9125 196.92 42.9598 196.934 43.0083C197.017 43.7014 197.047 44.4231 196.718 45.0129C196.511 45.3831 196.08 45.6601 195.644 45.702C195.535 45.7126 195.432 45.7075 195.337 45.6877C195.476 45.645 195.612 45.5666 195.735 45.4545C196.009 45.2058 196.209 44.7719 196.04 44.3633C195.907 44.0413 195.595 43.8143 195.204 43.7557C194.778 43.6917 194.361 43.8368 194.115 44.1348C193.897 44.3998 193.806 44.7533 193.861 45.1301C193.92 45.5383 194.146 45.9108 194.466 46.1269C194.726 46.3023 195.039 46.3885 195.359 46.3885C195.771 46.3885 196.195 46.2465 196.535 45.9694C197.462 45.2135 197.474 43.8752 197.201 42.9528C197.196 42.9156 197.192 42.8779 197.187 42.8407C197.61 42.7964 198.055 42.7154 198.513 42.5981C199.004 42.4728 199.554 42.2893 199.923 41.8791C200.585 41.1427 200.4 40.0182 199.948 39.2848C199.356 38.3237 198.289 37.7265 197.229 37.7642ZM196.364 45.7588C195.858 46.1709 195.107 46.2322 194.618 45.9016C194.36 45.7278 194.177 45.4251 194.129 45.0914C194.086 44.7914 194.155 44.5128 194.324 44.3076C194.478 44.1213 194.736 44.0126 195.01 44.0126C195.061 44.0126 195.112 44.0165 195.164 44.0243C195.459 44.0685 195.694 44.2342 195.79 44.467C195.908 44.7538 195.756 45.0689 195.553 45.2536C195.38 45.4107 195.106 45.5306 194.853 45.3967C194.796 45.3661 194.725 45.3808 194.684 45.4317C194.643 45.4821 194.644 45.5547 194.686 45.6043C194.919 45.8806 195.268 46.0113 195.669 45.9725C195.944 45.9461 196.217 45.8414 196.45 45.6831C196.422 45.7091 196.394 45.7343 196.364 45.7588ZM195.714 31.974C195.652 31.5172 195.582 30.9992 195.698 30.5305C195.799 30.1242 196.103 29.6741 196.557 29.5845C196.609 29.574 196.662 29.5689 196.715 29.5689C197.104 29.5689 197.51 29.8367 197.704 30.2422C197.947 30.7478 197.862 31.3205 197.748 31.7117C197.449 32.7318 196.724 33.5222 196.012 34.166L195.714 31.974ZM195.057 42.4345C195.047 42.4038 195.027 42.3767 194.997 42.3589C194.332 41.9642 193.835 41.2623 193.635 40.4334C193.435 39.6046 193.557 38.7532 193.969 38.0979C194.417 37.3855 195.109 36.9105 195.84 36.4076C195.902 36.3657 195.963 36.3234 196.025 36.2811C196.102 36.85 196.179 37.4188 196.256 37.9877C195.539 38.2957 194.991 38.8673 194.813 39.5002C194.797 39.5564 194.819 39.6166 194.867 39.6492C194.916 39.6822 194.979 39.6803 195.026 39.6445C195.456 39.3143 195.926 39.0916 196.392 38.9942L196.88 42.594C196.223 42.6378 195.611 42.5839 195.057 42.4345ZM198.777 40.6899C198.741 41.095 198.511 41.5129 198.145 41.8365C197.851 42.097 197.494 42.2871 197.136 42.4632L196.66 38.9519C196.901 38.9267 197.137 38.9372 197.361 38.9841C198.103 39.1401 198.85 39.8626 198.777 40.6899Z" fill="#F9A01F"/>
<path d="M51.7965 43.5683C51.9715 42.7501 51.8754 41.9642 51.5264 41.3547C51.1108 40.6301 50.3268 40.1966 49.5772 40.2751C49.1568 40.3197 48.7557 40.544 48.4765 40.891C48.2251 41.2041 48.1086 41.5763 48.1489 41.9394C48.1596 42.0373 48.244 42.1094 48.3422 42.1073C48.4405 42.1035 48.5194 42.0255 48.5237 41.9271C48.5291 41.7904 48.6112 41.6592 48.7476 41.5677C48.9103 41.4585 49.1128 41.4278 49.2749 41.487C49.5998 41.6048 49.8091 42.0034 49.7517 42.3945C49.6991 42.7549 49.451 43.1014 49.0703 43.3434C48.237 43.8749 47.0342 43.6968 46.3893 42.9464C46.0467 42.5472 45.8701 42.0454 45.6832 41.5139C45.5624 41.1707 45.4373 40.8157 45.2628 40.4859C44.633 39.297 43.3582 38.5149 42.0147 38.494C40.7395 38.4746 39.5008 39.1432 38.8092 40.2137C38.2099 38.9872 36.729 38.2578 35.3919 38.5919C34.5226 38.8092 33.8031 39.4101 33.214 39.969C33.1109 40.0675 33.0078 40.167 32.9053 40.2671C32.4204 40.7372 31.9194 41.2235 31.3336 41.5489C30.7311 41.8846 29.8328 42.1009 29.1208 41.7023C28.7761 41.5091 28.5178 41.131 28.4464 40.7151C28.3895 40.3822 28.4636 40.0782 28.6553 39.8593C28.8996 39.5812 29.3469 39.5801 29.6626 39.7232C29.7764 39.7748 30.1448 39.9733 30.0948 40.3623C30.0841 40.4451 30.1297 40.5253 30.2065 40.5586C30.2833 40.592 30.373 40.5704 30.4261 40.5059C30.8294 40.0159 30.765 39.2095 30.2828 38.7087C29.8849 38.2955 29.2427 38.0916 28.5645 38.1622C26.9665 38.3294 25.673 39.989 25.7965 41.7131C25.9071 43.258 27.0573 44.7304 28.659 45.3764C29.3399 45.6513 30.1007 45.7885 30.903 45.7885C31.6998 45.7885 32.5375 45.6529 33.3778 45.3818C35.4853 44.7018 37.311 43.2935 38.4982 41.4586L37.1547 56.865C37.1456 56.9688 37.2218 57.0603 37.3255 57.0689C37.3309 57.0695 37.3368 57.07 37.3421 57.07C37.4383 57.07 37.5204 56.9958 37.529 56.8979L38.9117 41.0423C39.7622 42.917 40.7583 44.3457 41.9492 45.3984C43.371 46.6561 45.0812 47.3436 46.7388 47.3436C46.9837 47.3436 47.2275 47.3285 47.4691 47.2984C48.463 47.1731 49.4408 46.7443 50.2226 46.0907C51.0469 45.4011 51.5908 44.5291 51.7965 43.5683Z" fill="#F9A01F"/>
<path d="M210.641 67.5499C210.288 66.7915 209.737 66.2223 209.091 65.9464C208.323 65.6187 207.436 65.7454 206.885 66.2598C206.577 66.5489 206.392 66.9696 206.378 67.4148C206.367 67.8161 206.498 68.1834 206.749 68.4488C206.817 68.5205 206.927 68.5271 207.004 68.4662C207.081 68.404 207.097 68.2941 207.041 68.213C206.963 68.1007 206.949 67.9465 207.003 67.7913C207.067 67.6061 207.21 67.4596 207.375 67.4091C207.705 67.3072 208.112 67.4991 208.302 67.8457C208.477 68.165 208.488 68.5911 208.331 69.0137C207.986 69.9401 206.919 70.523 205.952 70.3129C205.438 70.2009 204.995 69.9069 204.525 69.5955C204.222 69.3945 203.908 69.1866 203.57 69.0287C202.351 68.4597 200.862 68.604 199.778 69.3971C198.748 70.1503 198.163 71.4305 198.256 72.7015C197.039 72.0841 195.418 72.3947 194.552 73.4673C193.99 74.1646 193.778 75.0779 193.645 75.8789C193.622 76.0196 193.599 76.1611 193.578 76.3028C193.474 76.9701 193.368 77.6602 193.096 78.273C192.818 78.904 192.232 79.618 191.423 79.7291C191.032 79.7828 190.598 79.6367 190.29 79.348C190.044 79.1166 189.92 78.8294 189.941 78.5392C189.968 78.17 190.324 77.8996 190.663 77.8234C190.785 77.796 191.198 77.7324 191.393 78.0728C191.434 78.1454 191.519 78.1818 191.6 78.1621C191.682 78.1425 191.74 78.0712 191.744 77.9877C191.77 77.3536 191.233 76.749 190.546 76.6401C189.979 76.5503 189.344 76.7747 188.845 77.2397C187.671 78.3364 187.639 80.4403 188.777 81.7415C189.797 82.9076 191.602 83.3891 193.269 82.9391C193.978 82.7481 194.668 82.3989 195.308 81.9153C195.944 81.435 196.531 80.8219 197.038 80.0991C198.31 78.2862 198.917 76.062 198.759 73.8823L206.973 86.9851C207.029 87.0735 207.145 87.1005 207.232 87.0449C207.237 87.0421 207.242 87.039 207.246 87.0357C207.323 86.9778 207.344 86.869 207.292 86.7858L198.838 73.3009C200.646 74.284 202.302 74.8237 203.887 74.9458C205.78 75.0923 207.559 74.6099 208.881 73.6108C209.077 73.4632 209.262 73.3042 209.437 73.1346C210.154 72.4354 210.676 71.504 210.906 70.5112C211.148 69.4641 211.056 68.4404 210.641 67.5499Z" fill="#F9A01F"/>
<path d="M222.585 49.3217C222.508 49.1843 222.354 49.1075 222.198 49.1314C220.2 49.4223 218.233 49.8469 216.306 50.4022C215.389 48.9284 214.42 47.4885 213.4 46.0876C213.303 45.9538 213.13 45.8982 212.973 45.9497C212.815 46.0015 212.71 46.1485 212.711 46.3139L212.747 51.5937C211.249 52.167 209.78 52.8226 208.345 53.5591C208.199 53.6341 208.117 53.7942 208.142 53.9564C208.168 54.1184 208.294 54.2461 208.456 54.2731C209.918 54.5162 211.363 54.8762 212.772 55.3452L212.812 61.1172C212.813 61.284 212.923 61.4306 213.082 61.4789C213.119 61.49 213.156 61.4952 213.193 61.4952C213.317 61.4952 213.436 61.4344 213.508 61.328C214.478 59.8973 215.552 58.4403 216.685 56.9746C217.871 57.5738 219.015 58.2547 220.102 59.0114C220.243 59.1095 220.432 59.1014 220.564 58.9916C220.695 58.8819 220.738 58.6976 220.667 58.5416C220.041 57.1677 219.371 55.812 218.659 54.4784C219.935 52.895 221.25 51.312 222.546 49.7508C222.647 49.6297 222.663 49.459 222.585 49.3217ZM209.707 53.7325C210.707 53.2514 211.722 52.8098 212.752 52.4077L212.767 54.5423C211.761 54.2174 210.739 53.9467 209.707 53.7325ZM213.507 51.3106L213.481 47.511C214.197 48.5309 214.887 49.5704 215.548 50.6278C214.862 50.8388 214.182 51.0663 213.507 51.3106ZM213.566 59.9052L213.536 55.6115C214.368 55.9144 215.186 56.2555 215.986 56.6333C215.141 57.7305 214.327 58.8235 213.566 59.9052ZM216.464 56.0173C215.509 55.56 214.529 55.1537 213.531 54.8007L213.513 52.1191C214.321 51.8209 215.138 51.5468 215.962 51.2974C216.584 52.3148 217.179 53.3478 217.748 54.3951C217.315 54.9362 216.886 55.4771 216.464 56.0173ZM219.403 57.6365C218.676 57.1797 217.927 56.7544 217.161 56.3626C217.484 55.9505 217.81 55.5384 218.14 55.1256C218.578 55.9542 218.999 56.7918 219.403 57.6365ZM218.266 53.7527C217.77 52.8494 217.254 51.957 216.719 51.0758C218.229 50.649 219.762 50.3036 221.315 50.0408C220.295 51.2702 219.27 52.5104 218.266 53.7527Z" fill="#F9A01F"/>
<path d="M42.4965 28.3018C43.5713 28.2514 44.5417 27.7834 45.1589 27.0178C45.8515 26.1586 46.0949 25.0798 46.2623 23.9421C46.2633 23.936 46.2642 23.9299 46.2649 23.9238C46.2813 23.8115 46.297 23.6985 46.3124 23.5852C46.686 20.8245 46.9863 18.0332 47.2117 15.2406L59.8636 16.4464C59.8879 16.8106 59.9154 17.1736 59.943 17.5342C60.0013 18.2981 60.0615 19.088 60.086 19.8569C60.1307 21.2581 60.0229 22.947 59.4856 24.4637C58.0507 22.8922 56.8567 22.7889 55.2492 23.1655C54.2104 23.4089 53.259 24.2247 52.8255 25.2437C52.4768 26.0637 52.5093 26.8937 52.9173 27.581C53.3018 28.2286 53.9347 28.646 54.7474 28.7882C54.9479 28.8233 55.1548 28.8402 55.365 28.8402C56.333 28.8402 57.3669 28.4782 58.1331 27.847C58.9468 27.1767 59.5328 26.3384 59.949 25.4235C59.9653 25.3965 59.978 25.3679 59.9873 25.3383C60.7728 23.558 60.9287 21.5014 60.8755 19.8317C60.8504 19.0451 60.7895 18.2464 60.7306 17.4739C60.5802 15.5007 60.4246 13.4603 60.8726 11.5435C60.8984 11.4334 60.8757 11.3174 60.8102 11.2251C60.7448 11.1328 60.643 11.0729 60.5305 11.0607L47.1936 9.6157C47.0855 9.60396 46.9769 9.63748 46.8942 9.70838C46.8115 9.77915 46.7616 9.88109 46.7566 9.99002C46.682 11.5801 46.5817 13.1759 46.457 14.7717C46.457 14.7717 46.457 14.7717 46.457 14.7718C46.457 14.7719 46.457 14.7719 46.457 14.7719C46.244 17.4977 45.9591 20.2237 45.6039 22.9224C44.8689 22.2165 43.7778 21.6461 42.676 21.4309C41.643 21.2291 40.736 21.3763 40.1224 21.8452C39.3412 22.4425 38.8482 23.4007 38.7697 24.4744C38.6912 25.548 39.0397 26.5679 39.7257 27.2726C40.4117 27.977 41.4222 28.3512 42.4965 28.3018ZM57.6311 27.2371C56.8805 27.8555 55.7761 28.1658 54.8833 28.0098C54.4797 27.9393 53.9288 27.7375 53.5963 27.1775C53.3202 26.7124 53.3046 26.1356 53.5523 25.5532C53.8853 24.7703 54.6397 24.1199 55.4294 23.9349C55.8583 23.8344 56.2393 23.7722 56.5961 23.7722C57.4778 23.7722 58.2105 24.1525 59.1461 25.2756C58.7823 26.0193 58.2901 26.6943 57.6311 27.2371ZM47.5253 10.4465L60.0112 11.7996C59.7695 13.0712 59.7568 14.365 59.8177 15.6481L47.2719 14.4526C47.3731 13.1158 47.459 11.7792 47.5253 10.4465ZM39.5575 24.532C39.6196 23.6835 40.0002 22.9331 40.6021 22.473C40.8972 22.2474 41.3098 22.1318 41.8 22.1318C42.0263 22.1318 42.2693 22.1565 42.5247 22.2064C43.7163 22.4393 44.9232 23.1665 45.4606 23.9626C45.3082 24.9597 45.0944 25.8388 44.544 26.5215C44.0685 27.1115 43.3087 27.4726 42.4595 27.5123C41.61 27.5518 40.8199 27.2638 40.2914 26.7209C39.763 26.178 39.4954 25.3804 39.5575 24.532Z" fill="#F9A01F"/>
<path d="M207.614 21.4094C207.584 21.5188 207.627 21.6347 207.721 21.6988C207.814 21.7628 207.938 21.761 208.03 21.6942C209.317 20.7569 210.647 19.817 211.949 18.9008C214.506 20.2392 216.967 21.7591 219.31 23.4488C219.357 23.4826 219.412 23.4994 219.467 23.4994C219.529 23.4994 219.59 23.4783 219.64 23.4364C219.734 23.3573 219.762 23.2244 219.707 23.1143L216.161 15.9158C217.306 15.0915 218.447 14.2522 219.565 13.3962C219.653 13.3289 219.69 13.2146 219.659 13.1085C219.627 13.0024 219.534 12.9267 219.423 12.9178C217.847 12.792 216.27 12.8102 214.71 12.9688L212.529 8.54197C212.483 8.44815 212.386 8.38936 212.282 8.3928C212.177 8.3957 212.084 8.45929 212.043 8.55548C211.296 10.3125 210.598 12.0988 209.954 13.9049C208.492 14.337 207.066 14.898 205.692 15.5849C205.597 15.6322 205.539 15.7309 205.544 15.8364C205.549 15.9419 205.616 16.0347 205.715 16.073C206.753 16.4751 207.779 16.9053 208.793 17.3634C208.37 18.7054 207.976 20.0554 207.614 21.4094ZM208.33 20.8165C208.628 19.7365 208.946 18.6598 209.283 17.5877C210 17.9192 210.71 18.2647 211.413 18.6239C210.389 19.345 209.35 20.0801 208.33 20.8165ZM218.761 22.4049C216.733 20.9951 214.622 19.7094 212.44 18.5551C212.448 18.549 212.457 18.5429 212.466 18.5369C213.54 17.7809 214.631 17.0133 215.721 16.2322L218.761 22.4049ZM218.671 13.4038C217.765 14.089 216.845 14.7638 215.922 15.4293L214.962 13.481C216.191 13.3658 217.431 13.3395 218.671 13.4038ZM212.308 9.30388L214.145 13.0323C212.944 13.1809 211.755 13.4128 210.587 13.7263C211.125 12.2364 211.699 10.7605 212.308 9.30388ZM210.367 14.3416C211.686 13.9669 213.033 13.699 214.395 13.5406L215.481 15.7459C214.369 16.5438 213.254 17.3281 212.157 18.1C212.074 18.1587 211.99 18.2174 211.907 18.2763C211.096 17.8574 210.275 17.4565 209.446 17.074C209.74 16.1592 210.047 15.2477 210.367 14.3416ZM206.477 15.7981C207.535 15.3002 208.623 14.8771 209.733 14.5305C209.464 15.3006 209.205 16.0743 208.956 16.8505C208.138 16.4818 207.311 16.1307 206.477 15.7981Z" fill="#F9A01F"/>
<path d="M156.616 21.6216C157.282 21.234 157.914 20.791 158.504 20.2958C158.548 20.2585 158.558 20.1942 158.527 20.1457C156.011 16.2417 153.086 12.4153 149.83 8.7678C150.801 9.06829 151.956 9.43759 153.022 9.92552C153.037 9.9324 153.054 9.93571 153.07 9.93571C153.088 9.93571 153.106 9.93174 153.122 9.92322C153.153 9.90717 153.176 9.87768 153.182 9.8433C153.294 9.27902 153.47 8.72687 153.705 8.20192C153.719 8.17177 153.719 8.13703 153.705 8.10689C153.691 8.07641 153.664 8.05413 153.632 8.04495C152.713 7.7828 151.731 7.77199 150.806 7.99875C151.516 7.59275 152.24 7.24835 152.969 6.9708C153.006 6.95703 153.033 6.9259 153.041 6.88789C153.049 6.84988 153.037 6.81023 153.01 6.7827L151.675 5.44279C151.634 5.40249 151.571 5.39757 151.525 5.43099C150.586 6.12114 149.904 7.14709 149.625 8.27728C149.592 7.00815 149.667 5.91725 149.86 4.86573C149.866 4.83202 149.857 4.79758 149.835 4.77136C149.813 4.74515 149.781 4.7304 149.747 4.7304C149.747 4.7304 149.746 4.7304 149.746 4.7304C148.83 4.73532 147.908 4.94176 147.078 5.32745C147.044 5.34288 147.02 5.37398 147.013 5.41068C147.006 5.44738 147.018 5.4851 147.044 5.51161C147.626 6.10505 148.161 6.74469 148.641 7.42202C147.952 6.88887 147.132 6.51105 146.215 6.30989C146.161 6.29776 146.107 6.32627 146.085 6.37739L145.431 7.93226C145.414 7.97224 145.421 8.01844 145.45 8.05157C145.478 8.08434 145.523 8.09843 145.565 8.08762C146.735 7.78844 147.993 7.9067 149.087 8.40711C147.85 8.35891 146.538 8.81213 145.509 9.65724C145.484 9.67821 145.468 9.70934 145.468 9.74244C145.467 9.77586 145.48 9.80765 145.505 9.83026C145.992 10.2769 146.395 10.8002 146.701 11.3858C146.721 11.4238 146.76 11.4474 146.803 11.4474C146.807 11.4474 146.812 11.4471 146.816 11.4464C146.864 11.4409 146.903 11.4064 146.914 11.3603C147.211 10.1642 148.131 9.15296 149.288 8.73025C147.657 13.2019 146.374 17.9005 145.475 22.7008C145.464 22.7572 145.497 22.8122 145.551 22.8306C146.867 23.2752 148.263 23.4994 149.68 23.4994C150.545 23.4994 151.417 23.4162 152.283 23.2484C153.815 22.9515 155.281 22.399 156.612 21.6241C156.613 21.6233 156.615 21.6226 156.616 21.6216ZM151.582 5.67509L152.723 6.82003C151.748 7.20437 150.784 7.70544 149.853 8.31264C150.113 7.27387 150.732 6.32814 151.582 5.67509ZM146.865 7.69561C146.485 7.69561 146.104 7.73457 145.73 7.81358L146.259 6.55493C147.401 6.82301 148.382 7.37808 149.13 8.17472C148.419 7.85814 147.643 7.69561 146.865 7.69561ZM153.94 22.5657C153.552 22.044 153.072 21.6354 152.548 21.3817C151.618 20.9312 150.517 20.981 149.745 21.5082C149.185 21.8913 148.816 22.5572 148.781 23.2325C147.738 23.1637 146.708 22.9697 145.719 22.6447C145.786 22.292 145.854 21.9402 145.925 21.5885C146.279 21.776 146.677 21.8704 147.066 21.8704C147.45 21.8704 147.827 21.7786 148.148 21.5932C148.632 21.313 149.002 20.8165 149.164 20.231C149.325 19.6454 149.261 19.0297 148.989 18.5417C148.589 17.8251 147.734 17.3745 146.869 17.4079C147.046 16.7044 147.231 16.0038 147.424 15.3071C147.664 15.235 147.888 15.1226 148.078 15.02C148.569 14.7546 149.173 14.3712 149.488 13.7571C149.781 13.1867 149.745 12.3484 149.178 11.9333C148.991 11.7962 148.771 11.7173 148.51 11.6934C148.83 10.7074 149.167 9.73087 149.519 8.76485C150.173 9.49395 150.813 10.2303 151.439 10.9728C150.939 11.4329 150.677 12.1276 150.768 12.7741C150.896 13.6739 151.705 14.4417 152.612 14.522C152.666 14.5266 152.72 14.5292 152.774 14.5292C153.196 14.5292 153.625 14.3864 153.986 14.1258C154.472 14.755 154.947 15.3877 155.413 16.0234C154.984 16.2899 154.634 16.6943 154.419 17.1753C153.947 18.2287 154.092 19.6139 154.771 20.5436C155.137 21.0436 155.658 21.406 156.233 21.5696C155.5 21.9719 154.731 22.3048 153.94 22.5657Z" fill="#F9A01F"/>
<path d="M18.9765 29.0987C19.6424 28.7111 20.2745 28.2681 20.8645 27.7729C20.9085 27.7356 20.9184 27.6713 20.8872 27.6228C18.3713 23.7188 15.4465 19.8924 12.1903 16.2449C13.1614 16.5454 14.3169 16.9147 15.3822 17.4026C15.3976 17.4095 15.414 17.4128 15.4301 17.4128C15.4482 17.4128 15.4662 17.4088 15.4826 17.4003C15.5138 17.3843 15.5361 17.3548 15.543 17.3204C15.6543 16.7561 15.8302 16.204 16.0658 15.679C16.0796 15.6489 16.0793 15.6141 16.0652 15.584C16.0511 15.5535 16.0248 15.5312 15.9926 15.5221C15.0734 15.2599 14.0915 15.2491 13.167 15.4758C13.8765 15.0698 14.6005 14.7254 15.33 14.4479C15.3665 14.4341 15.393 14.403 15.4012 14.365C15.4095 14.327 15.398 14.2873 15.3704 14.2598L14.0353 12.9199C13.995 12.8796 13.9316 12.8747 13.8857 12.9081C12.9461 13.5982 12.2641 14.6242 11.9855 15.7544C11.9527 14.4852 12.0279 13.3943 12.2205 12.3428C12.2264 12.3091 12.2172 12.2747 12.1956 12.2485C12.1736 12.2222 12.1414 12.2075 12.1073 12.2075C12.1073 12.2075 12.1069 12.2075 12.1066 12.2075C11.191 12.2124 10.2685 12.4189 9.43816 12.8045C9.40436 12.82 9.3804 12.8511 9.3735 12.8878C9.36694 12.9245 9.37843 12.9622 9.40468 12.9887C9.98688 13.5821 10.5212 14.2218 11.0019 14.8991C10.3121 14.366 9.49231 13.9881 8.57602 13.787C8.52187 13.7749 8.46706 13.8034 8.4454 13.8545L7.79133 15.4094C7.77427 15.4493 7.78182 15.4955 7.81004 15.5287C7.83859 15.5614 7.88355 15.5755 7.92556 15.5647C9.09553 15.2655 10.3535 15.3838 11.4476 15.8842C10.2104 15.836 8.89895 16.2892 7.86977 17.1343C7.84417 17.1553 7.82875 17.1864 7.82809 17.2195C7.8271 17.253 7.84056 17.2847 7.86517 17.3074C8.35285 17.754 8.75521 18.2773 9.0614 18.8629C9.08142 18.9009 9.12081 18.9245 9.16347 18.9245C9.16774 18.9245 9.17233 18.9242 9.17692 18.9235C9.22451 18.918 9.26323 18.8835 9.27472 18.8374C9.57173 17.6413 10.492 16.6301 11.6485 16.2073C10.0177 20.679 8.73486 25.3776 7.83531 30.1779C7.82481 30.2343 7.8573 30.2893 7.91145 30.3077C9.22746 30.7523 10.6239 30.9765 12.041 30.9765C12.9054 30.9765 13.7774 30.8932 14.6431 30.7255C16.1751 30.4286 17.6411 29.8761 18.9725 29.1012C18.9739 29.1004 18.9752 29.0997 18.9765 29.0987ZM13.9428 13.1522L15.0836 14.2971C14.1085 14.6815 13.145 15.1825 12.2133 15.7897C12.4739 14.751 13.0922 13.8052 13.9428 13.1522ZM9.22582 15.1727C8.84513 15.1727 8.46411 15.2117 8.09031 15.2907L8.62 14.032C9.76142 14.3001 10.7424 14.8552 11.4909 15.6518C10.7791 15.3352 10.0033 15.1727 9.22582 15.1727ZM16.3008 30.0428C15.9122 29.5211 15.4328 29.1125 14.909 28.8588C13.9782 28.4083 12.8778 28.4581 12.106 28.9853C11.5454 29.3684 11.1765 30.0343 11.1414 30.7096C10.0988 30.6408 9.06862 30.4468 8.07948 30.1218C8.1461 29.7691 8.21502 29.4173 8.28558 29.0656C8.63969 29.253 9.03712 29.3475 9.42667 29.3475C9.81097 29.3475 10.1877 29.2557 10.5084 29.0703C10.9928 28.7901 11.363 28.2936 11.5244 27.7081C11.6859 27.1225 11.6219 26.5068 11.3495 26.0188C10.9494 25.3022 10.0945 24.8516 9.22943 24.885C9.40632 24.1815 9.59142 23.4809 9.78439 22.7842C10.0246 22.7121 10.2488 22.5997 10.4388 22.4971C10.9298 22.2317 11.5336 21.8483 11.8487 21.2342C12.1414 20.6638 12.1056 19.8255 11.5389 19.4103C11.3518 19.2733 11.1319 19.1944 10.8707 19.1705C11.1907 18.1845 11.527 17.208 11.8798 16.2419C12.5333 16.971 13.1732 17.7074 13.7997 18.4499C13.2996 18.91 13.0377 19.6047 13.1289 20.2512C13.2562 21.151 14.0659 21.9188 14.9723 21.9991C15.0265 22.0037 15.0806 22.0063 15.1348 22.0063C15.5565 22.0063 15.9857 21.8634 16.3461 21.6029C16.8322 22.2321 17.308 22.8648 17.7734 23.5005C17.3447 23.7669 16.9946 24.1713 16.7793 24.6524C16.3074 25.7058 16.4524 27.091 17.1318 28.0207C17.4974 28.5207 18.0188 28.8831 18.5938 29.0467C17.8607 29.449 17.0918 29.7819 16.3008 30.0428Z" fill="#F9A01F"/>
<path d="M165.772 83.7273C166.437 83.3396 167.07 82.8966 167.66 82.4014C167.704 82.3641 167.713 82.2998 167.682 82.2513C165.166 78.3473 162.242 74.5209 158.985 70.8734C159.956 71.1739 161.112 71.5432 162.177 72.0311C162.193 72.038 162.209 72.0413 162.225 72.0413C162.243 72.0413 162.261 72.0374 162.278 72.0289C162.309 72.0128 162.331 71.9833 162.338 71.9489C162.449 71.3847 162.625 70.8325 162.861 70.3075C162.875 70.2774 162.874 70.2427 162.86 70.2125C162.846 70.182 162.82 70.1598 162.788 70.1506C161.868 69.8884 160.887 69.8776 159.962 70.1044C160.672 69.6984 161.396 69.354 162.125 69.0764C162.162 69.0627 162.188 69.0315 162.196 68.9935C162.205 68.9555 162.193 68.9159 162.165 68.8883L160.83 67.5484C160.79 67.5081 160.727 67.5032 160.681 67.5366C159.741 68.2268 159.059 69.2527 158.781 70.3829C158.748 69.1138 158.823 68.0229 159.016 66.9714C159.021 66.9376 159.012 66.9032 158.991 66.877C158.969 66.8508 158.936 66.836 158.902 66.836C158.902 66.836 158.902 66.836 158.902 66.836C157.986 66.8409 157.064 67.0474 156.233 67.4331C156.199 67.4485 156.175 67.4796 156.169 67.5163C156.162 67.553 156.174 67.5907 156.2 67.6172C156.782 68.2107 157.316 68.8503 157.797 69.5276C157.107 68.9945 156.287 68.6167 155.371 68.4155C155.317 68.4034 155.262 68.4319 155.24 68.483L154.586 70.0379C154.569 70.0779 154.577 70.1241 154.605 70.1572C154.634 70.19 154.679 70.2041 154.721 70.1932C155.891 69.8941 157.149 70.0123 158.243 70.5127C157.005 70.4645 155.694 70.9178 154.665 71.7629C154.639 71.7838 154.624 71.815 154.623 71.8481C154.622 71.8815 154.636 71.9133 154.66 71.9359C155.148 72.3825 155.55 72.9058 155.856 73.4915C155.877 73.5294 155.916 73.553 155.959 73.553C155.963 73.553 155.967 73.5527 155.972 73.5521C156.02 73.5465 156.058 73.5121 156.07 73.4659C156.367 72.2698 157.287 71.2586 158.444 70.8359C156.813 75.3075 155.53 80.0062 154.63 84.8064C154.62 84.8628 154.652 84.9179 154.707 84.9362C156.023 85.3808 157.419 85.605 158.836 85.605C159.701 85.605 160.572 85.5218 161.438 85.354C162.97 85.0571 164.436 84.5047 165.768 83.7297C165.769 83.7289 165.77 83.7282 165.772 83.7273ZM160.738 67.7807L161.879 68.9257C160.904 69.31 159.94 69.8111 159.008 70.4183C159.269 69.3795 159.887 68.4338 160.738 67.7807ZM156.021 69.8012C155.64 69.8012 155.259 69.8402 154.885 69.9192L155.415 68.6606C156.557 68.9286 157.537 69.4837 158.286 70.2803C157.574 69.9638 156.798 69.8012 156.021 69.8012ZM163.096 84.6713C162.707 84.1497 162.228 83.741 161.704 83.4874C160.773 83.0368 159.673 83.0866 158.901 83.6138C158.341 83.9969 157.972 84.6628 157.937 85.3381C156.894 85.2693 155.864 85.0753 154.875 84.7503C154.941 84.3977 155.01 84.0458 155.081 83.6942C155.435 83.8816 155.832 83.976 156.222 83.976C156.606 83.976 156.983 83.8842 157.303 83.6988C157.788 83.4186 158.158 82.9221 158.32 82.3366C158.481 81.751 158.417 81.1353 158.145 80.6473C157.745 79.9307 156.89 79.4802 156.025 79.5135C156.201 78.81 156.387 78.1094 156.579 77.4127C156.82 77.3407 157.044 77.2282 157.234 77.1257C157.725 76.8602 158.329 76.4768 158.644 75.8628C158.936 75.2923 158.901 74.454 158.334 74.0389C158.147 73.9019 157.927 73.8229 157.666 73.799C157.986 72.813 158.322 71.8365 158.675 70.8705C159.328 71.5996 159.968 72.3359 160.595 73.0784C160.095 73.5385 159.833 74.2332 159.924 74.8797C160.051 75.7796 160.861 76.5474 161.767 76.6276C161.822 76.6322 161.876 76.6349 161.93 76.6349C162.352 76.6349 162.781 76.492 163.141 76.2314C163.627 76.8606 164.103 77.4934 164.568 78.1291C164.14 78.3955 163.79 78.7999 163.574 79.2809C163.102 80.3344 163.248 81.7196 163.927 82.6492C164.292 83.1492 164.814 83.5117 165.389 83.6752C164.656 84.0775 163.887 84.4105 163.096 84.6713Z" fill="#F9A01F"/>
<path d="M36.9826 82.8117C37.6484 82.4241 38.2805 81.981 38.8706 81.4859C38.9145 81.4485 38.9244 81.3843 38.8932 81.3358C36.3774 77.4318 33.4526 73.6054 30.1963 69.9579C31.1674 70.2584 32.323 70.6277 33.3883 71.1156C33.4037 71.1225 33.4201 71.1258 33.4362 71.1258C33.4542 71.1258 33.4723 71.1218 33.4887 71.1133C33.5199 71.0972 33.5422 71.0677 33.5491 71.0334C33.6603 70.4691 33.8362 69.9169 34.0719 69.392C34.0856 69.3618 34.0853 69.3271 34.0712 69.297C34.0571 69.2665 34.0308 69.2442 33.9987 69.235C33.0794 68.9729 32.0975 68.9621 31.173 69.1888C31.8826 68.7828 32.6065 68.4384 33.3361 68.1609C33.3725 68.1471 33.3991 68.116 33.4073 68.078C33.4155 68.04 33.404 68.0003 33.3764 67.9728L32.0414 66.6329C32.001 66.5926 31.9377 66.5876 31.8917 66.6211C30.9521 67.3112 30.2702 68.3372 29.9916 69.4674C29.9587 68.1982 30.0339 67.1073 30.2265 66.0558C30.2324 66.0221 30.2233 65.9876 30.2016 65.9614C30.1796 65.9352 30.1474 65.9205 30.1133 65.9205C30.1133 65.9205 30.113 65.9205 30.1127 65.9205C29.197 65.9254 28.2745 66.1318 27.4442 66.5175C27.4104 66.533 27.3864 66.564 27.3795 66.6007C27.373 66.6375 27.3845 66.6752 27.4107 66.7017C27.9929 67.2951 28.5272 67.9348 29.008 68.6121C28.3182 68.0789 27.4984 67.7011 26.5821 67.5C26.5279 67.4878 26.4731 67.5163 26.4514 67.5675L25.7974 69.1223C25.7803 69.1623 25.7879 69.2085 25.8161 69.2416C25.8446 69.2744 25.8896 69.2885 25.9316 69.2777C27.1016 68.9785 28.3595 69.0968 29.4537 69.5972C28.2164 69.549 26.905 70.0022 25.8758 70.8473C25.8502 70.8683 25.8348 70.8994 25.8341 70.9325C25.8331 70.9659 25.8466 70.9977 25.8712 71.0203C26.3589 71.467 26.7613 71.9903 27.0674 72.5759C27.0875 72.6139 27.1268 72.6375 27.1695 72.6375C27.1738 72.6375 27.1784 72.6371 27.183 72.6365C27.2306 72.6309 27.2693 72.5965 27.2808 72.5503C27.5778 71.3543 28.498 70.343 29.6545 69.9203C28.0238 74.3919 26.7409 79.0906 25.8414 83.8909C25.8309 83.9473 25.8633 84.0023 25.9175 84.0207C27.2335 84.4653 28.6299 84.6895 30.047 84.6895C30.9115 84.6895 31.7834 84.6062 32.6492 84.4385C34.1811 84.1416 35.6472 83.5891 36.9786 82.8141C36.9799 82.8134 36.9812 82.8127 36.9826 82.8117ZM31.9488 66.8652L33.0896 68.0101C32.1146 68.3944 31.151 68.8955 30.2193 69.5027C30.4799 68.4639 31.0982 67.5182 31.9488 66.8652ZM27.2319 68.8857C26.8512 68.8857 26.4702 68.9246 26.0963 69.0036L26.626 67.745C27.7675 68.0131 28.7484 68.5682 29.497 69.3648C28.7852 69.0482 28.0093 68.8857 27.2319 68.8857ZM34.3068 83.7558C33.9183 83.2341 33.4388 82.8254 32.915 82.5718C31.9843 82.1212 30.8839 82.1711 30.112 82.6983C29.5515 83.0814 29.1826 83.7473 29.1475 84.4226C28.1048 84.3538 27.0747 84.1598 26.0855 83.8348C26.1521 83.4821 26.2211 83.1302 26.2916 82.7786C26.6457 82.966 27.0432 83.0604 27.4327 83.0604C27.817 83.0604 28.1938 82.9686 28.5144 82.7832C28.9988 82.503 29.369 82.0066 29.5305 81.421C29.6919 80.8354 29.6279 80.2197 29.3555 79.7318C28.9555 79.0152 28.1006 78.5646 27.2355 78.598C27.4124 77.8944 27.5975 77.1939 27.7904 76.4972C28.0307 76.4251 28.2548 76.3127 28.4448 76.2101C28.9358 75.9447 29.5396 75.5613 29.8547 74.9472C30.1474 74.3767 30.1117 73.5385 29.5449 73.1233C29.3578 72.9863 29.138 72.9073 28.8767 72.8835C29.1967 71.8974 29.5331 70.9209 29.8859 69.9549C30.5393 70.684 31.1793 71.4203 31.8058 72.1629C31.3056 72.6229 31.0437 73.3176 31.1349 73.9642C31.2623 74.864 32.0719 75.6318 32.9784 75.7121C33.0325 75.7167 33.0867 75.7193 33.1408 75.7193C33.5625 75.7193 33.9918 75.5764 34.3521 75.3159C34.8382 75.945 35.3141 76.5778 35.7794 77.2135C35.3508 77.4799 35.0006 77.8843 34.7853 78.3654C34.3134 79.4188 34.4585 80.804 35.1378 81.7336C35.5034 82.2337 36.0249 82.5961 36.5999 82.7596C35.8667 83.162 35.0978 83.4949 34.3068 83.7558Z" fill="#F9A01F"/>
<path d="M178.617 26.6876C181.027 25.6624 183.562 25.8608 185.265 26.2078C185.416 26.2385 185.563 26.1412 185.594 25.9901C185.625 25.8391 185.528 25.6916 185.376 25.6611C182.824 25.1408 180.411 25.3183 178.399 26.1741C176.076 27.1628 174.307 29.1483 173.783 31.3556C173.197 33.8272 174.243 36.4938 176.272 37.6959C176.479 37.8188 176.711 37.9304 176.958 38.0203C177.732 38.3019 178.653 38.3691 179.425 37.8908C179.977 37.5484 180.399 36.9573 180.714 36.0842C181.11 34.9883 181.143 34.0362 180.814 33.2539C180.419 32.3161 179.432 31.6517 178.415 31.6382C177.398 31.6248 176.393 32.2629 175.972 33.19C175.583 34.049 175.728 35.0933 176.327 35.7297C176.997 36.4429 178.161 36.5363 178.868 35.9336C179.239 35.6177 179.439 35.1133 179.405 34.5846C179.372 34.0915 179.139 33.6701 178.766 33.4284C178.425 33.2076 178.014 33.1537 177.666 33.2845C177.261 33.4372 176.988 33.8444 177.019 34.2528C177.03 34.4065 177.165 34.5215 177.318 34.5099C177.471 34.4983 177.586 34.3643 177.575 34.2107C177.563 34.0493 177.689 33.8719 177.863 33.8066C178.042 33.739 178.272 33.7736 178.463 33.897C178.687 34.0419 178.828 34.306 178.848 34.6212C178.871 34.9697 178.74 35.3099 178.506 35.509C178.035 35.9106 177.19 35.8337 176.733 35.3473C176.285 34.8713 176.181 34.0789 176.48 33.4204C176.812 32.6889 177.604 32.1854 178.407 32.196C179.21 32.2066 179.988 32.7309 180.3 33.4708C180.574 34.1197 180.536 34.9351 180.19 35.8948C179.919 36.6452 179.573 37.1429 179.131 37.4164C178.325 37.9161 177.272 37.6402 176.556 37.2159C174.732 36.1349 173.794 33.7243 174.326 31.4842C174.809 29.4461 176.454 27.6082 178.617 26.6876Z" fill="#F9A01F"/>
<rect x="2.25" y="3.25" width="220.5" height="84.5" rx="2.75" stroke="white" stroke-opacity="0.53" stroke-width="0.5"/>
</svg>
