<svg width="200" height="215" viewBox="0 0 200 215" fill="none" xmlns="http://www.w3.org/2000/svg">
<rect width="200" height="100" rx="10" fill="#D9D9D9"/>
<rect y="115" width="90" height="100" rx="10" fill="#D9D9D9"/>
<rect x="110" y="115" width="90" height="100" rx="10" fill="#D9D9D9"/>
<circle cx="100" cy="50" r="11.5" fill="#D9D9D9" stroke="black"/>
<path d="M103.144 54.912V56H97V54.912H99.456V47.096C99.456 46.8613 99.464 46.624 99.48 46.384L97.44 48.136C97.3707 48.1947 97.3013 48.232 97.232 48.248C97.1627 48.2587 97.0987 48.2587 97.04 48.248C96.9813 48.2373 96.9253 48.216 96.872 48.184C96.824 48.152 96.7867 48.1173 96.76 48.08L96.312 47.464L99.728 44.512H100.888V54.912H103.144Z" fill="black"/>
<circle cx="45" cy="165" r="11.5" fill="#D9D9D9" stroke="black"/>
<path d="M47.896 169.648C48.0507 169.648 48.1733 169.693 48.264 169.784C48.3547 169.875 48.4 169.992 48.4 170.136V171H40.752V170.512C40.752 170.411 40.7733 170.307 40.816 170.2C40.8587 170.093 40.9253 169.995 41.016 169.904L44.688 166.216C44.992 165.907 45.2693 165.611 45.52 165.328C45.7707 165.04 45.984 164.752 46.16 164.464C46.336 164.176 46.472 163.885 46.568 163.592C46.664 163.293 46.712 162.976 46.712 162.64C46.712 162.304 46.6587 162.011 46.552 161.76C46.4453 161.504 46.2987 161.293 46.112 161.128C45.9307 160.963 45.7147 160.84 45.464 160.76C45.2133 160.675 44.944 160.632 44.656 160.632C44.3627 160.632 44.0933 160.675 43.848 160.76C43.6027 160.845 43.384 160.965 43.192 161.12C43.0053 161.269 42.848 161.448 42.72 161.656C42.592 161.864 42.5013 162.093 42.448 162.344C42.384 162.531 42.296 162.656 42.184 162.72C42.0773 162.779 41.9253 162.795 41.728 162.768L40.984 162.64C41.0587 162.117 41.2027 161.656 41.416 161.256C41.6347 160.851 41.9067 160.512 42.232 160.24C42.5627 159.968 42.9387 159.763 43.36 159.624C43.7813 159.48 44.2373 159.408 44.728 159.408C45.2133 159.408 45.6667 159.48 46.088 159.624C46.5093 159.768 46.8747 159.979 47.184 160.256C47.4933 160.528 47.736 160.861 47.912 161.256C48.088 161.651 48.176 162.099 48.176 162.6C48.176 163.027 48.112 163.424 47.984 163.792C47.856 164.155 47.6827 164.501 47.464 164.832C47.2453 165.163 46.992 165.485 46.704 165.8C46.4213 166.115 46.12 166.432 45.8 166.752L42.776 169.84C42.9893 169.781 43.2053 169.736 43.424 169.704C43.6427 169.667 43.8533 169.648 44.056 169.648H47.896Z" fill="black"/>
<circle cx="155" cy="165" r="11.5" fill="#D9D9D9" stroke="black"/>
<path d="M151.04 162.64C151.115 162.117 151.259 161.656 151.472 161.256C151.685 160.851 151.955 160.512 152.28 160.24C152.611 159.968 152.987 159.763 153.408 159.624C153.835 159.48 154.293 159.408 154.784 159.408C155.269 159.408 155.717 159.477 156.128 159.616C156.539 159.755 156.891 159.952 157.184 160.208C157.483 160.464 157.715 160.773 157.88 161.136C158.045 161.499 158.128 161.901 158.128 162.344C158.128 162.707 158.08 163.032 157.984 163.32C157.893 163.603 157.76 163.851 157.584 164.064C157.413 164.277 157.205 164.459 156.96 164.608C156.715 164.757 156.44 164.88 156.136 164.976C156.883 165.168 157.443 165.499 157.816 165.968C158.195 166.432 158.384 167.013 158.384 167.712C158.384 168.24 158.283 168.715 158.08 169.136C157.883 169.557 157.611 169.917 157.264 170.216C156.917 170.509 156.512 170.736 156.048 170.896C155.589 171.051 155.096 171.128 154.568 171.128C153.96 171.128 153.44 171.053 153.008 170.904C152.576 170.749 152.211 170.539 151.912 170.272C151.613 170.005 151.368 169.691 151.176 169.328C150.984 168.96 150.821 168.563 150.688 168.136L151.304 167.88C151.464 167.811 151.619 167.792 151.768 167.824C151.923 167.856 152.035 167.944 152.104 168.088C152.173 168.237 152.259 168.416 152.36 168.624C152.467 168.832 152.611 169.032 152.792 169.224C152.973 169.416 153.203 169.579 153.48 169.712C153.763 169.845 154.12 169.912 154.552 169.912C154.952 169.912 155.301 169.848 155.6 169.72C155.904 169.587 156.155 169.416 156.352 169.208C156.555 169 156.707 168.768 156.808 168.512C156.909 168.256 156.96 168.003 156.96 167.752C156.96 167.443 156.92 167.16 156.84 166.904C156.76 166.648 156.611 166.427 156.392 166.24C156.173 166.053 155.872 165.907 155.488 165.8C155.109 165.693 154.621 165.64 154.024 165.64V164.608C154.515 164.603 154.931 164.549 155.272 164.448C155.619 164.347 155.899 164.208 156.112 164.032C156.331 163.856 156.488 163.645 156.584 163.4C156.685 163.155 156.736 162.883 156.736 162.584C156.736 162.253 156.683 161.965 156.576 161.72C156.475 161.475 156.333 161.272 156.152 161.112C155.971 160.952 155.755 160.832 155.504 160.752C155.259 160.672 154.992 160.632 154.704 160.632C154.416 160.632 154.147 160.675 153.896 160.76C153.651 160.845 153.432 160.965 153.24 161.12C153.053 161.269 152.896 161.448 152.768 161.656C152.64 161.864 152.549 162.093 152.496 162.344C152.427 162.531 152.339 162.656 152.232 162.72C152.131 162.779 151.981 162.795 151.784 162.768L151.04 162.64Z" fill="black"/>
</svg>
