<svg width="886" height="268" viewBox="0 0 886 268" fill="none" xmlns="http://www.w3.org/2000/svg">
<path d="M39.258 137.651H127.202L109.976 267.579H21.3518L39.258 137.651Z" fill="url(#paint0_linear_258_1961)"/>
<path d="M154.271 0H242.593L225.293 129.928H136.288L154.271 0Z" fill="url(#paint1_linear_258_1961)"/>
<path d="M136.928 137.579H272L255.749 207.579H127L136.928 137.579Z" fill="url(#paint2_linear_258_1961)"/>
<path d="M9.76731 59.5127H136.288L126.66 129.928H0L9.76731 59.5127Z" fill="url(#paint3_linear_258_1961)"/>
<path d="M281.588 173V85.7273H294.756V123.653H338.264V85.7273H351.474V173H338.264V134.946H294.756V173H281.588ZM411.091 145.855V107.545H423.875V173H411.347V161.665H410.665C409.159 165.159 406.744 168.071 403.42 170.401C400.125 172.702 396.02 173.852 391.105 173.852C386.901 173.852 383.179 172.929 379.94 171.082C376.73 169.207 374.202 166.438 372.355 162.773C370.537 159.108 369.628 154.577 369.628 149.179V107.545H382.369V147.645C382.369 152.105 383.605 155.656 386.077 158.298C388.548 160.94 391.759 162.261 395.707 162.261C398.094 162.261 400.466 161.665 402.824 160.472C405.21 159.278 407.185 157.474 408.747 155.06C410.338 152.645 411.119 149.577 411.091 145.855ZM471.549 107.545V117.773H435.796V107.545H471.549ZM445.384 91.8636H458.126V153.781C458.126 156.253 458.495 158.114 459.234 159.364C459.972 160.585 460.924 161.423 462.089 161.878C463.282 162.304 464.575 162.517 465.967 162.517C466.989 162.517 467.884 162.446 468.651 162.304C469.418 162.162 470.015 162.048 470.441 161.963L472.742 172.489C472.004 172.773 470.952 173.057 469.589 173.341C468.225 173.653 466.521 173.824 464.475 173.852C461.123 173.909 457.998 173.312 455.1 172.062C452.202 170.812 449.859 168.881 448.069 166.267C446.279 163.653 445.384 160.372 445.384 156.423V91.8636ZM513.151 174.321C506.702 174.321 501.148 172.943 496.489 170.188C491.858 167.403 488.278 163.497 485.75 158.469C483.25 153.412 482 147.489 482 140.699C482 133.994 483.25 128.085 485.75 122.972C488.278 117.858 491.801 113.866 496.318 110.997C500.864 108.128 506.176 106.693 512.256 106.693C515.949 106.693 519.528 107.304 522.994 108.526C526.46 109.747 529.571 111.665 532.327 114.278C535.082 116.892 537.256 120.287 538.847 124.463C540.438 128.611 541.233 133.653 541.233 139.591V144.108H489.202V134.562H528.747C528.747 131.21 528.065 128.241 526.702 125.656C525.338 123.043 523.42 120.983 520.949 119.477C518.506 117.972 515.636 117.219 512.341 117.219C508.761 117.219 505.636 118.099 502.966 119.861C500.324 121.594 498.278 123.866 496.83 126.679C495.409 129.463 494.699 132.489 494.699 135.756V143.213C494.699 147.588 495.466 151.31 497 154.378C498.562 157.446 500.736 159.79 503.52 161.409C506.304 163 509.557 163.795 513.278 163.795C515.693 163.795 517.895 163.455 519.884 162.773C521.872 162.062 523.591 161.011 525.04 159.619C526.489 158.227 527.597 156.509 528.364 154.463L540.423 156.636C539.457 160.187 537.724 163.298 535.224 165.969C532.753 168.611 529.642 170.67 525.892 172.148C522.17 173.597 517.923 174.321 513.151 174.321ZM582.941 174.321C576.606 174.321 571.151 172.886 566.577 170.017C562.032 167.119 558.538 163.128 556.094 158.043C553.651 152.957 552.43 147.134 552.43 140.571C552.43 133.923 553.68 128.057 556.18 122.972C558.68 117.858 562.202 113.866 566.748 110.997C571.293 108.128 576.648 106.693 582.813 106.693C587.785 106.693 592.217 107.616 596.109 109.463C600.001 111.281 603.14 113.838 605.526 117.134C607.941 120.429 609.376 124.278 609.83 128.682H597.43C596.748 125.614 595.185 122.972 592.742 120.756C590.327 118.54 587.089 117.432 583.026 117.432C579.475 117.432 576.364 118.369 573.694 120.244C571.052 122.091 568.992 124.733 567.515 128.17C566.038 131.58 565.299 135.614 565.299 140.273C565.299 145.045 566.023 149.165 567.472 152.631C568.921 156.097 570.967 158.781 573.609 160.685C576.279 162.588 579.418 163.54 583.026 163.54C585.441 163.54 587.629 163.099 589.589 162.219C591.577 161.31 593.239 160.017 594.575 158.341C595.938 156.665 596.89 154.648 597.43 152.29H609.83C609.376 156.523 607.998 160.301 605.697 163.625C603.396 166.949 600.313 169.562 596.45 171.466C592.614 173.369 588.112 174.321 582.941 174.321ZM636.197 134.136V173H623.456V85.7273H636.027V118.199H636.837C638.371 114.676 640.714 111.878 643.868 109.804C647.021 107.73 651.141 106.693 656.226 106.693C660.714 106.693 664.635 107.616 667.987 109.463C671.368 111.31 673.982 114.065 675.828 117.73C677.703 121.366 678.641 125.912 678.641 131.366V173H665.899V132.901C665.899 128.099 664.663 124.378 662.192 121.736C659.72 119.065 656.283 117.73 651.879 117.73C648.868 117.73 646.169 118.369 643.783 119.648C641.425 120.926 639.564 122.801 638.2 125.273C636.865 127.716 636.197 130.67 636.197 134.136ZM728.424 173V85.7273H741.592V123.653H785.1V85.7273H798.31V173H785.1V134.946H741.592V173H728.424ZM817.487 173V85.7273H848.594C855.356 85.7273 860.967 86.892 865.427 89.2216C869.915 91.5511 873.268 94.7756 875.484 98.8949C877.7 102.986 878.808 107.716 878.808 113.085C878.808 118.426 877.685 123.128 875.441 127.19C873.225 131.224 869.873 134.364 865.384 136.608C860.924 138.852 855.313 139.974 848.552 139.974H824.987V128.639H847.359C851.62 128.639 855.086 128.028 857.756 126.807C860.455 125.585 862.43 123.81 863.68 121.48C864.93 119.151 865.555 116.352 865.555 113.085C865.555 109.79 864.915 106.935 863.637 104.52C862.387 102.105 860.413 100.259 857.714 98.9801C855.043 97.6733 851.535 97.0199 847.188 97.0199H830.654V173H817.487ZM860.569 133.625L882.131 173H867.131L845.995 133.625H860.569Z" fill="white"/>
<defs>
<linearGradient id="paint0_linear_258_1961" x1="74.277" y1="137.651" x2="74.277" y2="267.579" gradientUnits="userSpaceOnUse">
<stop stop-color="#1F80DE"/>
<stop offset="1" stop-color="#275D91"/>
</linearGradient>
<linearGradient id="paint1_linear_258_1961" x1="189.44" y1="0" x2="189.44" y2="129.928" gradientUnits="userSpaceOnUse">
<stop stop-color="#1F80DE"/>
<stop offset="1" stop-color="#275D91"/>
</linearGradient>
<linearGradient id="paint2_linear_258_1961" x1="179.925" y1="137.579" x2="197.155" y2="208.152" gradientUnits="userSpaceOnUse">
<stop stop-color="#F17C0F"/>
<stop offset="1" stop-color="#C87500" stop-opacity="0.73"/>
</linearGradient>
<linearGradient id="paint3_linear_258_1961" x1="49.7452" y1="59.5127" x2="68.144" y2="129.928" gradientUnits="userSpaceOnUse">
<stop stop-color="#F17C0F"/>
<stop offset="1" stop-color="#C87500" stop-opacity="0.73"/>
</linearGradient>
</defs>
</svg>
