<svg width="250" height="92" viewBox="0 0 250 92" fill="none" xmlns="http://www.w3.org/2000/svg">
<rect width="250" height="92" rx="4" fill="#4FBD1C"/>
<rect x="2.25" y="4.25" width="245.5" height="84.5" rx="2.75" stroke="white" stroke-opacity="0.53" stroke-width="0.5"/>
<path d="M15.698 60.1038C16.0138 60.0108 16.3282 59.9114 16.6459 59.8269C16.8233 59.7798 16.8689 59.6398 16.9134 59.4851C17.0077 59.1589 17.1071 58.8342 17.2351 58.4062C17.4495 58.7746 17.6206 59.0448 17.7674 59.3284C17.8727 59.5314 18.0064 59.6283 18.2323 59.615C18.5008 59.5993 18.7708 59.6119 19.0778 59.6124C19.0062 59.9564 18.807 60.174 18.6371 60.391C18.4315 60.6531 18.3996 60.9042 18.5017 61.214C18.5921 61.4896 18.6459 61.7782 18.7378 62.1497C18.4063 62.0091 18.1507 61.9242 17.9173 61.7952C17.6788 61.6632 17.501 61.7085 17.3105 61.889C17.113 62.0762 16.8933 62.2376 16.6143 62.4673C16.6147 62.0483 16.6006 61.7121 16.6201 61.3776C16.6345 61.1338 16.5717 60.9618 16.3802 60.8123C16.1403 60.6253 15.9243 60.4047 15.6979 60.1986L15.698 60.1038Z" fill="#368E0E"/>
<path d="M83.8488 13.4343C83.2898 12.9209 82.7308 12.408 82.1627 11.8863C81.4732 12.1374 80.7983 12.3831 80.066 12.6501C80.1026 12.4764 80.1187 12.3578 80.1528 12.2452C80.3311 11.6597 80.5083 11.0738 80.6976 10.4923C80.7662 10.2813 80.7488 10.1106 80.6283 9.9192C80.2571 9.3289 79.905 8.72521 79.5136 8.07352C79.6581 8.05856 79.7521 8.03739 79.8451 8.04109C80.3554 8.0616 80.8663 8.07798 81.3755 8.11665C81.6284 8.13637 81.7892 8.05671 81.9257 7.82214C82.2231 7.311 82.55 6.81885 82.8661 6.32017C82.9067 6.25591 82.9545 6.19659 83.0343 6.08603C83.0877 6.21929 83.1346 6.30618 83.158 6.39954C83.3067 6.99403 83.4583 7.58793 83.592 8.18655C83.6488 8.44056 83.7654 8.59089 84.0082 8.67867C84.5887 8.88909 85.1594 9.1287 85.8037 9.38441C85.4377 9.679 85.1186 9.93145 84.8041 10.1904C84.5216 10.4232 84.1448 10.6091 83.9934 10.9156C83.8507 11.205 83.9436 11.6246 83.94 11.9871C83.9356 12.4541 83.9381 12.9211 83.9376 13.3885C83.9079 13.4038 83.8784 13.419 83.8488 13.4343Z" fill="#368E0E"/>
<path d="M74.492 30.5232C75.1217 30.7808 75.67 30.9898 76.2057 31.231C76.4446 31.3385 76.6165 31.3198 76.8127 31.1364C77.1821 30.7907 77.5728 30.4697 77.9565 30.1408C78.0464 30.0636 78.144 29.9969 78.2882 29.887C78.2982 30.0749 78.3129 30.2077 78.3108 30.3401C78.3018 30.9231 78.2974 31.5065 78.271 32.0887C78.2606 32.3173 78.3254 32.4719 78.4969 32.6128C79.0036 33.0289 79.4994 33.4596 80.0586 33.935C79.5389 34.122 79.0892 34.3253 78.6196 34.4412C78.1018 34.5687 77.8439 34.8555 77.749 35.4096C77.654 35.9639 77.4608 36.4992 77.2865 37.1311C77.1678 36.9468 77.0841 36.825 77.0083 36.698C76.7459 36.257 76.4707 35.8231 76.2316 35.3684C76.0871 35.0933 75.903 35.0072 75.6136 35.0182C75.0602 35.0397 74.5055 35.023 73.9016 35.0221C73.9566 34.8929 73.9847 34.7933 74.0368 34.7108C74.3271 34.2511 74.6104 33.7859 74.9222 33.3427C75.0997 33.0906 75.1417 32.8604 75.0431 32.5602C74.877 32.0542 74.7481 31.5351 74.6064 31.0206C74.5699 30.8881 74.5441 30.7525 74.492 30.5232Z" fill="#368E0E"/>
<path d="M44.4601 45.3792C44.0256 44.7837 43.6441 44.2967 43.3034 43.7798C43.1291 43.5156 42.9341 43.4608 42.656 43.503C42.1234 43.5841 41.5874 43.6422 40.9946 43.7173C41.0425 43.5668 41.0601 43.4674 41.1032 43.3824C41.358 42.8825 41.6092 42.3795 41.8813 41.89C42.0067 41.6639 42.0202 41.4676 41.9202 41.2256C41.7054 40.7056 41.5175 40.1731 41.3207 39.645C41.284 39.5459 41.2565 39.4429 41.2011 39.2656C41.7158 39.4059 42.1879 39.4917 42.6282 39.6662C43.0861 39.8476 43.403 39.7716 43.7165 39.3674C44.0336 38.9587 44.4207 38.61 44.8486 38.1602C44.8879 38.6646 44.9166 39.065 44.9508 39.4646C44.984 39.8563 44.9209 40.3072 45.0884 40.6216C45.2457 40.9168 45.6477 41.0703 45.9451 41.2811C46.2404 41.4905 46.5397 41.6938 46.889 41.9354C46.3013 42.2252 45.7792 42.4947 45.2464 42.7387C45.0027 42.8504 44.8789 43.0011 44.8369 43.2895C44.7398 43.9545 44.6011 44.6133 44.4601 45.3792Z" fill="#368E0E"/>
<path d="M59.9345 22.3382C59.3963 22.2366 58.9578 22.1542 58.5197 22.0709C58.4755 22.0623 58.4314 22.0504 58.3891 22.035C58.0339 21.9042 57.7784 22.0034 57.5438 22.3302C57.2223 22.778 56.8465 23.1827 56.4551 23.652C56.4111 23.4819 56.3738 23.3828 56.3606 23.2804C56.2905 22.7341 56.215 22.1885 56.1651 21.6403C56.1413 21.377 56.0421 21.2102 55.8163 21.09C55.4022 20.8696 54.9989 20.6259 54.5929 20.3887C54.4905 20.3286 54.395 20.256 54.2556 20.1615C54.7864 19.8504 55.2731 19.5459 55.7773 19.2775C56.0379 19.1388 56.1421 18.9492 56.1676 18.6539C56.2163 18.09 56.2941 17.5284 56.3635 16.9664C56.3724 16.894 56.4035 16.8244 56.4435 16.6885C56.9428 17.2834 57.4051 17.8338 57.8718 18.3901C58.5341 18.2611 59.1773 18.1358 59.9116 17.9929C59.8072 18.2467 59.7422 18.4147 59.6701 18.5792C59.4819 19.0082 59.3029 19.4422 59.0958 19.8608C58.9862 20.0818 59.0004 20.2623 59.1022 20.4787C59.3733 21.0557 59.625 21.6426 59.9345 22.3382Z" fill="#368E0E"/>
<path d="M67.2572 4.67924C67.4053 4.80692 67.5519 4.93045 67.6955 5.05754C67.9715 5.30124 68.2559 5.53627 68.5176 5.79593C68.716 5.99334 68.9006 6.04295 69.1604 5.92102C69.5297 5.74777 69.916 5.6144 70.2964 5.46858C70.4173 5.4224 70.5433 5.39064 70.7354 5.33056C70.5613 5.93383 70.4361 6.48273 70.2422 7.0031C70.0871 7.41956 70.1433 7.73869 70.3962 8.08712C70.703 8.50942 70.9595 8.97169 71.2857 9.49406C70.7957 9.4933 70.3849 9.4976 69.9744 9.49086C69.2468 9.47809 69.2468 9.47513 68.8475 10.1315C68.606 10.5285 68.3649 10.9253 68.0865 11.3838C68.0252 11.2164 67.9776 11.1123 67.9482 11.0026C67.8109 10.4864 67.6675 9.97108 67.5495 9.45022C67.4941 9.20568 67.3763 9.07883 67.1499 9.00449C66.7348 8.86811 66.3285 8.70175 65.9194 8.54604C65.8122 8.50523 65.7072 8.45772 65.5307 8.38326C65.74 8.20582 65.8982 8.06953 66.058 7.9362C66.2226 7.79854 66.3888 7.66365 66.5545 7.52737C67.1961 7.00038 67.1947 7.00038 67.1863 6.12356C67.1819 5.68259 67.1827 5.24083 67.1843 4.79947C67.1844 4.77422 67.2135 4.74921 67.2572 4.67924Z" fill="#368E0E"/>
<path d="M77.2616 20.1563C77.8008 20.047 78.2662 19.9394 78.7364 19.8638C79.0185 19.8182 79.1806 19.6912 79.2807 19.3982C79.4609 18.8705 79.686 18.36 79.9226 17.7665C80.1871 18.3547 80.428 18.86 80.6407 19.378C80.7478 19.6384 80.8901 19.7645 81.1706 19.7884C81.6437 19.8288 82.1126 19.9213 82.6448 20.0012C82.5266 20.1642 82.4429 20.287 82.3516 20.403C82.237 20.5487 82.1339 20.7119 81.9953 20.8275C81.4008 21.3233 81.3077 21.9368 81.5284 22.6668C81.6262 22.9907 81.6402 23.3421 81.7057 23.7676C81.1003 23.4227 80.5659 23.1183 80.0213 22.8081C79.4929 23.1492 78.9745 23.4844 78.3792 23.869C78.4516 23.2705 78.488 22.7566 78.5823 22.2546C78.6602 21.8404 78.5747 21.5376 78.2719 21.253C77.9295 20.9311 77.6289 20.5595 77.2616 20.1563Z" fill="#368E0E"/>
<path d="M27.9439 24.1185C27.9694 24.3346 27.9923 24.4822 28.0033 24.6308C28.0349 25.055 28.0766 25.4793 28.0848 25.9043C28.0897 26.1581 28.192 26.3038 28.3901 26.4306C28.8109 26.6992 29.2193 26.9901 29.7067 27.3223C29.2405 27.5514 28.8494 27.7677 28.4411 27.9369C28.113 28.0727 27.9477 28.2767 27.9063 28.6559C27.8518 29.1546 27.7331 29.6463 27.6318 30.1974C27.5327 30.1051 27.4519 30.0495 27.3958 29.9744C27.1273 29.6141 26.8592 29.2539 26.6044 28.8831C26.4868 28.7117 26.3634 28.6371 26.1525 28.6687C25.6652 28.7416 25.174 28.7864 24.6046 28.8516C24.7104 28.6342 24.7893 28.4741 24.8669 28.3128C25.082 27.865 25.2963 27.4169 25.511 26.9693C25.3458 26.5135 25.1799 26.0579 25.0155 25.6018C24.9596 25.4469 24.9068 25.2905 24.8235 25.0511C25.1366 25.1287 25.3652 25.1819 25.5923 25.2425C25.8249 25.3044 26.0594 25.362 26.2861 25.4428C26.4978 25.5179 26.6523 25.4743 26.8048 25.2992C27.0679 24.9971 27.3496 24.7126 27.6258 24.4232C27.7088 24.3358 27.799 24.2566 27.9439 24.1185Z" fill="#368E0E"/>
<path d="M11.6938 52.9667C11.2873 52.6125 10.939 52.362 10.6556 52.0474C10.366 51.7264 10.0913 51.724 9.73941 51.8917C9.3745 52.0658 8.99009 52.1952 8.53047 52.3774C8.66817 51.8844 8.787 51.4696 8.90019 51.0531C9.13205 50.1983 9.19391 50.5052 8.7141 49.723C8.50608 49.3839 8.29656 49.0458 8.04821 48.6429C8.52962 48.6436 8.93252 48.6083 9.32688 48.6551C9.71335 48.7007 9.93786 48.5617 10.1192 48.2132C10.3391 47.7903 10.6065 47.3949 10.9064 46.9002C11.0612 47.487 11.2121 47.9611 11.3065 48.4472C11.3818 48.8355 11.5732 49.0362 11.9301 49.1396C12.328 49.2548 12.7124 49.4227 13.1907 49.6004C12.8702 49.8667 12.6362 50.1138 12.3584 50.2806C11.7944 50.6201 11.5984 51.0987 11.6868 51.7639C11.7336 52.1172 11.6943 52.4829 11.6938 52.9667Z" fill="#368E0E"/>
<path d="M47.012 31.5252C47.076 30.9555 47.1175 30.4698 47.1896 29.9894C47.2307 29.7133 47.173 29.5084 46.9727 29.3196C46.65 29.0155 46.3462 28.6895 46.0068 28.3442C46.2757 28.1545 46.5315 28.1525 46.7696 28.1004C47.6193 27.9134 47.6191 27.9166 47.9393 27.0671C48.048 26.7788 48.1633 26.4931 48.3071 26.1265C48.5347 26.6118 48.7466 27.0076 48.9071 27.4249C49.0312 27.7475 49.2268 27.8806 49.5457 27.9008C49.9192 27.9245 50.2906 27.9846 50.7176 28.0356C50.638 28.1643 50.5859 28.2688 50.5162 28.3579C50.2784 28.6626 50.0402 28.9672 49.7903 29.2608C49.6571 29.4175 49.6233 29.5725 49.671 29.778C49.7526 30.1295 49.8093 30.4875 49.8704 30.8438C49.896 30.9935 49.9056 31.1457 49.9309 31.3748C49.4077 31.0873 48.9472 30.8342 48.4637 30.5689C48.0019 30.8732 47.538 31.1789 47.012 31.5252Z" fill="#368E0E"/>
<path d="M71.2618 27.0648C71.4754 26.6277 71.6513 26.2305 71.8599 25.853C72.0011 25.5979 72.0231 25.3767 71.8943 25.1044C71.7085 24.7106 71.5641 24.2956 71.3906 23.8612C71.7278 23.7974 71.9989 23.9537 72.2831 24.0104C73.0129 24.1558 72.8104 24.2845 73.3575 23.6758C73.5718 23.4374 73.787 23.1997 74.0759 22.8793C74.1211 23.3601 74.181 23.7408 74.1866 24.1224C74.1927 24.5562 74.3214 24.8652 74.7197 25.0576C75.0281 25.2067 75.3059 25.4256 75.6601 25.654C75.2374 25.8773 74.8898 26.0844 74.524 26.2458C74.2687 26.3583 74.1633 26.5359 74.1275 26.8092C74.0686 27.2612 73.9867 27.7096 73.8963 28.2734C73.7064 28.0276 73.5707 27.8536 73.4364 27.678C73.2857 27.4812 73.1306 27.2878 72.9882 27.0845C72.8769 26.9255 72.752 26.8785 72.5622 26.9163C72.2235 26.9836 71.8787 27.0188 71.5361 27.0639C71.4674 27.0731 71.3965 27.0651 71.2618 27.0648Z" fill="#368E0E"/>
<path d="M56.9597 34.5743C57.1956 35.0433 57.4006 35.4049 57.5621 35.7866C57.6954 36.1015 57.8891 36.2346 58.2172 36.2332C58.5606 36.2319 58.9042 36.2853 59.3343 36.3219C59.1933 36.5206 59.0936 36.6657 58.9894 36.8072C58.8607 36.9822 58.7406 37.1661 58.5952 37.3244C58.3536 37.5872 58.287 37.8614 58.3969 38.2223C58.515 38.6096 58.5698 39.0184 58.6719 39.5128C58.3808 39.3745 58.1459 39.2648 57.9128 39.1512C57.0542 38.7337 57.3761 38.7136 56.6089 39.249C56.3891 39.4024 56.1714 39.5591 55.8826 39.7643C55.9237 39.2164 55.9409 38.7627 55.9974 38.3149C56.0355 38.0128 55.9424 37.8098 55.7276 37.6187C55.4312 37.355 55.1585 37.0622 54.8156 36.7218C55.2308 36.6088 55.5793 36.4858 55.9371 36.4238C56.2631 36.3675 56.4285 36.1961 56.5196 35.8718C56.632 35.47 56.7854 35.0809 56.9597 34.5743Z" fill="#368E0E"/>
<path d="M50.7389 10.4207C51.1222 10.4213 51.417 10.3961 51.7062 10.4283C52.0971 10.4721 52.3582 10.352 52.533 9.96075C52.6775 9.63776 52.8882 9.34782 53.1318 8.93894C53.2462 9.35074 53.3569 9.65242 53.4112 9.96506C53.4979 10.4627 53.7064 10.7909 54.2225 10.873C54.4832 10.9143 54.73 11.0508 55.0547 11.1711C54.7297 11.4533 54.4572 11.7169 54.1582 11.9414C53.8983 12.1364 53.8002 12.3667 53.8233 12.7004C53.8503 13.0918 53.8289 13.487 53.8284 13.912C53.5804 13.8712 53.4192 13.6902 53.286 13.5287C52.8561 13.0089 52.3894 12.9344 51.8338 13.2868C51.6825 13.3826 51.4998 13.4244 51.3299 13.4865C51.3083 13.4943 51.2775 13.4745 51.2082 13.4567C51.3246 13.0371 51.4304 12.615 51.5609 12.2016C51.6388 11.9553 51.6166 11.7568 51.465 11.5442C51.2256 11.2074 51.0139 10.8495 50.7389 10.4207Z" fill="#368E0E"/>
<path d="M9.58045 64.2628C9.91791 64.4335 10.2573 64.5887 10.5802 64.7741C10.7926 64.8962 10.9596 64.8933 11.1547 64.7349C11.4486 64.4966 11.7622 64.2855 12.1569 63.9979C12.1348 64.3424 12.121 64.5843 12.1031 64.8258C12.088 65.0304 12.0804 65.2368 12.047 65.4382C12.0059 65.6862 12.0984 65.8536 12.2699 66.0135C12.5601 66.2835 12.8328 66.574 13.1682 66.9116C12.7337 67.0279 12.3677 67.142 11.9949 67.2196C11.7731 67.266 11.6606 67.3828 11.5914 67.6006C11.4593 68.0169 11.3063 68.4259 11.1283 68.9342C10.9018 68.4871 10.7047 68.1272 10.5355 67.7536C10.4281 67.5171 10.2988 67.3855 10.0282 67.3817C9.67197 67.3766 9.31616 67.3174 8.87673 67.2732C9.05757 67.0213 9.20115 66.8127 9.353 66.6113C9.86292 65.9356 9.86329 65.9368 9.68064 65.088C9.63091 64.8575 9.58663 64.6255 9.54367 64.3934C9.53881 64.3672 9.55895 64.336 9.58045 64.2628Z" fill="#368E0E"/>
<path d="M100.01 6.19393C99.6386 6.45028 99.333 6.67713 99.012 6.87692C98.8101 7.00231 98.7186 7.15312 98.7131 7.40589C98.704 7.82915 98.6554 8.25096 98.6162 8.76928C98.2192 8.36691 97.8714 8.01473 97.5161 7.65465C97.063 7.77906 96.6203 7.90052 96.0965 8.04416C96.2663 7.5882 96.3881 7.2036 96.5522 6.84037C96.6765 6.5651 96.6474 6.34384 96.4981 6.09301C96.3021 5.76297 96.1407 5.4103 95.9275 4.99538C96.3422 5.03963 96.6822 5.06068 97.017 5.11625C97.289 5.16166 97.4655 5.07077 97.6178 4.83243C97.8164 4.52135 98.047 4.23262 98.3306 3.84255C98.4195 4.31627 98.5091 4.68818 98.5542 5.06573C98.5939 5.3979 98.7239 5.60549 99.0345 5.72219C99.3435 5.83771 99.6336 6.00845 100.01 6.19393Z" fill="#368E0E"/>
<path d="M35.6996 21.6605C35.328 21.5822 35.0395 21.5579 34.7773 21.4578C34.4326 21.3265 34.2151 21.4404 34.0072 21.7246C33.8262 21.9722 33.6053 22.1875 33.3309 22.4977C33.2804 22.0607 33.2116 21.7127 33.2071 21.3641C33.2025 21.0008 33.0631 20.7837 32.7545 20.6311C32.4755 20.4929 32.2192 20.3039 31.9098 20.1104C32.2764 19.9048 32.5876 19.716 32.9111 19.5537C33.11 19.454 33.1966 19.3152 33.2199 19.0848C33.2606 18.6839 33.3352 18.2868 33.4119 17.7827C33.6991 18.1417 33.9418 18.4154 34.1504 18.7158C34.2975 18.9274 34.4639 18.9782 34.6938 18.9294C35.0153 18.861 35.3399 18.81 35.7516 18.7355C35.5539 19.1647 35.4013 19.5313 35.2183 19.8803C35.1049 20.097 35.1027 20.2783 35.2082 20.4985C35.3756 20.848 35.5128 21.2137 35.6996 21.6605Z" fill="#368E0E"/>
<path d="M33.3481 49.5713C33.6579 49.3997 33.8975 49.2341 34.1591 49.1309C34.4866 49.0018 34.6155 48.7717 34.642 48.4219C34.6664 48.0985 34.7331 47.7788 34.7978 47.3473C35.0733 47.695 35.3019 47.9588 35.502 48.2447C35.6469 48.4513 35.7975 48.5085 36.0388 48.4475C36.3373 48.372 36.6485 48.3524 37.0268 48.2981C36.8354 48.7088 36.6904 49.0526 36.5175 49.3801C36.4111 49.5818 36.4151 49.755 36.5071 49.9572C36.6612 50.2961 36.7954 50.6453 36.973 51.0764C36.6832 51.0136 36.4613 50.9929 36.2588 50.9162C35.8415 50.7583 35.5175 50.8218 35.2602 51.2326C35.1305 51.4392 34.9424 51.6054 34.743 51.8328C34.6252 51.4566 34.5953 51.1183 34.5886 50.786C34.5814 50.4468 34.4631 50.2315 34.1699 50.0839C33.9048 49.9504 33.6614 49.7695 33.3481 49.5713Z" fill="#368E0E"/>
<path d="M23.0501 17.7083C23.2712 18.0891 23.4501 18.3765 23.6072 18.6763C23.6993 18.8521 23.8189 18.9176 24.0047 18.9109C24.2977 18.8999 24.5908 18.9087 24.9831 18.9093C24.7497 19.2671 24.5869 19.5443 24.397 19.7991C24.2518 19.9941 24.2275 20.1807 24.2996 20.4117C24.3968 20.7228 24.4667 21.043 24.5747 21.4611C24.148 21.283 23.799 21.1377 23.4204 20.98C23.113 21.2288 22.8 21.4824 22.4476 21.7678C22.4481 21.3532 22.4366 21.0134 22.4527 20.675C22.4639 20.4489 22.4 20.2909 22.225 20.1527C21.9765 19.9572 21.7465 19.7347 21.4624 19.4822C21.7058 19.3972 21.8845 19.3086 22.0719 19.2746C22.5062 19.1959 22.7601 18.9611 22.8252 18.4884C22.8569 18.259 22.952 18.0387 23.0501 17.7083Z" fill="#368E0E"/>
<path d="M15.6768 77.0322C15.3468 77.0889 15.1004 77.1365 14.8522 77.172C14.6426 77.2021 14.499 77.2918 14.4198 77.5168C14.3216 77.7955 14.1876 78.0603 14.0369 78.4042C13.9 78.0887 13.7662 77.8458 13.6885 77.5842C13.598 77.278 13.408 77.168 13.1285 77.1386C12.9205 77.1167 12.7152 77.0649 12.4807 77.0211C12.5508 76.7355 12.7631 76.5737 12.9369 76.4042C13.1754 76.1714 13.2369 75.9216 13.1681 75.6003C13.1161 75.3567 13.0978 75.1049 13.0594 74.8183C13.2775 74.8333 13.4029 74.9734 13.5495 75.0553C13.708 75.1437 13.8597 75.2452 14.0492 75.3625C14.3605 75.1793 14.6824 74.9897 15.0697 74.7618C15.0112 75.1463 14.9741 75.4547 14.9153 75.7585C14.8726 75.9794 14.9158 76.1521 15.0684 76.3152C15.2643 76.5246 15.442 76.7534 15.6768 77.0322Z" fill="#368E0E"/>
<path d="M10.7394 83.3522C10.8255 83.6732 10.9019 83.9227 10.9574 84.1772C11.0058 84.3992 11.1107 84.5336 11.3301 84.5931C11.5438 84.6513 11.7472 84.7514 12.024 84.8604C11.8036 85.0448 11.6389 85.1966 11.4604 85.328C11.2587 85.4763 11.1578 85.6504 11.1889 85.9235C11.2164 86.1661 11.1942 86.4147 11.1938 86.7687C10.8724 86.4953 10.6327 86.2917 10.3676 86.0663C10.0829 86.1712 9.78947 86.2793 9.469 86.3972C9.40407 86.1467 9.51458 85.9489 9.58599 85.7598C9.70772 85.4366 9.69767 85.1607 9.46987 84.8894C9.34452 84.7404 9.25942 84.5544 9.12307 84.331C9.29613 84.3157 9.41304 84.2784 9.51842 84.3007C9.98972 84.4012 10.2862 84.1949 10.4765 83.7539C10.5292 83.6305 10.6231 83.5266 10.7394 83.3522Z" fill="#368E0E"/>
<path d="M24.1401 56.4562C23.869 56.6756 23.6322 56.8674 23.3945 57.0575C23.3877 57.0628 23.3684 57.0502 23.3209 57.0355C23.3165 56.9283 23.2895 56.8042 23.3102 56.6892C23.4101 56.1338 23.1949 55.7538 22.7414 55.4897C22.6655 55.4454 22.6055 55.3701 22.4869 55.2624C22.7117 55.1731 22.8912 55.0771 23.0818 55.032C23.3716 54.9628 23.5082 54.7817 23.5579 54.4862C23.5939 54.2725 23.6623 54.0648 23.747 53.7338C23.9274 54.024 24.0642 54.2172 24.1726 54.4269C24.287 54.6483 24.4326 54.7462 24.6803 54.7119C24.8799 54.6843 25.0856 54.707 25.3565 54.7074C25.2116 54.9511 25.121 55.1494 24.991 55.3126C24.7912 55.5623 24.7821 55.8115 24.8938 56.1008C24.9706 56.2994 25.0106 56.514 25.0895 56.804C24.7348 56.6738 24.4446 56.5678 24.1401 56.4562Z" fill="#368E0E"/>
<path d="M106.628 11.0032C106.756 10.7482 106.832 10.5611 106.938 10.3951C107.079 10.1739 107.078 9.96746 106.967 9.73384C106.882 9.55314 106.828 9.35572 106.73 9.07988C106.971 9.14005 107.158 9.1652 107.328 9.23433C107.542 9.3213 107.7 9.2799 107.842 9.09738C107.965 8.94088 108.099 8.79446 108.299 8.55954C108.336 8.79266 108.376 8.90541 108.367 9.01373C108.326 9.4861 108.476 9.83247 108.908 10.0257C108.998 10.0661 109.072 10.1481 109.196 10.2441C109.018 10.3421 108.885 10.4395 108.738 10.4906C108.448 10.5908 108.297 10.7775 108.277 11.1032C108.266 11.2865 108.208 11.4668 108.153 11.7424C107.994 11.532 107.867 11.386 107.766 11.2224C107.629 11.0028 107.473 10.8895 107.207 10.9625C107.053 11.0052 106.883 10.988 106.628 11.0032Z" fill="#368E0E"/>
<path d="M86.5264 37.2082C86.7241 37.3299 86.8388 37.4001 86.9531 37.471C87.0558 37.5345 87.158 37.5992 87.2946 37.6846C87.5155 37.5646 87.7498 37.4373 88.0569 37.2702C88.0361 37.475 88.0393 37.623 88.0031 37.7595C87.9163 38.0876 87.9413 38.3712 88.2056 38.6082C88.3053 38.6975 88.376 38.8224 88.5084 38.9937C88.2998 39.0336 88.1371 39.0837 87.9725 39.0917C87.7519 39.1026 87.6109 39.1916 87.5308 39.4137C87.4651 39.5969 87.3702 39.768 87.2513 40.024C87.0975 39.6729 86.9813 39.4083 86.8602 39.1322C86.6061 39.0681 86.3504 39.0038 86.0191 38.9202C86.1703 38.7509 86.2676 38.617 86.388 38.5126C86.6114 38.319 86.6628 38.0838 86.6041 37.7982C86.5699 37.6318 86.5586 37.4605 86.5264 37.2082Z" fill="#368E0E"/>
<path d="M95.5177 18.8015C95.209 18.8588 94.9485 18.9072 94.6715 18.9589C94.545 19.2184 94.4165 19.4824 94.2471 19.8306C94.1532 19.6049 94.0712 19.4485 94.0228 19.2815C93.9434 19.009 93.7878 18.8612 93.5128 18.8371C93.3668 18.8244 93.2237 18.7757 93.0163 18.7288C93.1758 18.55 93.2868 18.4046 93.4183 18.2838C93.5928 18.1232 93.6623 17.9473 93.6098 17.7006C93.5681 17.5042 93.57 17.2977 93.553 17.0978C93.6018 17.0904 93.6353 17.0733 93.655 17.0842C93.879 17.2059 94.0992 17.4254 94.3241 17.4303C94.5478 17.4354 94.7758 17.2262 95.0796 17.0714C95.046 17.3097 95.0464 17.4946 94.9912 17.6585C94.8915 17.9553 94.9799 18.1721 95.1796 18.3771C95.2939 18.4939 95.3866 18.6347 95.5177 18.8015Z" fill="#368E0E"/>
<path d="M26.4155 44.6947C26.2566 44.8971 26.1534 45.0493 26.0302 45.1806C25.8681 45.3532 25.8031 45.5317 25.8751 45.7767C25.9311 45.9666 25.9408 46.1717 25.983 46.4486C25.6775 46.2867 25.4413 46.1616 25.2002 46.0338C24.962 46.1818 24.7343 46.3233 24.4466 46.5023C24.4653 46.2525 24.4565 46.0634 24.4979 45.8876C24.5686 45.5854 24.4706 45.3729 24.2538 45.1849C24.141 45.0871 24.0519 44.9587 23.9083 44.7941C24.1049 44.7488 24.2457 44.7058 24.3894 44.6851C24.6501 44.6478 24.8285 44.5287 24.8996 44.2434C24.9406 44.0793 25.0223 43.9263 25.1248 43.6715C25.2402 43.9112 25.3376 44.0754 25.4007 44.2529C25.4925 44.5112 25.656 44.619 25.914 44.6186C26.0577 44.6182 26.2014 44.6604 26.4155 44.6947Z" fill="#368E0E"/>
<path d="M17.5315 31.7033C18.1022 31.9524 18.4748 31.7405 18.7944 31.1903C18.8415 31.4069 18.8944 31.5213 18.885 31.63C18.8519 32.0189 19.0339 32.2454 19.3509 32.3944C19.4279 32.4309 19.4921 32.4975 19.5985 32.5776C19.3543 32.7331 19.0793 32.8199 18.9512 33.0143C18.8177 33.216 18.8259 33.5215 18.763 33.8261C18.6763 33.7457 18.5854 33.692 18.537 33.611C18.3483 33.2942 18.1114 33.146 17.7514 33.2891C17.6761 33.319 17.5806 33.2932 17.4221 33.293C17.8234 32.7815 17.8487 32.2727 17.5315 31.7033Z" fill="#368E0E"/>
<path d="M39.2835 13.0957C39.5036 12.4853 39.4726 11.982 38.8782 11.5564C39.1174 11.5142 39.2375 11.4749 39.3574 11.4759C39.6176 11.478 39.775 11.3579 39.8624 11.1015C39.9109 10.9591 39.9956 10.8305 40.091 10.6418C40.2149 10.9404 40.3153 11.1825 40.4214 11.4376C40.6445 11.5011 40.8697 11.5654 41.1422 11.6432C40.9575 11.877 40.7369 12.0523 40.66 12.2809C40.581 12.5162 40.642 12.8034 40.6416 13.1067C40.4261 12.9915 40.2228 12.8012 40.0139 12.7943C39.8026 12.7873 39.5859 12.9616 39.2835 13.0957Z" fill="#368E0E"/>
<path d="M19.7828 43.0015C19.5298 42.8851 19.3279 42.7919 19.1072 42.6905C18.9142 42.8165 18.716 42.946 18.5193 43.0741C18.4876 43.0259 18.4602 43.0032 18.46 42.9803C18.4594 42.7316 18.526 42.4577 18.4473 42.2415C18.3705 42.0303 18.1463 41.8783 17.9614 41.6721C18.2223 41.5707 18.4926 41.5417 18.6444 41.3857C18.801 41.225 18.8422 40.9402 18.9336 40.7101C18.9654 40.7214 19.009 40.7229 19.0161 40.7408C19.1964 41.1877 19.4629 41.5002 19.9769 41.4477C19.997 41.4454 20.0212 41.4849 20.0554 41.5155C19.9204 41.7349 19.7159 41.9407 19.6683 42.1809C19.6214 42.4189 19.7324 42.6913 19.7828 43.0015Z" fill="#368E0E"/>
<path d="M31.2062 36.9784C31.4689 37.1012 31.6814 37.2752 31.8969 37.2795C32.0891 37.2829 32.2847 37.0991 32.5775 36.9462C32.3461 37.5774 32.4388 38.047 32.9614 38.4196C32.6532 38.5074 32.3836 38.5113 32.2185 38.6515C32.0502 38.7942 31.9855 39.0709 31.8503 39.3379C31.7264 39.0804 31.667 38.8048 31.5029 38.6595C31.3389 38.5138 31.0702 38.4984 30.8122 38.4145C30.9774 38.1928 31.1938 38.0107 31.2615 37.7803C31.326 37.561 31.235 37.2913 31.2062 36.9784Z" fill="#368E0E"/>
<path d="M39.0005 27.137C38.7745 27.0162 38.5838 26.8413 38.3831 26.8278C38.1986 26.8152 38.0032 26.9757 37.8122 27.0606C37.7943 27.0296 37.7649 27.0004 37.77 26.983C37.9176 26.4818 37.8616 26.0338 37.3777 25.6616C37.6846 25.5869 37.9447 25.591 38.1157 25.4631C38.2787 25.3414 38.3489 25.0827 38.4935 24.8247C38.6129 25.0989 38.6619 25.3696 38.8169 25.521C38.9624 25.663 39.2201 25.679 39.4737 25.7664C39.3037 25.9713 39.0916 26.1301 39.0183 26.3419C38.9425 26.5609 39.0008 26.8315 39.0005 27.137Z" fill="#368E0E"/>
<path d="M65.2736 33.5918C65.4878 33.8664 65.5946 34.1013 65.7708 34.2008C65.9355 34.294 66.1741 34.2428 66.4169 34.2576C66.2999 34.5042 66.1347 34.7168 66.1085 34.9468C66.0844 35.1592 66.2095 35.3904 66.2853 35.6754C66.0409 35.6115 65.8455 35.5605 65.629 35.5039C65.4757 35.6353 65.3147 35.7729 65.1001 35.9565C65.0724 35.6739 65.107 35.4053 65.0093 35.2096C64.9077 35.0063 64.6774 34.8734 64.4398 34.6497C65.0209 34.5729 65.2619 34.2253 65.2736 33.5918Z" fill="#368E0E"/>
<path d="M118.59 9.73414C118.461 9.93298 118.279 10.1094 118.229 10.3204C118.181 10.5293 118.268 10.7726 118.3 11.0439C118.074 10.9422 117.897 10.8626 117.712 10.7797C117.543 10.8822 117.377 10.9827 117.168 11.1088C117.168 10.8443 117.223 10.5996 117.153 10.4038C117.081 10.1985 116.889 10.0396 116.707 9.80659C117.228 9.78767 117.508 9.51766 117.571 9.00231C118.137 9.62397 118.137 9.62396 118.59 9.73414Z" fill="#368E0E"/>
<path d="M234.954 31.4497C234.623 31.5449 234.293 31.6465 233.959 31.7331C233.773 31.7813 233.725 31.9246 233.679 32.0828C233.58 32.4167 233.476 32.749 233.341 33.187C233.116 32.81 232.937 32.5335 232.783 32.2432C232.672 32.0354 232.532 31.9363 232.295 31.9498C232.013 31.966 231.73 31.953 231.408 31.9525C231.483 31.6004 231.692 31.3778 231.87 31.1557C232.086 30.8874 232.119 30.6304 232.012 30.3134C231.917 30.0313 231.861 29.7359 231.765 29.3557C232.112 29.4996 232.381 29.5865 232.625 29.7185C232.876 29.8536 233.062 29.8073 233.262 29.6226C233.469 29.431 233.7 29.2658 233.992 29.0308C233.992 29.4595 234.007 29.8037 233.986 30.146C233.971 30.3956 234.037 30.5716 234.238 30.7245C234.49 30.916 234.716 31.1417 234.954 31.3527L234.954 31.4497Z" fill="#368E0E"/>
<path d="M163.456 79.211C164.043 79.7365 164.629 80.2614 165.225 80.7954C165.949 80.5385 166.657 80.287 167.425 80.0137C167.387 80.1916 167.37 80.3129 167.334 80.4281C167.147 81.0274 166.961 81.627 166.762 82.2222C166.69 82.4382 166.709 82.6129 166.835 82.8088C167.225 83.4129 167.594 84.0308 168.005 84.6978C167.853 84.7131 167.754 84.7348 167.657 84.731C167.121 84.71 166.585 84.6932 166.051 84.6536C165.786 84.6334 165.617 84.7149 165.474 84.955C165.162 85.4781 164.819 85.9818 164.488 86.4922C164.445 86.558 164.395 86.6187 164.311 86.7318C164.255 86.5955 164.206 86.5065 164.181 86.411C164.025 85.8025 163.866 85.1947 163.726 84.582C163.666 84.322 163.544 84.1681 163.289 84.0783C162.68 83.8629 162.082 83.6176 161.406 83.3559C161.79 83.0544 162.124 82.7961 162.454 82.531C162.751 82.2928 163.146 82.1026 163.305 81.7888C163.455 81.4926 163.357 81.0631 163.361 80.6922C163.365 80.2142 163.363 79.7363 163.363 79.2579C163.394 79.2422 163.425 79.2267 163.456 79.211Z" fill="#368E0E"/>
<path d="M173.272 61.7221C172.611 61.4584 172.036 61.2444 171.474 60.9976C171.224 60.8876 171.043 60.9067 170.837 61.0944C170.45 61.4482 170.04 61.7767 169.637 62.1133C169.543 62.1923 169.441 62.2606 169.289 62.373C169.279 62.1808 169.264 62.0449 169.266 61.9094C169.275 61.3127 169.28 60.7156 169.307 60.1197C169.318 59.8857 169.25 59.7275 169.07 59.5832C168.539 59.1573 168.019 58.7165 167.432 58.23C167.977 58.0386 168.449 57.8305 168.942 57.7119C169.485 57.5815 169.755 57.2879 169.855 56.7208C169.955 56.1535 170.157 55.6056 170.34 54.9589C170.465 55.1475 170.552 55.2722 170.632 55.4022C170.907 55.8535 171.196 56.2976 171.447 56.763C171.599 57.0446 171.792 57.1327 172.095 57.1215C172.676 57.0995 173.258 57.1166 173.891 57.1176C173.834 57.2497 173.804 57.3517 173.749 57.4362C173.445 57.9066 173.148 58.3827 172.821 58.8364C172.634 59.0944 172.59 59.33 172.694 59.6373C172.868 60.1551 173.003 60.6864 173.152 61.213C173.19 61.3486 173.217 61.4874 173.272 61.7221Z" fill="#368E0E"/>
<path d="M204.779 46.5185C205.235 47.128 205.635 47.6264 205.993 48.1554C206.176 48.4258 206.38 48.4819 206.672 48.4387C207.231 48.3558 207.793 48.2963 208.415 48.2195C208.365 48.3735 208.346 48.4752 208.301 48.5622C208.034 49.0738 207.77 49.5885 207.485 50.0895C207.353 50.3209 207.339 50.5218 207.444 50.7695C207.669 51.3017 207.867 51.8466 208.073 52.3871C208.112 52.4885 208.14 52.594 208.199 52.7754C207.659 52.6318 207.163 52.544 206.701 52.3654C206.221 52.1797 205.888 52.2575 205.56 52.6712C205.227 53.0894 204.821 53.4462 204.372 53.9065C204.331 53.3903 204.3 52.9806 204.265 52.5716C204.23 52.1708 204.296 51.7093 204.12 51.3875C203.955 51.0854 203.533 50.9282 203.221 50.7125C202.911 50.4982 202.597 50.2901 202.231 50.0428C202.848 49.7463 203.395 49.4705 203.954 49.2208C204.21 49.1065 204.34 48.9522 204.384 48.6571C204.486 47.9766 204.631 47.3024 204.779 46.5185Z" fill="#368E0E"/>
<path d="M188.545 70.0991C189.11 70.2032 189.57 70.2875 190.03 70.3728C190.076 70.3815 190.122 70.3937 190.167 70.4095C190.539 70.5434 190.807 70.4418 191.054 70.1074C191.391 69.6492 191.785 69.235 192.196 68.7546C192.242 68.9288 192.281 69.0302 192.295 69.135C192.368 69.6941 192.448 70.2525 192.5 70.8135C192.525 71.083 192.629 71.2537 192.866 71.3767C193.3 71.6023 193.724 71.8517 194.15 72.0945C194.257 72.156 194.357 72.2303 194.503 72.327C193.947 72.6454 193.436 72.957 192.907 73.2316C192.634 73.3736 192.524 73.5676 192.498 73.8699C192.446 74.4469 192.365 75.0217 192.292 75.5968C192.283 75.6709 192.25 75.7422 192.208 75.8812C191.684 75.2724 191.199 74.7091 190.71 74.1397C190.015 74.2717 189.34 74.3999 188.57 74.5461C188.679 74.2864 188.747 74.1145 188.823 73.9462C189.02 73.5071 189.208 73.063 189.425 72.6346C189.54 72.4084 189.525 72.2237 189.419 72.0022C189.134 71.4117 188.87 70.811 188.545 70.0991Z" fill="#368E0E"/>
<path d="M180.863 88.1717C180.708 88.041 180.554 87.9146 180.403 87.7845C180.114 87.5351 179.815 87.2946 179.541 87.0288C179.333 86.8268 179.139 86.776 178.866 86.9008C178.479 87.0781 178.074 87.2145 177.675 87.3637C177.548 87.411 177.416 87.4435 177.214 87.505C177.397 86.8876 177.528 86.3258 177.731 85.7933C177.894 85.3671 177.835 85.0405 177.57 84.6839C177.248 84.2517 176.979 83.7786 176.637 83.244C177.151 83.2448 177.582 83.2404 178.012 83.2473C178.776 83.2604 178.776 83.2634 179.195 82.5917C179.448 82.1854 179.701 81.7793 179.993 81.3101C180.057 81.4814 180.107 81.5879 180.138 81.7002C180.282 82.2285 180.433 82.7559 180.556 83.289C180.615 83.5393 180.738 83.6691 180.976 83.7452C181.411 83.8848 181.837 84.055 182.267 84.2144C182.379 84.2562 182.489 84.3048 182.675 84.381C182.455 84.5626 182.289 84.7021 182.121 84.8385C181.949 84.9794 181.774 85.1174 181.6 85.2569C180.927 85.7962 180.929 85.7962 180.938 86.6936C180.942 87.1449 180.941 87.597 180.94 88.0486C180.94 88.0745 180.909 88.1001 180.863 88.1717Z" fill="#368E0E"/>
<path d="M170.367 72.3317C169.801 72.4435 169.313 72.5536 168.82 72.631C168.524 72.6776 168.354 72.8075 168.249 73.1074C168.06 73.6475 167.824 74.1699 167.575 74.7773C167.298 74.1754 167.045 73.6582 166.822 73.128C166.71 72.8615 166.56 72.7325 166.266 72.708C165.77 72.6666 165.278 72.572 164.719 72.4902C164.843 72.3234 164.931 72.1977 165.027 72.0789C165.147 71.9299 165.255 71.7628 165.401 71.6445C166.024 71.137 166.122 70.5092 165.891 69.7621C165.788 69.4306 165.773 69.071 165.704 68.6355C166.34 68.9885 166.9 69.3001 167.472 69.6176C168.026 69.2685 168.57 68.9255 169.194 68.5319C169.118 69.1444 169.08 69.6703 168.981 70.1841C168.9 70.608 168.989 70.9179 169.307 71.2091C169.666 71.5386 169.982 71.9189 170.367 72.3317Z" fill="#368E0E"/>
<path d="M222.107 68.2781C222.08 68.0569 222.056 67.9059 222.045 67.7538C222.012 67.3196 221.968 66.8854 221.959 66.4504C221.954 66.1907 221.847 66.0415 221.639 65.9118C221.197 65.6369 220.769 65.3392 220.258 64.9992C220.747 64.7647 221.157 64.5434 221.585 64.3702C221.93 64.2312 222.103 64.0225 222.146 63.6344C222.204 63.124 222.328 62.6208 222.434 62.0568C222.538 62.1513 222.623 62.2081 222.682 62.285C222.964 62.6537 223.245 63.0225 223.512 63.4019C223.636 63.5774 223.765 63.6537 223.986 63.6213C224.498 63.5468 225.013 63.5009 225.61 63.4342C225.499 63.6568 225.417 63.8206 225.335 63.9857C225.109 64.4439 224.885 64.9025 224.659 65.3605C224.833 65.8271 225.007 66.2934 225.179 66.7601C225.238 66.9187 225.293 67.0787 225.381 67.3238C225.052 67.2443 224.812 67.1898 224.574 67.1279C224.33 67.0645 224.084 67.0056 223.846 66.9228C223.624 66.8459 223.462 66.8905 223.302 67.0698C223.026 67.3789 222.731 67.67 222.441 67.9662C222.354 68.0557 222.259 68.1368 222.107 68.2781Z" fill="#368E0E"/>
<path d="M239.155 38.7542C239.581 39.1167 239.947 39.3731 240.244 39.695C240.548 40.0236 240.836 40.0261 241.205 39.8544C241.588 39.6763 241.992 39.5439 242.474 39.3574C242.329 39.862 242.205 40.2865 242.086 40.7127C241.843 41.5875 241.778 41.2734 242.281 42.074C242.499 42.4211 242.719 42.7671 242.98 43.1794C242.475 43.1787 242.052 43.2148 241.638 43.1669C241.233 43.1202 240.997 43.2624 240.807 43.6191C240.576 44.0519 240.296 44.4565 239.981 44.9629C239.819 44.3623 239.66 43.877 239.561 43.3795C239.482 42.9822 239.282 42.7767 238.907 42.671C238.49 42.553 238.086 42.3812 237.585 42.1992C237.921 41.9268 238.166 41.6739 238.458 41.5031C239.05 41.1557 239.255 40.666 239.162 39.9851C239.113 39.6236 239.154 39.2493 239.155 38.7542Z" fill="#368E0E"/>
<path d="M202.102 60.6973C202.035 61.2803 201.992 61.7774 201.916 62.269C201.873 62.5516 201.934 62.7613 202.144 62.9545C202.482 63.2658 202.801 63.5994 203.157 63.9527C202.875 64.147 202.607 64.149 202.357 64.2023C201.465 64.3936 201.466 64.3903 201.13 65.2597C201.016 65.5548 200.895 65.8472 200.744 66.2223C200.505 65.7256 200.283 65.3206 200.114 64.8935C199.984 64.5633 199.779 64.4271 199.444 64.4064C199.053 64.3822 198.663 64.3206 198.215 64.2684C198.298 64.1367 198.353 64.0297 198.426 63.9386C198.676 63.6268 198.926 63.315 199.188 63.0145C199.327 62.8542 199.363 62.6955 199.313 62.4853C199.227 62.1255 199.168 61.7591 199.104 61.3945C199.077 61.2412 199.067 61.0855 199.04 60.8511C199.589 61.1453 200.072 61.4043 200.58 61.6759C201.064 61.3645 201.551 61.0516 202.102 60.6973Z" fill="#368E0E"/>
<path d="M176.661 65.2614C176.437 65.7087 176.253 66.1152 176.034 66.5016C175.886 66.7627 175.863 66.989 175.998 67.2677C176.193 67.6707 176.344 68.0955 176.526 68.54C176.172 68.6053 175.888 68.4453 175.59 68.3873C174.824 68.2385 175.037 68.1068 174.463 68.7297C174.238 68.9737 174.012 69.2169 173.709 69.5448C173.662 69.0528 173.599 68.6631 173.593 68.2726C173.586 67.8287 173.451 67.5124 173.033 67.3155C172.71 67.1629 172.418 66.9389 172.047 66.7051C172.49 66.4765 172.855 66.2646 173.239 66.0994C173.507 65.9843 173.617 65.8025 173.655 65.5229C173.717 65.0603 173.802 64.6014 173.897 64.0244C174.096 64.2759 174.239 64.4541 174.38 64.6338C174.538 64.8352 174.701 65.0332 174.85 65.2412C174.967 65.404 175.098 65.452 175.297 65.4133C175.652 65.3444 176.014 65.3084 176.373 65.2623C176.446 65.253 176.52 65.2611 176.661 65.2614Z" fill="#368E0E"/>
<path d="M191.666 57.5757C191.418 57.0957 191.203 56.7257 191.034 56.3351C190.894 56.0128 190.691 55.8766 190.346 55.8781C189.986 55.8793 189.626 55.8247 189.174 55.7872C189.322 55.5839 189.427 55.4354 189.536 55.2906C189.671 55.1115 189.797 54.9233 189.95 54.7614C190.203 54.4924 190.273 54.2118 190.158 53.8425C190.034 53.4461 189.976 53.0279 189.869 52.5219C190.175 52.6635 190.421 52.7757 190.666 52.892C191.567 53.3193 191.229 53.3398 192.034 52.7919C192.264 52.635 192.493 52.4746 192.796 52.2647C192.753 52.8254 192.735 53.2896 192.675 53.7479C192.635 54.057 192.733 54.2647 192.958 54.4603C193.269 54.7302 193.556 55.0299 193.915 55.3781C193.48 55.4938 193.114 55.6196 192.739 55.6831C192.397 55.7407 192.223 55.9161 192.128 56.2479C192.01 56.6591 191.849 57.0572 191.666 57.5757Z" fill="#368E0E"/>
<path d="M198.193 82.2964C197.791 82.2958 197.481 82.3215 197.178 82.2886C196.768 82.2437 196.494 82.3667 196.311 82.7671C196.159 83.0976 195.938 83.3943 195.682 83.8128C195.562 83.3913 195.446 83.0826 195.389 82.7626C195.298 82.2533 195.079 81.9174 194.538 81.8333C194.264 81.7911 194.006 81.6514 193.665 81.5282C194.006 81.2394 194.292 80.9696 194.605 80.7399C194.878 80.5404 194.981 80.3046 194.957 79.9631C194.928 79.5626 194.951 79.1581 194.951 78.7231C195.212 78.7649 195.381 78.9502 195.52 79.1154C195.972 79.6474 196.461 79.7237 197.044 79.3631C197.203 79.265 197.394 79.2223 197.573 79.1587C197.595 79.1507 197.628 79.1709 197.7 79.1892C197.578 79.6186 197.467 80.0506 197.33 80.4737C197.249 80.7258 197.272 80.929 197.431 81.1465C197.682 81.4912 197.904 81.8575 198.193 82.2964Z" fill="#368E0E"/>
<path d="M241.372 27.1933C241.018 27.0187 240.662 26.8598 240.323 26.67C240.1 26.5451 239.925 26.5481 239.721 26.7101C239.412 26.954 239.083 27.17 238.669 27.4644C238.692 27.1118 238.707 26.8642 238.726 26.6171C238.741 26.4077 238.749 26.1965 238.784 25.9903C238.828 25.7365 238.731 25.5651 238.551 25.4015C238.246 25.1251 237.96 24.8278 237.608 24.4823C238.064 24.3633 238.448 24.2466 238.839 24.1672C239.072 24.1197 239.19 24.0001 239.262 23.7773C239.401 23.3512 239.561 22.9326 239.748 22.4124C239.986 22.87 240.193 23.2383 240.37 23.6206C240.483 23.8628 240.618 23.9975 240.902 24.0013C241.276 24.0066 241.649 24.0671 242.11 24.1124C241.921 24.3703 241.77 24.5837 241.611 24.7898C241.076 25.4813 241.075 25.4801 241.267 26.3488C241.319 26.5847 241.366 26.8221 241.411 27.0597C241.416 27.0865 241.395 27.1184 241.372 27.1933Z" fill="#368E0E"/>
<path d="M146.501 86.6206C146.891 86.3582 147.211 86.1261 147.548 85.9216C147.76 85.7933 147.856 85.6389 147.862 85.3802C147.871 84.9471 147.922 84.5154 147.963 83.9849C148.38 84.3967 148.745 84.7572 149.118 85.1257C149.593 84.9984 150.057 84.8741 150.607 84.7271C150.429 85.1938 150.301 85.5874 150.129 85.9591C149.998 86.2408 150.029 86.4673 150.186 86.724C150.391 87.0618 150.561 87.4227 150.784 87.8474C150.349 87.8021 149.992 87.7805 149.641 87.7236C149.356 87.6771 149.171 87.7701 149.011 88.0141C148.803 88.3324 148.561 88.6279 148.263 89.0271C148.17 88.5423 148.076 88.1617 148.028 87.7753C147.987 87.4353 147.85 87.2228 147.525 87.1034C147.2 86.9852 146.896 86.8104 146.501 86.6206Z" fill="#368E0E"/>
<path d="M213.971 70.7935C214.361 70.8737 214.663 70.8986 214.938 71.001C215.3 71.1355 215.528 71.0189 215.746 70.728C215.936 70.4746 216.168 70.2543 216.456 69.9368C216.509 70.384 216.581 70.7402 216.586 71.097C216.591 71.4689 216.737 71.691 217.061 71.8472C217.353 71.9886 217.622 72.1821 217.947 72.3801C217.562 72.5906 217.236 72.7838 216.896 72.9498C216.688 73.0519 216.597 73.1939 216.572 73.4298C216.53 73.8401 216.451 74.2465 216.371 74.7624C216.07 74.395 215.815 74.1149 215.596 73.8074C215.442 73.5908 215.267 73.5389 215.026 73.5888C214.689 73.6587 214.348 73.7109 213.916 73.7872C214.124 73.3479 214.284 72.9727 214.476 72.6155C214.595 72.3938 214.597 72.2082 214.486 71.9828C214.311 71.6251 214.167 71.2508 213.971 70.7935Z" fill="#368E0E"/>
<path d="M216.437 42.2285C216.112 42.4041 215.861 42.5736 215.586 42.6792C215.243 42.8113 215.107 43.0468 215.079 43.4048C215.054 43.7358 214.984 44.063 214.916 44.5046C214.627 44.1487 214.387 43.8787 214.177 43.5862C214.025 43.3747 213.867 43.3161 213.614 43.3785C213.301 43.4558 212.974 43.4759 212.578 43.5314C212.778 43.1111 212.931 42.7593 213.112 42.4241C213.223 42.2177 213.219 42.0404 213.123 41.8334C212.961 41.4866 212.82 41.1291 212.634 40.688C212.938 40.7523 213.171 40.7734 213.383 40.8519C213.821 41.0135 214.161 40.9486 214.431 40.5282C214.567 40.3167 214.764 40.1466 214.973 39.9138C215.097 40.299 215.128 40.6452 215.135 40.9853C215.143 41.3324 215.267 41.5528 215.575 41.7039C215.853 41.8404 216.108 42.0256 216.437 42.2285Z" fill="#368E0E"/>
<path d="M227.242 74.8388C227.01 74.449 226.822 74.1549 226.658 73.8481C226.561 73.6682 226.435 73.6012 226.241 73.6079C225.933 73.6192 225.626 73.6102 225.214 73.6096C225.459 73.2434 225.63 72.9598 225.829 72.6989C225.981 72.4994 226.007 72.3084 225.931 72.072C225.829 71.7536 225.756 71.4259 225.643 70.998C226.09 71.1803 226.456 71.3291 226.854 71.4904C227.176 71.2359 227.504 70.9763 227.874 70.6842C227.874 71.1085 227.886 71.4563 227.869 71.8026C227.857 72.034 227.924 72.1957 228.108 72.3371C228.368 72.5373 228.61 72.765 228.908 73.0234C228.652 73.1104 228.465 73.201 228.268 73.2359C227.813 73.3163 227.546 73.5566 227.478 74.0404C227.445 74.2752 227.345 74.5007 227.242 74.8388Z" fill="#368E0E"/>
<path d="M234.976 14.1244C235.322 14.0664 235.58 14.0177 235.841 13.9813C236.06 13.9506 236.211 13.8587 236.294 13.6284C236.397 13.3432 236.538 13.0722 236.696 12.7202C236.84 13.0432 236.98 13.2918 237.062 13.5595C237.156 13.8729 237.356 13.9855 237.649 14.0156C237.867 14.038 238.083 14.091 238.329 14.1358C238.255 14.4281 238.032 14.5938 237.85 14.7672C237.6 15.0055 237.535 15.2611 237.608 15.59C237.662 15.8393 237.681 16.097 237.722 16.3903C237.493 16.375 237.361 16.2316 237.207 16.1478C237.041 16.0572 236.882 15.9534 236.683 15.8333C236.356 16.0208 236.019 16.2148 235.612 16.448C235.674 16.0545 235.713 15.7389 235.774 15.428C235.819 15.2019 235.774 15.0251 235.614 14.8583C235.408 14.6439 235.222 14.4097 234.976 14.1244Z" fill="#368E0E"/>
<path d="M240.155 7.65631C240.065 7.3278 239.985 7.07241 239.927 6.812C239.876 6.58473 239.766 6.44723 239.536 6.38629C239.311 6.32677 239.098 6.22425 238.807 6.11273C239.039 5.92406 239.212 5.76862 239.399 5.63421C239.61 5.48247 239.716 5.30431 239.684 5.02476C239.655 4.77651 239.678 4.52209 239.678 4.15979C240.016 4.43961 240.267 4.648 240.545 4.87866C240.844 4.77128 241.152 4.66068 241.488 4.54003C241.556 4.79641 241.44 4.99879 241.365 5.19234C241.238 5.52314 241.248 5.80549 241.487 6.08314C241.619 6.23561 241.708 6.42599 241.851 6.65462C241.669 6.67029 241.547 6.70847 241.436 6.68568C240.942 6.58273 240.631 6.7939 240.431 7.24516C240.376 7.37149 240.277 7.47777 240.155 7.65631Z" fill="#368E0E"/>
<path d="M226.097 35.1825C226.382 34.9579 226.63 34.7616 226.879 34.5671C226.887 34.5617 226.907 34.5746 226.957 34.5897C226.961 34.6993 226.99 34.8264 226.968 34.9441C226.863 35.5124 227.089 35.9013 227.565 36.1717C227.644 36.2171 227.707 36.2941 227.832 36.4044C227.596 36.4957 227.408 36.5939 227.208 36.6401C226.904 36.7109 226.76 36.8963 226.708 37.1987C226.67 37.4174 226.599 37.6299 226.51 37.9687C226.32 37.6717 226.177 37.474 226.063 37.2593C225.943 37.0327 225.79 36.9325 225.531 36.9677C225.321 36.9958 225.105 36.9727 224.821 36.9722C224.973 36.7229 225.068 36.5198 225.205 36.3528C225.414 36.0973 225.424 35.8422 225.307 35.5462C225.226 35.3429 225.184 35.1233 225.101 34.8265C225.473 34.9598 225.778 35.0683 226.097 35.1825Z" fill="#368E0E"/>
<path d="M139.557 81.6983C139.423 81.9593 139.344 82.1508 139.233 82.3207C139.085 82.5471 139.086 82.7583 139.202 82.9974C139.292 83.1823 139.348 83.3844 139.45 83.6667C139.198 83.6051 139.002 83.5793 138.823 83.5086C138.599 83.4196 138.433 83.4619 138.284 83.6487C138.155 83.8089 138.015 83.9587 137.805 84.1991C137.766 83.9606 137.724 83.8452 137.734 83.7343C137.777 83.2509 137.619 82.8964 137.166 82.6986C137.071 82.6572 136.994 82.5733 136.864 82.4752C137.051 82.3749 137.19 82.2751 137.344 82.2228C137.648 82.1203 137.807 81.9293 137.827 81.5959C137.839 81.4083 137.9 81.2238 137.958 80.9417C138.125 81.1571 138.258 81.3065 138.364 81.4739C138.507 81.6987 138.672 81.8147 138.95 81.74C139.112 81.6962 139.29 81.7139 139.557 81.6983Z" fill="#368E0E"/>
<path d="M160.646 54.8796C160.439 54.7551 160.319 54.6832 160.199 54.6107C160.091 54.5457 159.984 54.4795 159.84 54.392C159.608 54.5149 159.363 54.6452 159.04 54.8161C159.062 54.6065 159.059 54.4551 159.097 54.3154C159.188 53.9796 159.162 53.6894 158.884 53.4468C158.78 53.3553 158.706 53.2276 158.567 53.0523C158.786 53.0114 158.956 52.9602 159.129 52.9519C159.36 52.9408 159.508 52.8497 159.592 52.6224C159.661 52.4349 159.761 52.2598 159.886 51.9978C160.047 52.3572 160.169 52.628 160.296 52.9105C160.563 52.9762 160.831 53.042 161.178 53.1276C161.02 53.3008 160.918 53.4378 160.791 53.5446C160.557 53.7428 160.503 53.9835 160.565 54.2758C160.601 54.4461 160.612 54.6214 160.646 54.8796Z" fill="#368E0E"/>
<path d="M151.214 73.7176C151.538 73.6589 151.811 73.6095 152.101 73.5566C152.234 73.291 152.369 73.0208 152.547 72.6644C152.645 72.8954 152.731 73.0555 152.782 73.2264C152.865 73.5053 153.029 73.6566 153.317 73.6813C153.47 73.6942 153.62 73.7441 153.838 73.7921C153.671 73.975 153.554 74.1239 153.416 74.2475C153.233 74.4118 153.16 74.5919 153.215 74.8444C153.259 75.0454 153.257 75.2567 153.275 75.4613C153.224 75.4689 153.189 75.4864 153.168 75.4752C152.933 75.3507 152.702 75.1259 152.466 75.1209C152.231 75.1157 151.992 75.3298 151.673 75.4883C151.709 75.2444 151.708 75.0551 151.766 74.8874C151.871 74.5836 151.778 74.3617 151.568 74.152C151.449 74.0324 151.351 73.8883 151.214 73.7176Z" fill="#368E0E"/>
<path d="M223.71 47.2196C223.877 47.0124 223.985 46.8567 224.115 46.7224C224.285 46.5457 224.353 46.363 224.277 46.1123C224.219 45.9179 224.208 45.7081 224.164 45.4246C224.485 45.5903 224.732 45.7184 224.985 45.8492C225.235 45.6977 225.474 45.5529 225.776 45.3698C225.756 45.6254 225.766 45.8189 225.722 45.9988C225.648 46.3081 225.751 46.5255 225.978 46.718C226.097 46.8181 226.19 46.9495 226.341 47.118C226.135 47.1643 225.987 47.2083 225.836 47.2295C225.563 47.2677 225.375 47.3896 225.301 47.6815C225.258 47.8495 225.172 48.006 225.065 48.2668C224.943 48.0214 224.841 47.8535 224.775 47.6718C224.679 47.4075 224.507 47.2971 224.237 47.2975C224.086 47.2979 223.935 47.2547 223.71 47.2196Z" fill="#368E0E"/>
<path d="M233.031 60.5159C232.433 60.2609 232.042 60.4778 231.707 61.0408C231.657 60.8192 231.602 60.7021 231.611 60.5909C231.646 60.1928 231.455 59.9611 231.123 59.8085C231.042 59.7712 230.975 59.703 230.863 59.6211C231.119 59.4619 231.408 59.3731 231.542 59.1741C231.682 58.9677 231.673 58.6551 231.739 58.3433C231.83 58.4257 231.926 58.4805 231.976 58.5634C232.174 58.8877 232.423 59.0394 232.801 58.8929C232.88 58.8623 232.98 58.8887 233.146 58.889C232.725 59.4125 232.699 59.9331 233.031 60.5159Z" fill="#368E0E"/>
<path d="M210.211 79.559C209.98 80.1837 210.013 80.6988 210.636 81.1344C210.385 81.1776 210.259 81.2178 210.134 81.2168C209.861 81.2146 209.695 81.3375 209.604 81.5999C209.553 81.7457 209.464 81.8772 209.364 82.0703C209.234 81.7648 209.129 81.517 209.017 81.2559C208.783 81.1909 208.547 81.1251 208.261 81.0455C208.455 80.8062 208.686 80.6268 208.767 80.3929C208.85 80.1521 208.786 79.8581 208.786 79.5477C209.012 79.6656 209.226 79.8604 209.445 79.8674C209.667 79.8746 209.894 79.6962 210.211 79.559Z" fill="#368E0E"/>
<path d="M230.669 48.9528C230.934 49.0719 231.146 49.1674 231.378 49.2712C231.58 49.1422 231.788 49.0096 231.994 48.8785C232.027 48.9278 232.056 48.9511 232.056 48.9745C232.057 49.2292 231.987 49.5096 232.07 49.7309C232.15 49.9471 232.385 50.1028 232.579 50.314C232.306 50.4178 232.022 50.4474 231.863 50.6072C231.699 50.7717 231.656 51.0633 231.56 51.2988C231.526 51.2873 231.481 51.2858 231.473 51.2674C231.284 50.8098 231.005 50.4899 230.465 50.5436C230.444 50.546 230.419 50.5056 230.383 50.4742C230.525 50.2496 230.739 50.0389 230.789 49.793C230.838 49.5492 230.722 49.2703 230.669 48.9528Z" fill="#368E0E"/>
<path d="M218.684 55.1166C218.409 54.991 218.186 54.8129 217.96 54.8085C217.758 54.805 217.553 54.9931 217.246 55.1495C217.488 54.5036 217.391 54.023 216.843 53.6416C217.166 53.5518 217.449 53.5478 217.622 53.4043C217.799 53.2583 217.867 52.9751 218.008 52.7018C218.138 52.9654 218.201 53.2474 218.373 53.3961C218.545 53.5453 218.827 53.561 219.098 53.6469C218.924 53.8738 218.697 54.0601 218.626 54.2959C218.559 54.5204 218.654 54.7964 218.684 55.1166Z" fill="#368E0E"/>
<path d="M210.507 65.1885C210.744 65.3123 210.944 65.4913 211.155 65.5052C211.348 65.518 211.553 65.3537 211.754 65.2668C211.773 65.2985 211.803 65.3284 211.798 65.3462C211.643 65.8594 211.702 66.3181 212.21 66.6992C211.888 66.7757 211.615 66.7714 211.435 66.9024C211.264 67.027 211.191 67.2919 211.039 67.556C210.914 67.2753 210.863 66.9981 210.7 66.8431C210.547 66.6977 210.277 66.6813 210.011 66.5918C210.189 66.3821 210.412 66.2194 210.489 66.0026C210.568 65.7783 210.507 65.5014 210.507 65.1885Z" fill="#368E0E"/>
<path d="M182.943 58.5815C182.718 58.3005 182.606 58.0601 182.422 57.9582C182.249 57.8629 181.998 57.9152 181.744 57.9C181.866 57.6477 182.04 57.4301 182.067 57.1947C182.093 56.9773 181.961 56.7407 181.882 56.449C182.138 56.5144 182.343 56.5666 182.57 56.6245C182.731 56.4901 182.9 56.3492 183.125 56.1614C183.154 56.4506 183.118 56.7255 183.22 56.9258C183.327 57.1339 183.569 57.2699 183.818 57.4988C183.208 57.5775 182.955 57.9332 182.943 58.5815Z" fill="#368E0E"/>
<path d="M127.008 82.9968C127.143 82.7933 127.335 82.6127 127.386 82.3968C127.437 82.1831 127.346 81.934 127.312 81.6564C127.549 81.7605 127.735 81.8419 127.929 81.9268C128.107 81.8219 128.281 81.719 128.5 81.5899C128.5 81.8607 128.442 82.1111 128.515 82.3115C128.591 82.5216 128.793 82.6842 128.984 82.9227C128.437 82.9421 128.144 83.2184 128.078 83.7458C127.483 83.1096 127.483 83.1096 127.008 82.9968Z" fill="#368E0E"/>
<g clip-path="url(#clip0_338_41)">
<path d="M151.054 58.4529H146.516V57.0653C146.516 56.6041 146.142 56.2303 145.681 56.2303C145.22 56.2303 144.846 56.604 144.846 57.0653V58.4529H137.123C137.683 57.5965 138.019 56.8225 138.141 56.1105C138.31 55.1268 137.985 54.0975 137.223 53.1881C138.779 52.0553 139.567 51.0134 139.567 50.0893C139.567 49.6163 139.466 49.1196 139.267 48.61L141.12 49.1965C142.998 49.7912 144.391 51.3627 144.754 53.2978C144.84 53.753 145.278 54.0489 145.729 53.9642C146.182 53.8791 146.481 53.4428 146.396 52.9895C145.918 50.4487 144.09 48.3852 141.624 47.6045L137.445 46.2815C136.022 45.2689 134.702 45.3294 134.149 45.2067L132.969 44.1788C132.401 43.684 131.675 43.4798 130.977 43.5634V41.3496C132.975 39.8557 134.351 37.5647 134.616 34.9359C135.614 34.7564 136.374 33.8815 136.374 32.8325V24.6171C136.374 22.7929 134.89 21.3088 133.066 21.3088L132.982 21.3083C132.982 19.4841 131.498 18 129.674 18H121.15C118.394 18 115.922 19.744 114.999 22.3398C114.844 22.7742 115.071 23.2517 115.506 23.4062C115.94 23.5611 116.418 23.3338 116.572 22.8992C117.259 20.9677 119.099 19.6698 121.15 19.6698H129.674C130.577 19.6698 131.312 20.4048 131.312 21.3083C131.312 22.2294 132.061 22.9786 132.983 22.9786H133.066C133.969 22.9786 134.704 23.7136 134.704 24.617V29.1831H133.83C133.342 29.1831 132.944 28.7856 132.944 28.297V27.355C132.944 25.5459 131.178 24.2692 129.46 24.8373C126.907 25.6815 124.094 25.6816 121.54 24.8379C121.537 24.8369 121.533 24.8357 121.53 24.8345C119.817 24.274 118.053 25.5459 118.053 27.3548V28.2971C118.053 28.7856 117.656 29.1832 117.167 29.1832H116.293V26.5228C116.293 26.0617 115.919 25.6879 115.458 25.6879C114.997 25.6879 114.623 26.0616 114.623 26.5228V32.8325C114.623 33.8814 115.383 34.7563 116.381 34.9359C116.646 37.5648 118.022 39.8557 120.02 41.3496V43.5628C119.323 43.4803 118.599 43.6846 118.032 44.1788L116.837 45.2199C116.602 45.2785 115.8 45.3351 114.82 45.8809L109.377 47.6044C106.451 48.5308 104.485 51.2156 104.485 54.2852V58.4527H99.947C98.3228 58.4527 97.0015 59.7741 97.0015 61.3983V72.0545C97.0015 73.6786 98.3228 75 99.947 75H151.054C152.678 75 153.999 73.6786 153.999 72.0545V61.3983C153.999 59.7741 152.678 58.4529 151.054 58.4529ZM134.629 46.9601C134.771 46.9961 135.591 46.996 136.571 47.7115C137.044 48.0718 137.417 48.5415 137.651 49.0708C137.814 49.4415 137.897 49.7842 137.897 50.0893C137.897 50.2417 137.557 50.9156 136.048 51.9758C135.716 52.2089 135.5 52.5801 135.456 52.9939C135.411 53.4118 135.546 53.8249 135.826 54.1276C136.196 54.5278 136.613 55.1475 136.496 55.8278C136.412 56.3165 136.09 57.1586 135.059 58.4529H130.95C133.283 53.7505 134.517 49.8952 134.629 46.9601ZM129.092 58.4296L127.733 53.2961L128.488 52.4058C129.323 52.5584 130.166 52.2201 130.668 51.5511L132.747 48.7786C132.276 51.3618 131.053 54.5924 129.092 58.4296ZM131.872 45.4379L132.654 46.1189L129.331 50.5492C129.138 50.807 128.767 50.8491 128.521 50.6364L126.752 49.1063C132.109 44.1208 130.366 45.7533 130.719 45.4151C131.056 45.1435 131.541 45.1494 131.872 45.4379ZM127.024 51.5497L126.428 52.2537H124.568L123.963 51.5611L125.5 50.2318L127.024 51.5497ZM121.69 44.4419V42.3425C122.853 42.8764 124.144 43.1735 125.498 43.1735C126.853 43.1735 128.144 42.8764 129.307 42.3425V44.4452L125.5 47.9901L121.69 44.4419ZM124.859 53.9236H126.172L127.371 58.4529H123.852L124.859 53.9236ZM118.019 34.4864C117.977 33.8211 117.424 33.2998 116.76 33.2998C116.502 33.2998 116.293 33.0902 116.293 32.8326V30.8531H117.167C118.576 30.8531 119.723 29.7065 119.723 28.2971V27.3549C119.723 26.6854 120.377 26.2122 121.013 26.4225C121.016 26.4235 121.019 26.4246 121.023 26.4256C123.912 27.3787 127.095 27.3779 129.984 26.423C130.62 26.2127 131.274 26.6854 131.274 27.3552V28.2972C131.274 29.7066 132.421 30.8532 133.83 30.8532H134.704V32.8327C134.704 33.0903 134.495 33.2999 134.237 33.2999C133.573 33.2999 133.02 33.8211 132.978 34.4866C132.73 38.4214 129.444 41.5038 125.498 41.5038C121.553 41.5038 118.267 38.4213 118.019 34.4864ZM119.128 45.4379C119.459 45.1503 119.941 45.1435 120.278 45.4121C120.379 45.5098 124.231 49.09 124.249 49.1064L122.48 50.6365C122.361 50.739 122.21 50.786 122.055 50.7691C121.9 50.7524 121.763 50.6742 121.669 50.5492L118.347 46.1189L119.128 45.4379ZM120.333 51.551C120.821 52.2012 121.647 52.5539 122.488 52.4102L123.283 53.3199L122.212 58.1378C120.131 54.3866 118.839 51.3163 118.311 48.8539L120.333 51.551ZM114.21 48.7791C114.675 47.9076 115.479 47.2931 116.38 47.0246C116.533 49.9204 117.883 53.682 120.48 58.4529H116.66C115.629 57.1587 115.307 56.3166 115.223 55.8278C115.106 55.1475 115.523 54.5278 115.893 54.1274C116.173 53.8248 116.307 53.4118 116.263 52.9939C116.219 52.58 116.003 52.2089 115.671 51.9758C114.161 50.9156 113.822 50.2417 113.822 50.0893C113.822 49.7037 113.952 49.2628 114.21 48.7791ZM106.154 54.2853C106.154 51.9472 107.652 49.9022 109.881 49.1965L112.562 48.3475C112.29 48.9503 112.152 49.5348 112.152 50.0893C112.152 51.0132 112.94 52.055 114.496 53.1881C113.734 54.0976 113.408 55.1268 113.577 56.1105C113.7 56.8226 114.035 57.5966 114.596 58.4529H106.154V54.2853ZM152.329 72.0545C152.329 72.7579 151.757 73.3302 151.054 73.3302H99.947C99.2436 73.3302 98.6713 72.758 98.6713 72.0545V61.3983C98.6713 60.6949 99.2435 60.1227 99.947 60.1227H151.054C151.757 60.1227 152.329 60.6949 152.329 61.3983V72.0545H152.329Z" fill="white"/>
<path d="M107.768 64.8322L106.789 64.7971L106.453 63.8773C106.253 63.3287 105.746 62.9742 105.162 62.9742C104.578 62.9742 104.071 63.3287 103.871 63.8773L103.535 64.7971L102.557 64.8322C101.973 64.8531 101.479 65.2256 101.299 65.7811C101.119 66.3367 101.299 66.9281 101.759 67.2881L102.53 67.8916L102.261 68.8332C102.1 69.3948 102.302 69.9794 102.775 70.3228C103.247 70.666 103.866 70.677 104.35 70.3509L105.162 69.8042L105.975 70.3509C106.21 70.5092 106.476 70.5882 106.743 70.5882C107.025 70.5881 107.307 70.4994 107.55 70.3228C108.023 69.9795 108.224 69.3947 108.064 68.8331L107.795 67.8917L108.566 67.2882C109.026 66.9281 109.206 66.3367 109.026 65.7811C108.845 65.2256 108.351 64.8531 107.768 64.8322ZM106.609 66.6991C106.166 67.0456 105.98 67.6186 106.134 68.1592L106.236 68.5138L105.93 68.3078C105.464 67.994 104.861 67.9939 104.395 68.3078L104.089 68.5138L104.19 68.1591C104.344 67.6187 104.158 67.0455 103.716 66.6991L103.425 66.4718L103.794 66.4586C104.355 66.4385 104.843 66.0844 105.036 65.5564L105.162 65.2098L105.289 65.5564C105.482 66.0844 105.969 66.4385 106.531 66.4586L106.899 66.4718L106.609 66.6991Z" fill="white"/>
<path d="M117.937 64.8322L116.958 64.7971L116.623 63.8773C116.422 63.3287 115.915 62.9742 115.331 62.9742C114.747 62.9742 114.241 63.3287 114.04 63.8773L113.704 64.7971L112.726 64.8322C112.142 64.8531 111.648 65.2256 111.468 65.7811C111.287 66.3367 111.468 66.9281 111.928 67.2881L112.699 67.8916L112.43 68.8332C112.269 69.3948 112.471 69.9794 112.944 70.3228C113.416 70.666 114.034 70.677 114.519 70.3509L115.331 69.8042L116.143 70.3509C116.628 70.6769 117.246 70.6663 117.719 70.3228C118.191 69.9795 118.393 69.3947 118.233 68.8331L117.964 67.8917L118.735 67.2882C119.194 66.9281 119.375 66.3367 119.195 65.7811C119.014 65.2256 118.52 64.8531 117.937 64.8322ZM116.778 66.6991C116.335 67.0456 116.149 67.6186 116.303 68.1592L116.405 68.5138L116.099 68.3078C115.633 67.994 115.03 67.9939 114.564 68.3078L114.258 68.5138L114.359 68.1591C114.514 67.6187 114.327 67.0455 113.885 66.6991L113.594 66.4718L113.963 66.4586C114.525 66.4385 115.012 66.0844 115.205 65.5564L115.331 65.2098L115.458 65.5564C115.651 66.0844 116.138 66.4385 116.7 66.4586L117.068 66.4718L116.778 66.6991Z" fill="white"/>
<path d="M128.106 64.8322L127.127 64.7971L126.791 63.8773C126.591 63.3287 126.084 62.9742 125.5 62.9742C124.916 62.9742 124.409 63.3287 124.209 63.8773L123.873 64.7971L122.895 64.8322C122.311 64.8531 121.817 65.2256 121.637 65.7811C121.456 66.3367 121.637 66.9281 122.097 67.2881L122.868 67.8917L122.599 68.8332C122.438 69.3948 122.64 69.9795 123.113 70.3228C123.585 70.6659 124.203 70.6773 124.688 70.3509L125.5 69.8042L126.312 70.3509C126.797 70.6771 127.415 70.6661 127.888 70.3228C128.36 69.9795 128.562 69.3947 128.402 68.8331L128.133 67.8917L128.903 67.2882C129.363 66.9282 129.544 66.3367 129.364 65.7811C129.183 65.2256 128.689 64.8531 128.106 64.8322ZM126.947 66.6991C126.504 67.0456 126.318 67.6186 126.472 68.1592L126.574 68.5138L126.268 68.3078C126.035 68.1509 125.767 68.0725 125.5 68.0725C125.233 68.0725 124.966 68.1509 124.733 68.3078L124.427 68.5138L124.528 68.1591C124.683 67.6187 124.496 67.0456 124.054 66.6992L123.763 66.4719L124.132 66.4587C124.694 66.4386 125.181 66.0845 125.374 65.5565L125.5 65.2098L125.627 65.5564C125.82 66.0844 126.307 66.4385 126.869 66.4586L127.237 66.4718L126.947 66.6991Z" fill="white"/>
<path d="M138.275 64.8322L137.296 64.7971L136.96 63.8773C136.76 63.3287 136.253 62.9742 135.669 62.9742C135.085 62.9742 134.578 63.3287 134.378 63.8773L134.042 64.7971L133.064 64.8322C132.48 64.8531 131.986 65.2256 131.806 65.7811C131.625 66.3365 131.806 66.928 132.266 67.2881L133.037 67.8917L132.768 68.8332C132.607 69.3948 132.809 69.9795 133.282 70.3228C133.754 70.6659 134.372 70.6773 134.857 70.3509L135.669 69.8042L136.481 70.3509C136.966 70.6771 137.584 70.6661 138.057 70.3228C138.529 69.9794 138.731 69.3947 138.571 68.8331L138.302 67.8916L139.073 67.2882C139.533 66.9282 139.713 66.3367 139.533 65.7811C139.352 65.2256 138.858 64.8531 138.275 64.8322ZM137.116 66.6991C136.673 67.0456 136.487 67.6187 136.641 68.1592L136.743 68.5139L136.437 68.3079C136.203 68.151 135.936 68.0726 135.669 68.0726C135.402 68.0726 135.135 68.1511 134.902 68.3079L134.596 68.5139L134.697 68.1592C134.851 67.6188 134.665 67.0457 134.223 66.6994L133.932 66.472L134.301 66.4588C134.862 66.4387 135.35 66.0846 135.543 65.5566L135.669 65.21L135.796 65.5566C135.988 66.0846 136.476 66.4387 137.037 66.4588L137.406 66.472L137.116 66.6991Z" fill="white"/>
<path d="M148.444 64.8322L147.465 64.7971L147.13 63.8773C146.929 63.3287 146.423 62.9742 145.839 62.9742C145.254 62.9742 144.748 63.3287 144.547 63.8773L144.212 64.7971L143.233 64.8322C142.649 64.8531 142.156 65.2256 141.975 65.7811C141.795 66.3365 141.975 66.928 142.435 67.2881L143.206 67.8917L142.937 68.8332C142.777 69.3948 142.978 69.9795 143.451 70.3228C143.923 70.6659 144.541 70.6773 145.026 70.3509L145.839 69.8042L146.651 70.3509C147.135 70.6771 147.754 70.6661 148.226 70.3228C148.699 69.9794 148.9 69.3947 148.74 68.8331L148.471 67.8916L149.242 67.2882C149.702 66.9282 149.882 66.3367 149.702 65.7811C149.521 65.2256 149.028 64.8531 148.444 64.8322ZM147.285 66.6991C146.842 67.0456 146.656 67.6187 146.811 68.1592L146.912 68.5139L146.606 68.3079C146.373 68.151 146.106 68.0726 145.839 68.0726C145.571 68.0726 145.304 68.1511 145.071 68.3079L144.765 68.5139L144.866 68.1592C145.021 67.6188 144.834 67.0457 144.392 66.6994L144.102 66.472L144.47 66.4588C145.032 66.4387 145.519 66.0846 145.712 65.5566L145.839 65.21L145.965 65.5566C146.158 66.0846 146.645 66.4387 147.207 66.4588L147.575 66.472L147.285 66.6991Z" fill="white"/>
</g>
<defs>
<clipPath id="clip0_338_41">
<rect width="57" height="57" fill="white" transform="translate(97 18)"/>
</clipPath>
</defs>
</svg>
