<svg width="895" height="292" viewBox="0 0 895 292" fill="none" xmlns="http://www.w3.org/2000/svg">
<g filter="url(#filter0_d_139_91)">
<path d="M51.258 145.651H139.202L121.976 275.579H33.3518L51.258 145.651Z" fill="url(#paint0_linear_139_91)"/>
<path d="M33.9254 275.079L51.6938 146.151H138.631L121.538 275.079H33.9254Z" stroke="#4CA1F1"/>
</g>
<g filter="url(#filter1_d_139_91)">
<path d="M166.271 8H254.593L237.293 137.928H148.288L166.271 8Z" fill="url(#paint1_linear_139_91)"/>
<path d="M148.862 137.428L166.707 8.5H254.022L236.855 137.428H148.862Z" stroke="#4CA1F1"/>
</g>
<g filter="url(#filter2_d_139_91)">
<path d="M148.928 145.579H276.5L267.749 215.579H139L148.928 145.579Z" fill="url(#paint2_linear_139_91)" shape-rendering="crispEdges"/>
<path d="M139.576 215.079L149.362 146.079H275.934L267.308 215.079H139.576Z" stroke="#F7B761" shape-rendering="crispEdges"/>
</g>
<g filter="url(#filter3_d_139_91)">
<path d="M21.7673 67.5127H148.288L138.66 137.928H12L21.7673 67.5127Z" fill="url(#paint3_linear_139_91)" shape-rendering="crispEdges"/>
<path d="M12.5741 137.428L22.2027 68.0127H147.715L138.224 137.428H12.5741Z" stroke="#F7B761" shape-rendering="crispEdges"/>
</g>
<path d="M293.588 181V93.7273H306.756V131.653H350.264V93.7273H363.474V181H350.264V142.946H306.756V181H293.588ZM423.091 153.855V115.545H435.875V181H423.347V169.665H422.665C421.159 173.159 418.744 176.071 415.42 178.401C412.125 180.702 408.02 181.852 403.105 181.852C398.901 181.852 395.179 180.929 391.94 179.082C388.73 177.207 386.202 174.438 384.355 170.773C382.537 167.108 381.628 162.577 381.628 157.179V115.545H394.369V155.645C394.369 160.105 395.605 163.656 398.077 166.298C400.548 168.94 403.759 170.261 407.707 170.261C410.094 170.261 412.466 169.665 414.824 168.472C417.21 167.278 419.185 165.474 420.747 163.06C422.338 160.645 423.119 157.577 423.091 153.855ZM483.549 115.545V125.773H447.796V115.545H483.549ZM457.384 99.8636H470.126V161.781C470.126 164.253 470.495 166.114 471.234 167.364C471.972 168.585 472.924 169.423 474.089 169.878C475.282 170.304 476.575 170.517 477.967 170.517C478.989 170.517 479.884 170.446 480.651 170.304C481.418 170.162 482.015 170.048 482.441 169.963L484.742 180.489C484.004 180.773 482.952 181.057 481.589 181.341C480.225 181.653 478.521 181.824 476.475 181.852C473.123 181.909 469.998 181.312 467.1 180.062C464.202 178.812 461.859 176.881 460.069 174.267C458.279 171.653 457.384 168.372 457.384 164.423V99.8636ZM525.151 182.321C518.702 182.321 513.148 180.943 508.489 178.188C503.858 175.403 500.278 171.497 497.75 166.469C495.25 161.412 494 155.489 494 148.699C494 141.994 495.25 136.085 497.75 130.972C500.278 125.858 503.801 121.866 508.318 118.997C512.864 116.128 518.176 114.693 524.256 114.693C527.949 114.693 531.528 115.304 534.994 116.526C538.46 117.747 541.571 119.665 544.327 122.278C547.082 124.892 549.256 128.287 550.847 132.463C552.438 136.611 553.233 141.653 553.233 147.591V152.108H501.202V142.562H540.747C540.747 139.21 540.065 136.241 538.702 133.656C537.338 131.043 535.42 128.983 532.949 127.477C530.506 125.972 527.636 125.219 524.341 125.219C520.761 125.219 517.636 126.099 514.966 127.861C512.324 129.594 510.278 131.866 508.83 134.679C507.409 137.463 506.699 140.489 506.699 143.756V151.213C506.699 155.588 507.466 159.31 509 162.378C510.562 165.446 512.736 167.79 515.52 169.409C518.304 171 521.557 171.795 525.278 171.795C527.693 171.795 529.895 171.455 531.884 170.773C533.872 170.062 535.591 169.011 537.04 167.619C538.489 166.227 539.597 164.509 540.364 162.463L552.423 164.636C551.457 168.187 549.724 171.298 547.224 173.969C544.753 176.611 541.642 178.67 537.892 180.148C534.17 181.597 529.923 182.321 525.151 182.321ZM594.941 182.321C588.606 182.321 583.151 180.886 578.577 178.017C574.032 175.119 570.538 171.128 568.094 166.043C565.651 160.957 564.43 155.134 564.43 148.571C564.43 141.923 565.68 136.057 568.18 130.972C570.68 125.858 574.202 121.866 578.748 118.997C583.293 116.128 588.648 114.693 594.813 114.693C599.785 114.693 604.217 115.616 608.109 117.463C612.001 119.281 615.14 121.838 617.526 125.134C619.941 128.429 621.376 132.278 621.83 136.682H609.43C608.748 133.614 607.185 130.972 604.742 128.756C602.327 126.54 599.089 125.432 595.026 125.432C591.475 125.432 588.364 126.369 585.694 128.244C583.052 130.091 580.992 132.733 579.515 136.17C578.038 139.58 577.299 143.614 577.299 148.273C577.299 153.045 578.023 157.165 579.472 160.631C580.921 164.097 582.967 166.781 585.609 168.685C588.279 170.588 591.418 171.54 595.026 171.54C597.441 171.54 599.629 171.099 601.589 170.219C603.577 169.31 605.239 168.017 606.575 166.341C607.938 164.665 608.89 162.648 609.43 160.29H621.83C621.376 164.523 619.998 168.301 617.697 171.625C615.396 174.949 612.313 177.562 608.45 179.466C604.614 181.369 600.112 182.321 594.941 182.321ZM648.197 142.136V181H635.456V93.7273H648.027V126.199H648.837C650.371 122.676 652.714 119.878 655.868 117.804C659.021 115.73 663.141 114.693 668.226 114.693C672.714 114.693 676.635 115.616 679.987 117.463C683.368 119.31 685.982 122.065 687.828 125.73C689.703 129.366 690.641 133.912 690.641 139.366V181H677.899V140.901C677.899 136.099 676.663 132.378 674.192 129.736C671.72 127.065 668.283 125.73 663.879 125.73C660.868 125.73 658.169 126.369 655.783 127.648C653.425 128.926 651.564 130.801 650.2 133.273C648.865 135.716 648.197 138.67 648.197 142.136ZM740.424 181V93.7273H753.592V131.653H797.1V93.7273H810.31V181H797.1V142.946H753.592V181H740.424ZM829.487 181V93.7273H860.594C867.356 93.7273 872.967 94.892 877.427 97.2216C881.915 99.5511 885.268 102.776 887.484 106.895C889.7 110.986 890.808 115.716 890.808 121.085C890.808 126.426 889.685 131.128 887.441 135.19C885.225 139.224 881.873 142.364 877.384 144.608C872.924 146.852 867.313 147.974 860.552 147.974H836.987V136.639H859.359C863.62 136.639 867.086 136.028 869.756 134.807C872.455 133.585 874.43 131.81 875.68 129.48C876.93 127.151 877.555 124.352 877.555 121.085C877.555 117.79 876.915 114.935 875.637 112.52C874.387 110.105 872.413 108.259 869.714 106.98C867.043 105.673 863.535 105.02 859.188 105.02H842.654V181H829.487ZM872.569 141.625L894.131 181H879.131L857.995 141.625H872.569Z" fill="white"/>
<defs>
<filter id="filter0_d_139_91" x="21.3518" y="137.651" width="129.85" height="153.928" filterUnits="userSpaceOnUse" color-interpolation-filters="sRGB">
<feFlood flood-opacity="0" result="BackgroundImageFix"/>
<feColorMatrix in="SourceAlpha" type="matrix" values="0 0 0 0 0 0 0 0 0 0 0 0 0 0 0 0 0 0 127 0" result="hardAlpha"/>
<feOffset dy="4"/>
<feGaussianBlur stdDeviation="6"/>
<feComposite in2="hardAlpha" operator="out"/>
<feColorMatrix type="matrix" values="0 0 0 0 0 0 0 0 0 0 0 0 0 0 0 0 0 0 0.12 0"/>
<feBlend mode="normal" in2="BackgroundImageFix" result="effect1_dropShadow_139_91"/>
<feBlend mode="normal" in="SourceGraphic" in2="effect1_dropShadow_139_91" result="shape"/>
</filter>
<filter id="filter1_d_139_91" x="136.288" y="0" width="130.305" height="153.928" filterUnits="userSpaceOnUse" color-interpolation-filters="sRGB">
<feFlood flood-opacity="0" result="BackgroundImageFix"/>
<feColorMatrix in="SourceAlpha" type="matrix" values="0 0 0 0 0 0 0 0 0 0 0 0 0 0 0 0 0 0 127 0" result="hardAlpha"/>
<feOffset dy="4"/>
<feGaussianBlur stdDeviation="6"/>
<feComposite in2="hardAlpha" operator="out"/>
<feColorMatrix type="matrix" values="0 0 0 0 0 0 0 0 0 0 0 0 0 0 0 0 0 0 0.12 0"/>
<feBlend mode="normal" in2="BackgroundImageFix" result="effect1_dropShadow_139_91"/>
<feBlend mode="normal" in="SourceGraphic" in2="effect1_dropShadow_139_91" result="shape"/>
</filter>
<filter id="filter2_d_139_91" x="127" y="137.579" width="161.5" height="94" filterUnits="userSpaceOnUse" color-interpolation-filters="sRGB">
<feFlood flood-opacity="0" result="BackgroundImageFix"/>
<feColorMatrix in="SourceAlpha" type="matrix" values="0 0 0 0 0 0 0 0 0 0 0 0 0 0 0 0 0 0 127 0" result="hardAlpha"/>
<feOffset dy="4"/>
<feGaussianBlur stdDeviation="6"/>
<feComposite in2="hardAlpha" operator="out"/>
<feColorMatrix type="matrix" values="0 0 0 0 0 0 0 0 0 0 0 0 0 0 0 0 0 0 0.12 0"/>
<feBlend mode="normal" in2="BackgroundImageFix" result="effect1_dropShadow_139_91"/>
<feBlend mode="normal" in="SourceGraphic" in2="effect1_dropShadow_139_91" result="shape"/>
</filter>
<filter id="filter3_d_139_91" x="0" y="59.5127" width="160.288" height="94.4153" filterUnits="userSpaceOnUse" color-interpolation-filters="sRGB">
<feFlood flood-opacity="0" result="BackgroundImageFix"/>
<feColorMatrix in="SourceAlpha" type="matrix" values="0 0 0 0 0 0 0 0 0 0 0 0 0 0 0 0 0 0 127 0" result="hardAlpha"/>
<feOffset dy="4"/>
<feGaussianBlur stdDeviation="6"/>
<feComposite in2="hardAlpha" operator="out"/>
<feColorMatrix type="matrix" values="0 0 0 0 0 0 0 0 0 0 0 0 0 0 0 0 0 0 0.12 0"/>
<feBlend mode="normal" in2="BackgroundImageFix" result="effect1_dropShadow_139_91"/>
<feBlend mode="normal" in="SourceGraphic" in2="effect1_dropShadow_139_91" result="shape"/>
</filter>
<linearGradient id="paint0_linear_139_91" x1="86.277" y1="145.651" x2="86.277" y2="275.579" gradientUnits="userSpaceOnUse">
<stop stop-color="#1F80DE"/>
<stop offset="1" stop-color="#3A95ED"/>
</linearGradient>
<linearGradient id="paint1_linear_139_91" x1="201.441" y1="8" x2="201.441" y2="137.928" gradientUnits="userSpaceOnUse">
<stop stop-color="#1F80DE"/>
<stop offset="1" stop-color="#3A95ED"/>
</linearGradient>
<linearGradient id="paint2_linear_139_91" x1="167.249" y1="146.064" x2="262.093" y2="216.989" gradientUnits="userSpaceOnUse">
<stop stop-color="#F17C0F"/>
<stop offset="1" stop-color="#F79408" stop-opacity="0.92"/>
</linearGradient>
<linearGradient id="paint3_linear_139_91" x1="40" y1="68" x2="135" y2="138" gradientUnits="userSpaceOnUse">
<stop stop-color="#F17C0F"/>
<stop offset="1" stop-color="#F79408" stop-opacity="0.92"/>
</linearGradient>
</defs>
</svg>
