<svg width="200" height="330" viewBox="0 0 200 330" fill="none" xmlns="http://www.w3.org/2000/svg">
<rect width="200" height="100" rx="10" fill="#D9D9D9"/>
<rect y="115" width="200" height="100" rx="10" fill="#D9D9D9"/>
<rect y="230" width="200" height="100" rx="10" fill="#D9D9D9"/>
<circle cx="100" cy="50" r="11.5" fill="#D9D9D9" stroke="black"/>
<path d="M103.144 54.912V56H97V54.912H99.456V47.096C99.456 46.8613 99.464 46.624 99.48 46.384L97.44 48.136C97.3707 48.1947 97.3013 48.232 97.232 48.248C97.1627 48.2587 97.0987 48.2587 97.04 48.248C96.9813 48.2373 96.9253 48.216 96.872 48.184C96.824 48.152 96.7867 48.1173 96.76 48.08L96.312 47.464L99.728 44.512H100.888V54.912H103.144Z" fill="black"/>
<circle cx="100" cy="165" r="11.5" fill="#D9D9D9" stroke="black"/>
<path d="M102.896 169.648C103.051 169.648 103.173 169.693 103.264 169.784C103.355 169.875 103.4 169.992 103.4 170.136V171H95.752V170.512C95.752 170.411 95.7733 170.307 95.816 170.2C95.8587 170.093 95.9253 169.995 96.016 169.904L99.688 166.216C99.992 165.907 100.269 165.611 100.52 165.328C100.771 165.04 100.984 164.752 101.16 164.464C101.336 164.176 101.472 163.885 101.568 163.592C101.664 163.293 101.712 162.976 101.712 162.64C101.712 162.304 101.659 162.011 101.552 161.76C101.445 161.504 101.299 161.293 101.112 161.128C100.931 160.963 100.715 160.84 100.464 160.76C100.213 160.675 99.944 160.632 99.656 160.632C99.3627 160.632 99.0933 160.675 98.848 160.76C98.6027 160.845 98.384 160.965 98.192 161.12C98.0053 161.269 97.848 161.448 97.72 161.656C97.592 161.864 97.5013 162.093 97.448 162.344C97.384 162.531 97.296 162.656 97.184 162.72C97.0773 162.779 96.9253 162.795 96.728 162.768L95.984 162.64C96.0587 162.117 96.2027 161.656 96.416 161.256C96.6347 160.851 96.9067 160.512 97.232 160.24C97.5627 159.968 97.9387 159.763 98.36 159.624C98.7813 159.48 99.2373 159.408 99.728 159.408C100.213 159.408 100.667 159.48 101.088 159.624C101.509 159.768 101.875 159.979 102.184 160.256C102.493 160.528 102.736 160.861 102.912 161.256C103.088 161.651 103.176 162.099 103.176 162.6C103.176 163.027 103.112 163.424 102.984 163.792C102.856 164.155 102.683 164.501 102.464 164.832C102.245 165.163 101.992 165.485 101.704 165.8C101.421 166.115 101.12 166.432 100.8 166.752L97.776 169.84C97.9893 169.781 98.2053 169.736 98.424 169.704C98.6427 169.667 98.8533 169.648 99.056 169.648H102.896Z" fill="black"/>
<circle cx="100" cy="280" r="11.5" fill="#D9D9D9" stroke="black"/>
<path d="M96.04 277.64C96.1147 277.117 96.2587 276.656 96.472 276.256C96.6853 275.851 96.9547 275.512 97.28 275.24C97.6107 274.968 97.9867 274.763 98.408 274.624C98.8347 274.48 99.2933 274.408 99.784 274.408C100.269 274.408 100.717 274.477 101.128 274.616C101.539 274.755 101.891 274.952 102.184 275.208C102.483 275.464 102.715 275.773 102.88 276.136C103.045 276.499 103.128 276.901 103.128 277.344C103.128 277.707 103.08 278.032 102.984 278.32C102.893 278.603 102.76 278.851 102.584 279.064C102.413 279.277 102.205 279.459 101.96 279.608C101.715 279.757 101.44 279.88 101.136 279.976C101.883 280.168 102.443 280.499 102.816 280.968C103.195 281.432 103.384 282.013 103.384 282.712C103.384 283.24 103.283 283.715 103.08 284.136C102.883 284.557 102.611 284.917 102.264 285.216C101.917 285.509 101.512 285.736 101.048 285.896C100.589 286.051 100.096 286.128 99.568 286.128C98.96 286.128 98.44 286.053 98.008 285.904C97.576 285.749 97.2107 285.539 96.912 285.272C96.6133 285.005 96.368 284.691 96.176 284.328C95.984 283.96 95.8213 283.563 95.688 283.136L96.304 282.88C96.464 282.811 96.6187 282.792 96.768 282.824C96.9227 282.856 97.0347 282.944 97.104 283.088C97.1733 283.237 97.2587 283.416 97.36 283.624C97.4667 283.832 97.6107 284.032 97.792 284.224C97.9733 284.416 98.2027 284.579 98.48 284.712C98.7627 284.845 99.12 284.912 99.552 284.912C99.952 284.912 100.301 284.848 100.6 284.72C100.904 284.587 101.155 284.416 101.352 284.208C101.555 284 101.707 283.768 101.808 283.512C101.909 283.256 101.96 283.003 101.96 282.752C101.96 282.443 101.92 282.16 101.84 281.904C101.76 281.648 101.611 281.427 101.392 281.24C101.173 281.053 100.872 280.907 100.488 280.8C100.109 280.693 99.6213 280.64 99.024 280.64V279.608C99.5147 279.603 99.9307 279.549 100.272 279.448C100.619 279.347 100.899 279.208 101.112 279.032C101.331 278.856 101.488 278.645 101.584 278.4C101.685 278.155 101.736 277.883 101.736 277.584C101.736 277.253 101.683 276.965 101.576 276.72C101.475 276.475 101.333 276.272 101.152 276.112C100.971 275.952 100.755 275.832 100.504 275.752C100.259 275.672 99.992 275.632 99.704 275.632C99.416 275.632 99.1467 275.675 98.896 275.76C98.6507 275.845 98.432 275.965 98.24 276.12C98.0533 276.269 97.896 276.448 97.768 276.656C97.64 276.864 97.5493 277.093 97.496 277.344C97.4267 277.531 97.3387 277.656 97.232 277.72C97.1307 277.779 96.9813 277.795 96.784 277.768L96.04 277.64Z" fill="black"/>
</svg>
